<svg width="122" height="121" viewBox="0 0 122 121" fill="none" xmlns="http://www.w3.org/2000/svg">
<path d="M105.668 26.4636C97.5852 26.5818 90.944 33.1757 90.7786 41.2585C90.6604 47.0016 93.7329 52.0357 98.3415 54.6827V81.2947C98.3415 94.837 86.4772 105.874 71.8713 105.874C57.6908 105.874 46.0629 95.4515 45.4247 82.4291C62.6304 78.884 75.6291 63.6164 75.6291 45.3709V8.64348C75.6291 5.94919 73.7148 3.60941 71.0678 3.08946L56.2019 0.111567C53.1295 -0.50292 50.1516 1.48234 49.5371 4.55478L48.7808 8.26533C48.1663 11.3378 50.1516 14.3157 53.224 14.9301L60.4797 16.3718V45.0636C60.4797 57.5661 50.5061 67.9178 38.0036 68.036C25.383 68.1541 15.1022 57.9442 15.1022 45.3472V16.3955L22.3579 14.9538C25.4303 14.3393 27.4156 11.3614 26.8011 8.28897L26.0684 4.57841C25.4539 1.50598 22.476 -0.479286 19.4036 0.135201L4.56138 3.06583C1.91436 3.60941 0 5.92556 0 8.64348V45.3709C0 63.64 13.0224 78.9313 30.2753 82.4291C30.8898 103.794 49.3007 121 71.8477 121C94.7728 121 113.444 103.18 113.444 81.2947V54.6827C117.958 52.0593 121.007 47.1907 121.007 41.5894C121.007 33.152 114.105 26.3454 105.668 26.4636ZM105.881 45.3709C103.801 45.3709 102.099 43.6692 102.099 41.5894C102.099 39.5096 103.801 37.808 105.881 37.808C107.961 37.808 109.662 39.5096 109.662 41.5894C109.662 43.6692 107.961 45.3709 105.881 45.3709Z" fill="#28BE97"/>
</svg>
