<svg width="507" height="165" viewBox="0 0 507 165" fill="none" xmlns="http://www.w3.org/2000/svg">
<path d="M168.43 44.22C176.497 44.22 183.573 45.7967 189.66 48.95C195.82 52.1033 200.55 56.6133 203.85 62.48C207.223 68.2733 208.91 75.02 208.91 82.72C208.91 90.42 207.223 97.1667 203.85 102.96C200.55 108.68 195.82 113.117 189.66 116.27C183.573 119.423 176.497 121 168.43 121H141.59V44.22H168.43ZM167.88 107.91C175.947 107.91 182.18 105.71 186.58 101.31C190.98 96.91 193.18 90.7133 193.18 82.72C193.18 74.7267 190.98 68.4933 186.58 64.02C182.18 59.4733 175.947 57.2 167.88 57.2H156.99V107.91H167.88ZM247.498 121.99C241.631 121.99 236.351 120.707 231.658 118.14C226.964 115.5 223.261 111.797 220.548 107.03C217.908 102.263 216.588 96.7633 216.588 90.53C216.588 84.2967 217.944 78.7967 220.658 74.03C223.444 69.2633 227.221 65.5967 231.988 63.03C236.754 60.39 242.071 59.07 247.938 59.07C253.804 59.07 259.121 60.39 263.888 63.03C268.654 65.5967 272.394 69.2633 275.108 74.03C277.894 78.7967 279.288 84.2967 279.288 90.53C279.288 96.7633 277.858 102.263 274.998 107.03C272.211 111.797 268.398 115.5 263.558 118.14C258.791 120.707 253.438 121.99 247.498 121.99ZM247.498 108.57C250.284 108.57 252.888 107.91 255.308 106.59C257.801 105.197 259.781 103.143 261.248 100.43C262.714 97.7167 263.448 94.4167 263.448 90.53C263.448 84.7367 261.908 80.3 258.828 77.22C255.821 74.0667 252.118 72.49 247.718 72.49C243.318 72.49 239.614 74.0667 236.608 77.22C233.674 80.3 232.208 84.7367 232.208 90.53C232.208 96.3233 233.638 100.797 236.498 103.95C239.431 107.03 243.098 108.57 247.498 108.57ZM286.624 90.53C286.624 84.2233 287.907 78.7233 290.474 74.03C293.041 69.2633 296.597 65.5967 301.144 63.03C305.691 60.39 310.897 59.07 316.764 59.07C324.317 59.07 330.551 60.9767 335.464 64.79C340.451 68.53 343.787 73.81 345.474 80.63H328.864C327.984 77.99 326.481 75.9367 324.354 74.47C322.301 72.93 319.734 72.16 316.654 72.16C312.254 72.16 308.771 73.7733 306.204 77C303.637 80.1533 302.354 84.6633 302.354 90.53C302.354 96.3233 303.637 100.833 306.204 104.06C308.771 107.213 312.254 108.79 316.654 108.79C322.887 108.79 326.957 106.003 328.864 100.43H345.474C343.787 107.03 340.451 112.273 335.464 116.16C330.477 120.047 324.244 121.99 316.764 121.99C310.897 121.99 305.691 120.707 301.144 118.14C296.597 115.5 293.041 111.833 290.474 107.14C287.907 102.373 286.624 96.8367 286.624 90.53ZM374.686 72.71V102.19C374.686 104.243 375.163 105.747 376.116 106.7C377.143 107.58 378.829 108.02 381.176 108.02H388.326V121H378.646C365.666 121 359.176 114.693 359.176 102.08V72.71H351.916V60.06H359.176V44.99H374.686V60.06H388.326V72.71H374.686ZM426.463 121.99C420.596 121.99 415.316 120.707 410.623 118.14C405.929 115.5 402.226 111.797 399.513 107.03C396.873 102.263 395.553 96.7633 395.553 90.53C395.553 84.2967 396.909 78.7967 399.623 74.03C402.409 69.2633 406.186 65.5967 410.953 63.03C415.719 60.39 421.036 59.07 426.903 59.07C432.769 59.07 438.086 60.39 442.853 63.03C447.619 65.5967 451.359 69.2633 454.073 74.03C456.859 78.7967 458.253 84.2967 458.253 90.53C458.253 96.7633 456.823 102.263 453.962 107.03C451.176 111.797 447.363 115.5 442.523 118.14C437.756 120.707 432.403 121.99 426.463 121.99ZM426.463 108.57C429.249 108.57 431.853 107.91 434.273 106.59C436.766 105.197 438.746 103.143 440.213 100.43C441.679 97.7167 442.413 94.4167 442.413 90.53C442.413 84.7367 440.873 80.3 437.793 77.22C434.786 74.0667 431.083 72.49 426.683 72.49C422.283 72.49 418.579 74.0667 415.573 77.22C412.639 80.3 411.173 84.7367 411.173 90.53C411.173 96.3233 412.603 100.797 415.463 103.95C418.396 107.03 422.063 108.57 426.463 108.57ZM484.949 69.52C486.929 66.2933 489.496 63.7633 492.649 61.93C495.876 60.0967 499.542 59.18 503.649 59.18V75.35H499.579C494.739 75.35 491.072 76.4867 488.579 78.76C486.159 81.0333 484.949 84.9933 484.949 90.64V121H469.549V60.06H484.949V69.52Z" fill="#28BE97"/>
<path d="M105.668 42.4636C97.5852 42.5818 90.944 49.1757 90.7786 57.2585C90.6604 63.0016 93.7329 68.0357 98.3415 70.6827V97.2947C98.3415 110.837 86.4772 121.874 71.8713 121.874C57.6908 121.874 46.0629 111.452 45.4247 98.4291C62.6304 94.884 75.6291 79.6164 75.6291 61.3709V24.6435C75.6291 21.9492 73.7148 19.6094 71.0678 19.0895L56.2019 16.1116C53.1295 15.4971 50.1516 17.4823 49.5371 20.5548L48.7808 24.2653C48.1663 27.3378 50.1516 30.3157 53.224 30.9301L60.4797 32.3718V61.0636C60.4797 73.5661 50.5061 83.9178 38.0036 84.036C25.383 84.1541 15.1022 73.9442 15.1022 61.3472V32.3955L22.3579 30.9538C25.4303 30.3393 27.4156 27.3614 26.8011 24.289L26.0684 20.5784C25.4539 17.506 22.476 15.5207 19.4036 16.1352L4.56138 19.0658C1.91436 19.6094 0 21.9256 0 24.6435V61.3709C0 79.64 13.0224 94.9313 30.2753 98.4291C30.8898 119.794 49.3007 137 71.8477 137C94.7728 137 113.444 119.18 113.444 97.2947V70.6827C117.958 68.0593 121.007 63.1907 121.007 57.5894C121.007 49.152 114.105 42.3454 105.668 42.4636ZM105.881 61.3709C103.801 61.3709 102.099 59.6692 102.099 57.5894C102.099 55.5096 103.801 53.808 105.881 53.808C107.961 53.808 109.662 55.5096 109.662 57.5894C109.662 59.6692 107.961 61.3709 105.881 61.3709Z" fill="#777777"/>
</svg>
