<svg width="121" height="131" viewBox="0 0 121 131" fill="none" xmlns="http://www.w3.org/2000/svg">
<path d="M110.128 75.6494C108.328 78.0803 106.218 80.3262 103.795 82.3872L103.899 82.4664L101.719 84.1311C91.7539 91.7408 78.6743 95.942 64.5567 95.942C50.6466 95.942 37.4632 91.7408 27.6016 84.2103C17.7401 76.6798 12.3421 66.6921 12.3421 55.9908C12.3421 55.1982 12.3767 54.4055 12.4459 53.6128C12.4459 53.5071 12.4459 53.4014 12.4459 53.2957V53.2164C12.4459 53.1636 12.4459 53.1107 12.4459 53.0579V52.9786C12.4459 52.8201 12.4805 52.6615 12.5497 52.503C12.5497 52.3445 12.5497 52.2124 12.5497 52.1067C12.6189 51.8953 12.6536 51.6839 12.6536 51.4725C12.6536 51.314 12.6882 51.1554 12.7574 50.9969C12.7574 50.8384 12.792 50.6534 12.8612 50.4421C12.8612 50.3364 12.8612 50.2307 12.8612 50.125C12.9304 49.9664 12.965 49.7815 12.965 49.5701C13.0342 49.4644 13.0688 49.3587 13.0688 49.253C13.0688 49.1473 13.1034 49.0416 13.1726 48.9359C13.1726 48.7774 13.2072 48.6453 13.2764 48.5396C13.2764 48.3811 13.311 48.2489 13.3802 48.1433C13.3802 47.9847 13.4148 47.8262 13.484 47.6677C13.7608 46.5579 14.1068 45.4745 14.5221 44.4176V44.3384C14.5913 44.2327 14.6605 44.1006 14.7297 43.942C14.7989 43.8364 14.8335 43.7042 14.8335 43.5457C15.1795 42.8587 15.5255 42.1717 15.8715 41.4847C15.9408 41.379 15.9754 41.2733 15.9754 41.1677C16.0446 41.062 16.1138 40.9563 16.183 40.8506C16.2522 40.7449 16.3214 40.6128 16.3906 40.4542C16.4598 40.3485 16.529 40.2429 16.5982 40.1372V40.0579C16.7366 39.8993 16.8404 39.7408 16.9096 39.5823C16.9788 39.4238 17.048 39.2916 17.1172 39.1859C18.4667 37.0457 20.0238 34.9054 21.8923 32.9237L22.2037 32.6067C22.4113 32.3953 22.6189 32.1839 22.8266 31.9725C22.8958 31.8668 22.9996 31.7612 23.138 31.6555C23.3456 31.4441 23.5878 31.2327 23.8646 31.0213C24.003 30.8628 24.1414 30.7307 24.2799 30.625C24.3491 30.5193 24.4875 30.3872 24.6951 30.2286C24.8335 30.123 24.9719 29.9908 25.1103 29.8323C25.2487 29.7266 25.3871 29.5945 25.5255 29.436L19.401 24.7591C9.22795 33.3201 3.62241 44.3384 3.62241 55.9908C3.62241 68.436 9.95459 80.0884 21.4771 88.8872C32.9996 97.686 48.3629 102.521 64.5567 102.521C80.9581 102.521 96.3214 97.6859 107.844 88.8079C111.062 86.2713 113.968 83.4969 116.46 80.4847L110.128 75.6494Z" fill="url(#paint0_linear_3_85)"/>
<path d="M32.0653 80.8018C40.785 87.4603 52.3075 91.1067 64.5567 91.1067C64.9719 91.1067 65.3871 91.1067 65.8023 91.1067C65.9408 91.1067 66.1138 91.1067 66.3214 91.1067C66.5982 91.0538 66.875 91.0274 67.1518 91.0274C67.4286 91.0274 67.6709 91.0274 67.8785 91.0274C68.0169 91.0274 68.1207 91.0274 68.1899 91.0274L68.2937 90.9481C68.5013 90.9481 68.7089 90.9481 68.9165 90.9481C69.1241 90.9481 69.3318 90.9217 69.5394 90.8689C69.6086 90.8689 69.7124 90.8689 69.8508 90.8689H70.0584C70.1968 90.8689 70.3698 90.8424 70.5774 90.7896C71.1311 90.7368 71.6847 90.6839 72.2383 90.6311C72.3767 90.6311 72.5152 90.6046 72.6536 90.5518C72.792 90.5518 72.9304 90.5254 73.0688 90.4726H73.1726C73.311 90.4726 73.4494 90.4461 73.5878 90.3933C74.003 90.3404 74.4183 90.2876 74.8335 90.2347C75.1103 90.1819 75.3871 90.1291 75.6639 90.0762C75.7331 90.0762 75.8023 90.0762 75.8715 90.0762C76.0792 90.0234 76.2522 89.9705 76.3906 89.9177C76.5982 89.9177 76.7712 89.8912 76.9096 89.8384C76.9788 89.8384 77.0826 89.812 77.221 89.7591C77.2902 89.7591 77.394 89.7327 77.5325 89.6799C77.6709 89.6799 77.8093 89.6534 77.9477 89.6006C78.0861 89.5477 78.2591 89.5213 78.4667 89.5213C78.5359 89.4685 78.6397 89.442 78.7781 89.442C79.1934 89.3363 79.574 89.2307 79.92 89.125C80.0584 89.0721 80.1622 89.0457 80.2314 89.0457L80.3352 88.9664C80.4736 88.9664 80.5774 88.94 80.6466 88.8872C80.8543 88.8343 81.0619 88.7815 81.2695 88.7286C81.4079 88.6758 81.5117 88.6493 81.5809 88.6493C81.8577 88.5437 82.0999 88.4644 82.3075 88.4116L82.9304 88.253C83.138 88.1473 83.311 88.0681 83.4494 88.0152C83.5878 87.9624 83.6916 87.936 83.7608 87.936L83.8646 87.8567C84.0722 87.8038 84.2452 87.751 84.3837 87.6982C85.3525 87.3282 86.2868 86.9583 87.1864 86.5884C87.3248 86.5355 87.4286 86.4827 87.4978 86.4298C87.7055 86.377 87.9131 86.2977 88.1207 86.192L89.1588 85.6372C89.6432 85.4258 90.1276 85.188 90.612 84.9238C90.7504 84.8709 90.8889 84.7916 91.0273 84.6859H91.1311C91.2695 84.6331 91.3733 84.5803 91.4425 84.5274V84.4481C91.5809 84.4481 91.6847 84.4217 91.7539 84.3689C91.8923 84.2632 92.0307 84.1839 92.1691 84.1311C92.3075 84.0254 92.446 83.9461 92.5844 83.8932C92.6536 83.8404 92.7228 83.7876 92.792 83.7347L92.8958 83.6555C93.0342 83.5498 93.1726 83.4705 93.311 83.4177C93.5186 83.312 93.6916 83.2063 93.83 83.1006C94.1068 82.942 94.3837 82.7571 94.6605 82.5457C94.7297 82.4929 94.7989 82.44 94.8681 82.3872L88.7435 77.7103C81.9961 82.0701 73.484 84.4481 64.5567 84.4481C44.003 84.4481 27.2902 71.686 27.2902 55.9908C27.2902 48.3018 31.2349 41.1677 38.2937 35.7774C41.7193 33.2408 45.6639 31.1798 50.0238 29.753L43.484 24.8384C39.3318 26.4237 35.4909 28.564 32.1691 31.1006C23.4494 37.7591 18.6743 46.5579 18.6743 55.9908C18.6743 65.3445 23.4494 74.2225 32.0653 80.8018Z" fill="url(#paint1_linear_3_85)"/>
<path d="M116.771 47.2713C116.771 34.8262 110.439 23.1738 98.9165 14.375C87.394 5.5762 72.1345 0.740829 55.8369 0.740829C39.4356 0.740829 24.176 5.57619 12.6535 14.4542C9.33175 16.9116 6.42517 19.7652 3.93382 22.7774L10.266 27.6128C12.0307 25.1554 14.2106 22.9359 16.5982 20.8749L16.4944 20.7957L18.7781 19.1311C28.6397 11.5213 41.8231 7.32009 55.8369 7.32009C69.747 7.32009 82.9304 11.5213 92.792 19.0518C102.654 26.5823 108.051 36.5701 108.051 47.2713C108.051 48.064 108.017 48.8567 107.948 49.6494C107.948 49.7551 107.948 49.8607 107.948 49.9664C107.948 50.0721 107.948 50.1514 107.948 50.2042V50.2835C107.948 50.4421 107.913 50.6006 107.844 50.7591C107.844 50.8648 107.844 50.9969 107.844 51.1554C107.844 51.3668 107.809 51.5782 107.74 51.7896C107.74 51.9481 107.74 52.0802 107.74 52.1859C107.671 52.3973 107.636 52.6087 107.636 52.8201C107.567 52.9258 107.532 53.0315 107.532 53.1372C107.532 53.2957 107.498 53.4807 107.429 53.692C107.429 53.7977 107.394 53.9034 107.325 54.0091C107.325 54.1148 107.325 54.2205 107.325 54.3262C107.256 54.4319 107.221 54.564 107.221 54.7225C107.152 54.8811 107.117 55.0132 107.117 55.1189C107.048 55.2774 106.979 55.436 106.91 55.5945C106.633 56.7043 106.287 57.7876 105.872 58.8445C105.802 59.003 105.733 59.1615 105.664 59.3201C105.595 59.4258 105.56 59.5315 105.56 59.6372C105.214 60.377 104.868 61.0904 104.522 61.7774C104.522 61.8303 104.487 61.9095 104.418 62.0152C104.349 62.1209 104.28 62.2266 104.211 62.3323C104.141 62.4908 104.072 62.6494 104.003 62.8079C103.934 62.9136 103.865 63.0193 103.795 63.125V63.2042C103.657 63.3628 103.553 63.5213 103.484 63.6798C103.415 63.8384 103.346 63.9705 103.276 64.0762C101.927 66.2164 100.37 68.3567 98.5013 70.3384L98.1899 70.6555C97.9823 70.8669 97.7747 71.0782 97.5671 71.2896C97.4979 71.3953 97.394 71.501 97.2556 71.6067C97.048 71.818 96.8404 72.0295 96.6328 72.2408C96.4944 72.3465 96.356 72.4786 96.2176 72.6372C96.0792 72.7429 95.9408 72.8485 95.8023 72.9542V73.0335C95.6639 73.1392 95.4909 73.2449 95.2833 73.3506C95.1449 73.5091 95.0065 73.6677 94.8681 73.8262L100.993 78.503C111.166 69.942 116.771 58.8445 116.771 47.2713Z" fill="url(#paint2_linear_3_85)"/>
<path d="M70.3698 73.5091L76.9096 78.4238C81.0619 76.8384 84.9027 74.6981 88.2245 72.1615C96.9442 65.503 101.823 56.7042 101.823 47.2713C101.823 37.9177 96.9442 29.0396 88.3283 22.4603C79.6086 15.8018 68.0861 12.1554 55.8369 12.1554C55.4217 12.1554 55.0411 12.1554 54.6951 12.1554C54.4875 12.1554 54.2799 12.1554 54.0722 12.1554C53.7954 12.1554 53.5186 12.1819 53.2418 12.2347C52.965 12.2347 52.7228 12.2347 52.5151 12.2347C52.4459 12.2347 52.3421 12.2347 52.2037 12.2347H52.0999C51.8923 12.2876 51.6847 12.314 51.4771 12.314C51.2695 12.314 51.0965 12.314 50.9581 12.314C50.8196 12.3668 50.6812 12.3933 50.5428 12.3933H50.3352C50.1968 12.3933 50.0584 12.4197 49.92 12.4725C49.2972 12.5254 48.7435 12.5782 48.2591 12.6311C48.0515 12.6311 47.8785 12.6575 47.7401 12.7103C47.6017 12.7103 47.4632 12.7103 47.3248 12.7103C47.1172 12.7632 46.9442 12.7896 46.8058 12.7896C46.3906 12.8953 45.9754 12.9746 45.5601 13.0274C45.2833 13.0803 45.0411 13.1331 44.8335 13.186H44.7297C44.6605 13.186 44.5913 13.186 44.5221 13.186C44.3145 13.2388 44.1414 13.2916 44.003 13.3445C43.8646 13.3445 43.6916 13.3709 43.484 13.4237C43.4148 13.4237 43.311 13.4502 43.1726 13.503C43.1034 13.503 42.9996 13.5294 42.8612 13.5823C42.7228 13.5823 42.619 13.6087 42.5498 13.6615C42.3421 13.6615 42.1691 13.6879 42.0307 13.7408C41.8923 13.7936 41.7539 13.8201 41.6155 13.8201C41.2003 13.9258 40.8196 14.0314 40.4736 14.1371C40.3352 14.19 40.2314 14.2164 40.1622 14.2164H40.0584C39.92 14.2693 39.8162 14.3221 39.747 14.375C39.5394 14.4278 39.3664 14.4806 39.228 14.5335C39.0895 14.5335 38.9511 14.5599 38.8127 14.6128C38.5359 14.6656 38.2937 14.7449 38.0861 14.8506L37.4632 15.0091C37.2556 15.1148 37.0826 15.1941 36.9442 15.2469C36.8058 15.2998 36.702 15.3262 36.6328 15.3262L36.529 15.4055C36.3906 15.4583 36.2176 15.5112 36.01 15.564C35.0411 15.8811 34.1068 16.251 33.2072 16.6737C33.0688 16.7266 32.965 16.7794 32.8958 16.8323C32.6882 16.8851 32.4805 16.9644 32.2729 17.0701L31.6501 17.3872C31.5117 17.44 31.3733 17.4929 31.2349 17.5457C30.7504 17.8099 30.266 18.0742 29.7816 18.3384C29.6432 18.3912 29.5048 18.444 29.3664 18.4969L29.2626 18.5762C29.1934 18.629 29.0895 18.6819 28.9511 18.7347V18.814C28.8819 18.814 28.8127 18.8404 28.7435 18.8932H28.6397C28.5013 18.9989 28.3629 19.0782 28.2245 19.1311C28.0861 19.2368 27.9477 19.316 27.8093 19.3689C27.7401 19.4217 27.6709 19.4746 27.6017 19.5274L27.4978 19.6067C27.3594 19.7124 27.221 19.7916 27.0826 19.8445C26.875 19.9502 26.702 20.0559 26.5636 20.1616C26.2868 20.3201 26.01 20.5051 25.7331 20.7164C25.6639 20.7693 25.5947 20.8221 25.5255 20.8749L31.6501 25.5518C38.3975 21.192 46.9096 18.7347 55.8369 18.7347C76.3906 18.7347 93.1034 31.5762 93.1034 47.2713C93.1034 54.8811 89.1587 62.0945 82.0999 67.4847C78.6743 70.0213 74.7297 72.0823 70.3698 73.5091Z" fill="url(#paint3_linear_3_85)"/>
<path d="M9.85078 119.168C9.57397 119.96 9.12414 120.568 8.50131 120.991C7.87847 121.361 7.11722 121.546 6.21756 121.546C5.45632 121.546 4.72968 121.414 4.03764 121.149C3.4148 120.832 2.96497 120.383 2.68815 119.802C2.34213 119.221 2.16912 118.507 2.16912 117.662C2.16912 117.08 2.30753 116.499 2.58435 115.918C2.86116 115.336 3.31099 114.861 3.93383 114.491C4.55667 114.174 5.35251 114.015 6.32137 114.015C7.15182 114.015 7.84386 114.174 8.39749 114.491C8.95113 114.755 9.36636 115.231 9.64317 115.918V115.997L11.6155 115.68L11.5117 115.601C11.1657 114.702 10.5428 113.989 9.64317 113.46C8.74352 112.985 7.63625 112.747 6.32137 112.747C5.2141 112.747 4.17604 112.932 3.20718 113.302C2.23832 113.725 1.51168 114.306 1.02725 115.046C0.47362 115.786 0.196808 116.657 0.196808 117.662C0.196808 118.613 0.439019 119.485 0.923448 120.277C1.33867 121.123 1.99611 121.757 2.89577 122.18C3.79542 122.603 4.93729 122.814 6.32137 122.814C7.70545 122.814 8.84732 122.523 9.74698 121.942C10.7158 121.414 11.3733 120.621 11.7193 119.564L11.8231 119.485L9.85078 119.088V119.168Z" fill="url(#paint4_linear_3_85)"/>
<path fill-rule="evenodd" clip-rule="evenodd" d="M29.3664 115.204C29.8508 115.944 30.093 116.79 30.093 117.741C30.093 118.745 29.8508 119.643 29.3664 120.436C28.8127 121.229 28.0515 121.81 27.0826 122.18C26.1138 122.603 25.0411 122.814 23.8646 122.814C22.6882 122.814 21.6155 122.576 20.6466 122.101C19.6778 121.678 18.9165 121.096 18.3629 120.357C17.8785 119.564 17.6363 118.745 17.6363 117.899C17.6363 116.314 18.2591 115.046 19.401 114.094C20.5774 113.196 22.0653 112.747 23.8646 112.747C25.1103 112.747 26.2176 112.958 27.1864 113.381C28.1553 113.804 28.8819 114.412 29.3664 115.204ZM28.1207 117.741C28.1207 117.001 27.9477 116.34 27.6017 115.759C27.2556 115.178 26.7712 114.755 26.1484 114.491C25.4563 114.174 24.6951 114.015 23.8646 114.015C22.7574 114.015 21.7539 114.306 20.8543 114.887C20.0238 115.521 19.6086 116.473 19.6086 117.899C19.6086 119.009 20.0238 119.908 20.8543 120.594C21.6847 121.229 22.6882 121.546 23.8646 121.546C25.1103 121.546 26.1484 121.229 26.9788 120.594C27.7401 119.908 28.1207 118.956 28.1207 117.741Z" fill="url(#paint5_linear_3_85)"/>
<path d="M46.5982 113.143L43.5878 119.802C43.3802 120.33 43.2072 120.753 43.0688 121.07L42.5497 119.881L39.4356 113.064H39.228V116.631L42.1345 122.814H43.7954L46.5982 116.631V113.143Z" fill="url(#paint6_linear_3_85)"/>
<path d="M38.6051 113.064H36.7366V122.814H38.6051V113.064Z" fill="url(#paint7_linear_3_85)"/>
<path d="M47.3248 122.814H49.1933V113.064H47.3248V122.814Z" fill="url(#paint8_linear_3_85)"/>
<path d="M57.7055 113.064H55.7332V122.814H57.7055V113.064Z" fill="url(#paint9_linear_3_85)"/>
<path d="M65.3871 114.57C65.0757 114.174 64.7643 113.857 64.2453 113.619C63.83 113.407 63.311 113.249 62.6882 113.143C62.2037 113.09 61.5463 113.064 60.7159 113.064H58.3283V114.332H60.8197C61.5809 114.332 62.0999 114.359 62.3767 114.412C62.792 114.517 63.138 114.702 63.4148 114.966C63.6916 115.231 63.7954 115.574 63.7262 115.997C63.7954 116.472 63.5878 116.869 63.1034 117.186C62.6882 117.45 61.9615 117.582 60.9235 117.582H58.3283V118.93H60.8197C62.6882 118.93 64.0376 118.613 64.6605 118.058C65.4217 117.477 65.8024 116.763 65.8024 115.918C65.8024 115.442 65.664 114.993 65.3871 114.57Z" fill="url(#paint10_linear_3_85)"/>
<path d="M77.3249 113.064L72.3421 122.814H74.4183L74.9373 121.625L76.3906 118.692L76.702 118.058L77.7401 115.918C78.0169 115.442 78.2245 114.966 78.3629 114.491C78.5705 114.966 78.8127 115.521 79.0896 116.155L80.439 118.692H77.1172L76.4944 119.881H80.9581L82.5152 122.814H84.6951L79.2972 113.064H77.3249Z" fill="url(#paint11_linear_3_85)"/>
<path d="M91.1311 122.814H92.8958V113.064H91.1311V122.814Z" fill="url(#paint12_linear_3_85)"/>
<path d="M99.5394 120.357V122.814H101.408V113.064H99.5394V120.357Z" fill="url(#paint13_linear_3_85)"/>
<path d="M93.5186 116.155L98.8127 122.101V119.564L93.5186 113.698V116.155Z" fill="url(#paint14_linear_3_85)"/>
<path d="M117.913 113.064L115.422 115.918C114.937 116.499 114.487 117.027 114.072 117.503V117.424L113.034 118.692V122.814H115.006V118.692L120.197 113.064H117.913Z" fill="url(#paint15_linear_3_85)"/>
<path d="M113.657 116.948L112.93 115.997L110.335 113.064H108.051L112.619 118.216L113.657 116.948Z" fill="url(#paint16_linear_3_85)"/>
<path d="M0.196808 127.649H1.44248V130.741H2.16912V127.649H3.4148V127.174H0.196808V127.649Z" fill="url(#paint17_linear_3_85)"/>
<path fill-rule="evenodd" clip-rule="evenodd" d="M9.12415 127.174L10.8889 130.741H10.0584L9.74699 129.948H7.98228L7.67086 130.741H6.84041L8.60512 127.174H9.12415ZM9.43556 129.472L8.81273 127.887L8.08609 129.472H9.43556Z" fill="url(#paint18_linear_3_85)"/>
<path d="M16.5982 129.314H17.5325V129.472C17.5325 129.684 17.4633 129.869 17.3248 130.027C17.1172 130.133 16.875 130.186 16.5982 130.186C16.4598 130.186 16.3214 130.16 16.183 130.107C16.0446 130.107 15.9408 130.054 15.8716 129.948C15.8024 129.895 15.7678 129.79 15.7678 129.631C15.6986 129.525 15.6639 129.288 15.6639 128.918C15.6639 128.601 15.6986 128.389 15.7678 128.283C15.7678 128.125 15.8024 128.019 15.8716 127.966C15.9408 127.861 16.0446 127.808 16.183 127.808C16.3214 127.755 16.4598 127.729 16.5982 127.729C16.8058 127.729 17.0134 127.755 17.221 127.808C17.3594 127.914 17.4633 128.046 17.5325 128.204H18.2591C18.1899 127.887 18.0169 127.649 17.7401 127.491C17.4633 127.279 17.0826 127.174 16.5982 127.174C16.2522 127.174 15.9408 127.227 15.6639 127.332C15.4563 127.491 15.2833 127.649 15.1449 127.808C15.0757 127.861 15.0411 127.966 15.0411 128.125C14.9719 128.284 14.9373 128.548 14.9373 128.918C14.9373 129.34 14.9719 129.631 15.0411 129.79C15.0411 129.842 15.0411 129.895 15.0411 129.948C15.1103 130.001 15.1449 130.054 15.1449 130.107C15.2833 130.265 15.4563 130.424 15.6639 130.582C15.9408 130.688 16.2522 130.741 16.5982 130.741C17.0826 130.741 17.4633 130.635 17.7401 130.424C18.0861 130.159 18.2591 129.842 18.2591 129.472V128.759H16.5982V129.314Z" fill="url(#paint19_linear_3_85)"/>
<path d="M23.657 127.174H23.0342V130.741H25.9407V130.186H23.657V127.174Z" fill="url(#paint20_linear_3_85)"/>
<path d="M30.5082 130.741H31.2349V127.174H30.5082V130.741Z" fill="url(#paint21_linear_3_85)"/>
<path d="M38.8127 129.71L36.7366 127.174H36.1138V130.741H36.7366V128.204H36.8404L38.9165 130.741H39.5394V127.174H38.8127V129.71Z" fill="url(#paint22_linear_3_85)"/>
<path d="M44.4183 130.741H47.4286V130.186H45.1449V129.155H47.0134V128.68H45.1449V127.729H47.4286V127.174H44.4183V130.741Z" fill="url(#paint23_linear_3_85)"/>
<path d="M58.9511 129.314H59.8854V129.472C59.8854 129.684 59.7816 129.869 59.574 130.027C59.3664 130.133 59.1242 130.186 58.8473 130.186C58.7089 130.186 58.5705 130.16 58.4321 130.107C58.3629 130.107 58.2937 130.054 58.2245 129.948C58.0861 129.895 58.0169 129.79 58.0169 129.631C57.9477 129.525 57.9131 129.288 57.9131 128.918C57.9131 128.601 57.9477 128.389 58.0169 128.283C58.0169 128.125 58.0861 128.019 58.2245 127.966C58.2937 127.861 58.3629 127.808 58.4321 127.808C58.5705 127.755 58.7089 127.729 58.8473 127.729C59.1242 127.729 59.3318 127.755 59.4702 127.808C59.6086 127.914 59.7124 128.046 59.7816 128.204H60.5082C60.439 127.887 60.266 127.649 59.9892 127.491C59.7124 127.279 59.3318 127.174 58.8473 127.174C58.5013 127.174 58.2245 127.227 58.0169 127.332C57.7401 127.491 57.5325 127.649 57.394 127.808C57.3248 127.861 57.2903 127.966 57.2903 128.125C57.2903 128.284 57.2903 128.548 57.2903 128.918C57.2903 129.34 57.2903 129.631 57.2903 129.79C57.2903 129.842 57.3248 129.895 57.394 129.948C57.394 130.001 57.394 130.054 57.394 130.107C57.5325 130.265 57.7401 130.424 58.0169 130.582C58.2245 130.688 58.5013 130.741 58.8473 130.741C59.3318 130.741 59.747 130.635 60.093 130.424C60.3698 130.159 60.5082 129.842 60.5082 129.472V128.759H58.9511V129.314Z" fill="url(#paint24_linear_3_85)"/>
<path fill-rule="evenodd" clip-rule="evenodd" d="M68.3975 128.125C68.3975 128.284 68.3975 128.548 68.3975 128.918C68.3975 129.34 68.3975 129.631 68.3975 129.79C68.3283 129.895 68.2591 130.001 68.1899 130.107C68.1207 130.265 67.9477 130.424 67.6709 130.582C67.4633 130.688 67.1518 130.741 66.7366 130.741C66.3906 130.741 66.0792 130.688 65.8024 130.582C65.5947 130.424 65.4217 130.265 65.2833 130.107C65.2833 130.054 65.2487 130.001 65.1795 129.948C65.1795 129.895 65.1795 129.842 65.1795 129.79C65.1103 129.631 65.0757 129.34 65.0757 128.918C65.0757 128.548 65.1103 128.284 65.1795 128.125C65.1795 127.966 65.2141 127.861 65.2833 127.808C65.4217 127.649 65.5947 127.491 65.8024 127.332C66.0792 127.227 66.3906 127.174 66.7366 127.174C67.1518 127.174 67.4633 127.227 67.6709 127.332C67.9477 127.491 68.1207 127.649 68.1899 127.808C68.2591 127.861 68.3283 127.966 68.3975 128.125ZM67.6709 128.918C67.6709 128.601 67.6709 128.389 67.6709 128.283C67.6017 128.125 67.5325 128.019 67.4633 127.966C67.3941 127.861 67.2902 127.808 67.1518 127.808C67.0826 127.755 66.9442 127.729 66.7366 127.729C66.5982 127.729 66.4598 127.755 66.3214 127.808C66.183 127.808 66.0792 127.861 66.01 127.966C65.9408 128.019 65.9062 128.125 65.9062 128.283C65.837 128.389 65.8024 128.601 65.8024 128.918C65.8024 129.288 65.837 129.525 65.9062 129.631C65.9062 129.79 65.9408 129.895 66.01 129.948C66.0792 130.054 66.183 130.107 66.3214 130.107C66.4598 130.16 66.5982 130.186 66.7366 130.186C66.9442 130.186 67.0826 130.16 67.1518 130.107C67.2902 130.107 67.3941 130.054 67.4633 129.948C67.5325 129.895 67.6017 129.79 67.6709 129.631C67.6709 129.525 67.6709 129.288 67.6709 128.918Z" fill="url(#paint25_linear_3_85)"/>
<path d="M73.1726 130.741H76.0792V130.186H73.7954V129.155H75.7678V128.68H73.7954V127.729H76.0792V127.174H73.1726V130.741Z" fill="url(#paint26_linear_3_85)"/>
<path d="M82.4114 128.68C82.1345 128.68 81.9615 128.68 81.8923 128.68C81.6155 128.627 81.4425 128.548 81.3733 128.442C81.2349 128.389 81.1657 128.31 81.1657 128.204C81.1657 128.046 81.2349 127.914 81.3733 127.808C81.5809 127.755 81.7885 127.729 81.9961 127.729C82.4114 127.729 82.792 127.808 83.138 127.966L83.4494 127.491C83.0342 127.279 82.5498 127.174 81.9961 127.174C81.5117 127.174 81.1311 127.253 80.8543 127.412C80.5774 127.623 80.439 127.887 80.439 128.204C80.439 128.468 80.5774 128.68 80.8543 128.838C81.0619 128.997 81.3387 129.103 81.6847 129.155C81.9615 129.208 82.1691 129.235 82.3075 129.235C82.7228 129.288 82.9304 129.446 82.9304 129.71C82.9304 130.027 82.619 130.186 81.9961 130.186C81.5117 130.186 81.0965 130.08 80.7504 129.869L80.2314 130.265C80.7158 130.582 81.3041 130.741 81.9961 130.741C83.0342 130.741 83.5878 130.397 83.657 129.71C83.657 129.446 83.5532 129.235 83.3456 129.076C83.138 128.865 82.8266 128.733 82.4114 128.68Z" fill="url(#paint27_linear_3_85)"/>
<path d="M96.2176 128.68H94.4529V127.174H93.7262V130.741H94.4529V129.155H96.2176V130.741H96.9442V127.174H96.2176V128.68Z" fill="url(#paint28_linear_3_85)"/>
<path d="M101.823 130.741H104.834V130.186H102.55V129.155H104.522V128.68H102.55V127.729H104.834V127.174H101.823V130.741Z" fill="url(#paint29_linear_3_85)"/>
<path fill-rule="evenodd" clip-rule="evenodd" d="M111.685 129.155L112.723 130.741H111.892L110.958 129.235H110.024V130.741H109.401V127.174H111.166C111.581 127.174 111.892 127.253 112.1 127.412C112.377 127.57 112.55 127.834 112.619 128.204C112.55 128.68 112.238 128.997 111.685 129.155ZM111.166 128.759C111.373 128.759 111.546 128.706 111.685 128.601C111.823 128.495 111.892 128.363 111.892 128.204C111.892 127.993 111.823 127.861 111.685 127.808C111.546 127.702 111.373 127.649 111.166 127.649H110.024V128.759H111.166Z" fill="url(#paint30_linear_3_85)"/>
<path d="M117.186 130.741H120.197V130.186H117.913V129.155H119.885V128.68H117.913V127.729H120.197V127.174H117.186V130.741Z" fill="url(#paint31_linear_3_85)"/>
<defs>
<linearGradient id="paint0_linear_3_85" x1="3.62241" y1="24.7591" x2="116.46" y2="24.7591" gradientUnits="userSpaceOnUse">
<stop/>
<stop offset="0.328"/>
<stop offset="0.524"/>
<stop offset="0.73"/>
<stop offset="1"/>
</linearGradient>
<linearGradient id="paint1_linear_3_85" x1="18.6743" y1="24.8384" x2="94.8681" y2="24.8384" gradientUnits="userSpaceOnUse">
<stop/>
<stop offset="0.328"/>
<stop offset="0.524"/>
<stop offset="0.73"/>
<stop offset="1"/>
</linearGradient>
<linearGradient id="paint2_linear_3_85" x1="3.93382" y1="0.740829" x2="116.771" y2="0.740829" gradientUnits="userSpaceOnUse">
<stop/>
<stop offset="0.328"/>
<stop offset="0.524"/>
<stop offset="0.73"/>
<stop offset="1"/>
</linearGradient>
<linearGradient id="paint3_linear_3_85" x1="25.5255" y1="12.1554" x2="101.823" y2="12.1554" gradientUnits="userSpaceOnUse">
<stop/>
<stop offset="0.328"/>
<stop offset="0.524"/>
<stop offset="0.73"/>
<stop offset="1"/>
</linearGradient>
<linearGradient id="paint4_linear_3_85" x1="0.196808" y1="112.747" x2="11.8231" y2="112.747" gradientUnits="userSpaceOnUse">
<stop/>
<stop offset="0.328"/>
<stop offset="0.524"/>
<stop offset="0.73"/>
<stop offset="1"/>
</linearGradient>
<linearGradient id="paint5_linear_3_85" x1="17.6363" y1="112.747" x2="30.093" y2="112.747" gradientUnits="userSpaceOnUse">
<stop/>
<stop offset="0.328"/>
<stop offset="0.524"/>
<stop offset="0.73"/>
<stop offset="1"/>
</linearGradient>
<linearGradient id="paint6_linear_3_85" x1="39.228" y1="113.064" x2="46.5982" y2="113.064" gradientUnits="userSpaceOnUse">
<stop/>
<stop offset="0.328"/>
<stop offset="0.524"/>
<stop offset="0.73"/>
<stop offset="1"/>
</linearGradient>
<linearGradient id="paint7_linear_3_85" x1="36.7366" y1="113.064" x2="38.6051" y2="113.064" gradientUnits="userSpaceOnUse">
<stop/>
<stop offset="0.328"/>
<stop offset="0.524"/>
<stop offset="0.73"/>
<stop offset="1"/>
</linearGradient>
<linearGradient id="paint8_linear_3_85" x1="47.3248" y1="113.064" x2="49.1933" y2="113.064" gradientUnits="userSpaceOnUse">
<stop/>
<stop offset="0.328"/>
<stop offset="0.524"/>
<stop offset="0.73"/>
<stop offset="1"/>
</linearGradient>
<linearGradient id="paint9_linear_3_85" x1="55.7332" y1="113.064" x2="57.7055" y2="113.064" gradientUnits="userSpaceOnUse">
<stop/>
<stop offset="0.328"/>
<stop offset="0.524"/>
<stop offset="0.73"/>
<stop offset="1"/>
</linearGradient>
<linearGradient id="paint10_linear_3_85" x1="58.3283" y1="113.064" x2="65.8024" y2="113.064" gradientUnits="userSpaceOnUse">
<stop/>
<stop offset="0.328"/>
<stop offset="0.524"/>
<stop offset="0.73"/>
<stop offset="1"/>
</linearGradient>
<linearGradient id="paint11_linear_3_85" x1="72.3421" y1="113.064" x2="84.6951" y2="113.064" gradientUnits="userSpaceOnUse">
<stop/>
<stop offset="0.328"/>
<stop offset="0.524"/>
<stop offset="0.73"/>
<stop offset="1"/>
</linearGradient>
<linearGradient id="paint12_linear_3_85" x1="91.1311" y1="113.064" x2="92.8958" y2="113.064" gradientUnits="userSpaceOnUse">
<stop/>
<stop offset="0.328"/>
<stop offset="0.524"/>
<stop offset="0.73"/>
<stop offset="1"/>
</linearGradient>
<linearGradient id="paint13_linear_3_85" x1="99.5394" y1="113.064" x2="101.408" y2="113.064" gradientUnits="userSpaceOnUse">
<stop/>
<stop offset="0.328"/>
<stop offset="0.524"/>
<stop offset="0.73"/>
<stop offset="1"/>
</linearGradient>
<linearGradient id="paint14_linear_3_85" x1="93.5186" y1="113.698" x2="98.8127" y2="113.698" gradientUnits="userSpaceOnUse">
<stop/>
<stop offset="0.328"/>
<stop offset="0.524"/>
<stop offset="0.73"/>
<stop offset="1"/>
</linearGradient>
<linearGradient id="paint15_linear_3_85" x1="113.034" y1="113.064" x2="120.197" y2="113.064" gradientUnits="userSpaceOnUse">
<stop/>
<stop offset="0.328"/>
<stop offset="0.524"/>
<stop offset="0.73"/>
<stop offset="1"/>
</linearGradient>
<linearGradient id="paint16_linear_3_85" x1="108.051" y1="113.064" x2="113.657" y2="113.064" gradientUnits="userSpaceOnUse">
<stop/>
<stop offset="0.328"/>
<stop offset="0.524"/>
<stop offset="0.73"/>
<stop offset="1"/>
</linearGradient>
<linearGradient id="paint17_linear_3_85" x1="0.196808" y1="127.174" x2="3.4148" y2="127.174" gradientUnits="userSpaceOnUse">
<stop/>
<stop offset="0.328"/>
<stop offset="0.524"/>
<stop offset="0.73"/>
<stop offset="1"/>
</linearGradient>
<linearGradient id="paint18_linear_3_85" x1="6.84041" y1="127.174" x2="10.8889" y2="127.174" gradientUnits="userSpaceOnUse">
<stop/>
<stop offset="0.328"/>
<stop offset="0.524"/>
<stop offset="0.73"/>
<stop offset="1"/>
</linearGradient>
<linearGradient id="paint19_linear_3_85" x1="14.9373" y1="127.174" x2="18.2591" y2="127.174" gradientUnits="userSpaceOnUse">
<stop/>
<stop offset="0.328"/>
<stop offset="0.524"/>
<stop offset="0.73"/>
<stop offset="1"/>
</linearGradient>
<linearGradient id="paint20_linear_3_85" x1="23.0342" y1="127.174" x2="25.9407" y2="127.174" gradientUnits="userSpaceOnUse">
<stop/>
<stop offset="0.328"/>
<stop offset="0.524"/>
<stop offset="0.73"/>
<stop offset="1"/>
</linearGradient>
<linearGradient id="paint21_linear_3_85" x1="30.5082" y1="127.174" x2="31.2349" y2="127.174" gradientUnits="userSpaceOnUse">
<stop/>
<stop offset="0.328"/>
<stop offset="0.524"/>
<stop offset="0.73"/>
<stop offset="1"/>
</linearGradient>
<linearGradient id="paint22_linear_3_85" x1="36.1138" y1="127.174" x2="39.5394" y2="127.174" gradientUnits="userSpaceOnUse">
<stop/>
<stop offset="0.328"/>
<stop offset="0.524"/>
<stop offset="0.73"/>
<stop offset="1"/>
</linearGradient>
<linearGradient id="paint23_linear_3_85" x1="44.4183" y1="127.174" x2="47.4286" y2="127.174" gradientUnits="userSpaceOnUse">
<stop/>
<stop offset="0.328"/>
<stop offset="0.524"/>
<stop offset="0.73"/>
<stop offset="1"/>
</linearGradient>
<linearGradient id="paint24_linear_3_85" x1="57.2903" y1="127.174" x2="60.5082" y2="127.174" gradientUnits="userSpaceOnUse">
<stop/>
<stop offset="0.328"/>
<stop offset="0.524"/>
<stop offset="0.73"/>
<stop offset="1"/>
</linearGradient>
<linearGradient id="paint25_linear_3_85" x1="65.0757" y1="127.174" x2="68.3975" y2="127.174" gradientUnits="userSpaceOnUse">
<stop/>
<stop offset="0.328"/>
<stop offset="0.524"/>
<stop offset="0.73"/>
<stop offset="1"/>
</linearGradient>
<linearGradient id="paint26_linear_3_85" x1="73.1726" y1="127.174" x2="76.0792" y2="127.174" gradientUnits="userSpaceOnUse">
<stop/>
<stop offset="0.328"/>
<stop offset="0.524"/>
<stop offset="0.73"/>
<stop offset="1"/>
</linearGradient>
<linearGradient id="paint27_linear_3_85" x1="80.2314" y1="127.174" x2="83.657" y2="127.174" gradientUnits="userSpaceOnUse">
<stop/>
<stop offset="0.328"/>
<stop offset="0.524"/>
<stop offset="0.73"/>
<stop offset="1"/>
</linearGradient>
<linearGradient id="paint28_linear_3_85" x1="93.7262" y1="127.174" x2="96.9442" y2="127.174" gradientUnits="userSpaceOnUse">
<stop/>
<stop offset="0.328"/>
<stop offset="0.524"/>
<stop offset="0.73"/>
<stop offset="1"/>
</linearGradient>
<linearGradient id="paint29_linear_3_85" x1="101.823" y1="127.174" x2="104.834" y2="127.174" gradientUnits="userSpaceOnUse">
<stop/>
<stop offset="0.328"/>
<stop offset="0.524"/>
<stop offset="0.73"/>
<stop offset="1"/>
</linearGradient>
<linearGradient id="paint30_linear_3_85" x1="109.401" y1="127.174" x2="112.723" y2="127.174" gradientUnits="userSpaceOnUse">
<stop/>
<stop offset="0.328"/>
<stop offset="0.524"/>
<stop offset="0.73"/>
<stop offset="1"/>
</linearGradient>
<linearGradient id="paint31_linear_3_85" x1="117.186" y1="127.174" x2="120.197" y2="127.174" gradientUnits="userSpaceOnUse">
<stop/>
<stop offset="0.328"/>
<stop offset="0.524"/>
<stop offset="0.73"/>
<stop offset="1"/>
</linearGradient>
</defs>
</svg>
