<svg width="121" height="131" viewBox="0 0 121 131" fill="none" xmlns="http://www.w3.org/2000/svg">
<path d="M11.9274 115.153L12.0177 115.057L10.1229 114.575L10.0327 114.671C9.79209 115.763 9.37104 116.598 8.76954 117.177C8.10789 117.691 7.32592 117.98 6.42367 118.044C5.64171 118.044 4.91992 117.819 4.25826 117.369C3.65676 116.984 3.20563 116.374 2.90488 115.538C2.54398 114.703 2.36352 113.74 2.36352 112.647C2.36352 111.748 2.51389 110.881 2.81465 110.045C3.05525 109.275 3.50638 108.632 4.16803 108.118C4.82968 107.668 5.61164 107.444 6.5139 107.444C7.35601 107.444 8.04772 107.668 8.58908 108.118C9.13043 108.504 9.55151 109.178 9.85226 110.142V110.238L11.747 109.756V109.66C11.3861 108.375 10.7545 107.379 9.85226 106.673C8.95 106.03 7.86729 105.709 6.60413 105.709C5.46127 105.709 4.40864 105.966 3.44624 106.48C2.45376 107.058 1.73195 107.829 1.1906 108.889C0.73947 109.949 0.468777 111.202 0.468777 112.647C0.468777 113.932 0.679314 115.121 1.10037 116.213C1.55149 117.369 2.27329 118.237 3.17554 118.815C4.01765 119.457 5.16052 119.779 6.60413 119.779C7.92744 119.779 9.07029 119.393 10.0327 118.622C10.9349 117.851 11.5665 116.695 11.9274 115.153Z" fill="url(#paint0_linear_3_334)"/>
<path fill-rule="evenodd" clip-rule="evenodd" d="M29.6117 109.082C30.0929 110.174 30.3335 111.395 30.3335 112.744C30.3335 114.093 30.0628 115.314 29.5214 116.406C28.9801 117.466 28.2583 118.333 27.2658 118.911C26.3034 119.49 25.2508 119.779 24.1079 119.779C22.9049 119.779 21.8222 119.457 20.8598 118.815C19.8974 118.172 19.1455 117.337 18.6041 116.309C18.1229 115.217 17.8823 114.061 17.8823 112.84C17.8823 110.624 18.4237 108.889 19.5966 107.54C20.7996 106.255 22.3034 105.613 24.1079 105.613C25.3109 105.613 26.3936 105.934 27.356 106.576C28.3184 107.154 29.0703 107.99 29.6117 109.082ZM28.3485 112.744C28.3485 111.652 28.1681 110.72 27.8071 109.949C27.5064 109.114 27.0252 108.504 26.3635 108.118C25.7019 107.668 24.95 107.444 24.1079 107.444C22.935 107.444 21.9425 107.829 21.1305 108.696C20.3184 109.467 19.8673 110.913 19.8673 112.937C19.8673 114.478 20.2583 115.699 21.0402 116.598C21.8823 117.498 22.9049 117.98 24.1079 118.044C25.3711 118.044 26.3635 117.562 27.1756 116.598C27.9575 115.699 28.3485 114.414 28.3485 112.744Z" fill="url(#paint1_linear_3_334)"/>
<path d="M49.3711 106.094H47.5665V119.779H49.3711V106.094Z" fill="url(#paint2_linear_3_334)"/>
<path d="M43.2357 117.273L42.7846 115.731L39.7169 106.094H39.5365V111.106L42.3335 119.779H44.0478L46.8447 111.106V106.191L43.8673 115.538C43.6267 116.245 43.4162 116.823 43.2357 117.273Z" fill="url(#paint3_linear_3_334)"/>
<path d="M37.0101 119.779H38.8147V106.094H37.0101V119.779Z" fill="url(#paint4_linear_3_334)"/>
<path d="M57.9425 106.094H56.0477V119.779H57.9425V106.094Z" fill="url(#paint5_linear_3_334)"/>
<path d="M64.5289 106.865C64.1079 106.544 63.5665 106.351 62.9049 106.287C62.4838 106.159 61.8523 106.094 61.0101 106.094H58.5741V107.925H61.1004C61.8823 107.925 62.3936 107.957 62.6342 108.022C63.0553 108.15 63.3861 108.407 63.6267 108.793C63.9274 109.178 64.0478 109.628 63.9876 110.142C64.0478 110.913 63.8372 111.491 63.356 111.876C62.935 112.262 62.1831 112.455 61.1004 112.455H58.5741V114.286H61.1004C62.9049 114.286 64.2583 113.9 64.9801 113.129C65.7019 112.294 66.0628 111.298 66.0628 110.142C66.0628 109.435 65.9124 108.793 65.6117 108.214C65.341 107.636 64.9801 107.251 64.5289 106.865Z" fill="url(#paint6_linear_3_334)"/>
<path d="M79.5966 106.094H77.6116L72.6492 119.779H74.6342L75.2658 118.14H75.1756L76.6192 113.997L76.9801 113.129L77.9726 110.142H78.0628C78.2432 109.499 78.4237 108.825 78.6041 108.118C78.7846 108.761 79.0553 109.532 79.4162 110.431L80.6793 113.997H77.4312L76.7996 115.731H81.3109L82.7545 119.779H84.9199L79.5966 106.094Z" fill="url(#paint7_linear_3_334)"/>
<path d="M93.8522 110.527L99.0853 118.719V115.249L93.8522 106.962V110.527Z" fill="url(#paint8_linear_3_334)"/>
<path d="M99.8071 116.406V116.309V119.779H101.702V106.094H99.8071V116.406Z" fill="url(#paint9_linear_3_334)"/>
<path d="M91.4162 119.779H93.1305V106.094H91.4162V119.779Z" fill="url(#paint10_linear_3_334)"/>
<path d="M115.687 110.142C115.206 110.913 114.785 111.619 114.424 112.262L113.341 113.997V119.779H115.236V113.997L120.469 106.094H118.213L115.687 110.142Z" fill="url(#paint11_linear_3_334)"/>
<path d="M113.161 110.238L110.634 106.094H108.288L112.89 113.322L113.973 111.587L113.161 110.238Z" fill="url(#paint12_linear_3_334)"/>
<path d="M0.468777 125.946H1.82216V130.186H2.81465V125.946H4.25826V125.079H0.468777V125.946Z" fill="url(#paint13_linear_3_334)"/>
<path fill-rule="evenodd" clip-rule="evenodd" d="M15.2658 130.186H14.2733L13.8222 129.03H11.9274L11.5666 130.186H10.4838L12.3786 125.079H13.3711L15.2658 130.186ZM13.4613 128.163L12.8297 126.332L12.1981 128.163H13.4613Z" fill="url(#paint14_linear_3_334)"/>
<path d="M24.1981 128.355H25.2808V129.03C24.9199 129.287 24.529 129.415 24.1079 129.415C23.6868 129.415 23.356 129.255 23.1154 128.934C22.8748 128.612 22.7545 128.163 22.7545 127.584C22.7545 126.428 23.2056 125.85 24.1079 125.85C24.7094 125.85 25.0703 126.139 25.1906 126.717L26.1831 126.524C25.9425 125.496 25.2508 124.982 24.1079 124.982C23.4462 124.982 22.9049 125.207 22.4838 125.657C22.0026 126.107 21.762 126.781 21.762 127.681C21.762 128.452 21.9726 129.062 22.3936 129.512C22.8147 130.026 23.4162 130.283 24.1981 130.283C25.0402 130.283 25.732 130.026 26.2733 129.512V127.488H24.1981V128.355Z" fill="url(#paint15_linear_3_334)"/>
<path d="M36.9199 125.079H35.9275V130.186H39.2658V129.319H36.9199V125.079Z" fill="url(#paint16_linear_3_334)"/>
<path d="M46.1229 130.186H47.1154V125.079H46.1229V130.186Z" fill="url(#paint17_linear_3_334)"/>
<path d="M57.0402 128.548L55.0553 125.079H54.153V130.186H55.0553V126.91L56.95 130.186H57.9425V125.079H57.0402V128.548Z" fill="url(#paint18_linear_3_334)"/>
<path d="M66.0628 127.97H68.4087V127.103H66.0628V125.946H68.5891V125.079H65.0703V130.186H68.6793V129.319H66.0628V127.97Z" fill="url(#paint19_linear_3_334)"/>
<path d="M87.1756 127.103H85.2808V125.079H84.2884V130.186H85.2808V127.97H87.1756V130.186H88.168V125.079H87.1756V127.103Z" fill="url(#paint20_linear_3_334)"/>
<path d="M96.1981 127.97H98.6342V127.103H96.1981V125.946H98.8147V125.079H95.2959V130.186H98.9049V129.319H96.1981V127.97Z" fill="url(#paint21_linear_3_334)"/>
<path fill-rule="evenodd" clip-rule="evenodd" d="M109.552 129.223L110.183 130.186H109.01L107.927 128.548C107.867 128.42 107.747 128.291 107.567 128.163C107.446 128.098 107.266 128.066 107.025 128.066H106.845V130.186H105.852V125.079H107.927C108.529 125.079 108.98 125.175 109.281 125.368C109.582 125.625 109.732 126.01 109.732 126.524C109.732 127.36 109.311 127.841 108.469 127.97C108.83 128.163 109.191 128.58 109.552 129.223ZM108.559 127.103C108.679 127.038 108.739 126.878 108.739 126.621C108.739 126.364 108.679 126.203 108.559 126.139C108.439 126.01 108.108 125.946 107.567 125.946H106.845V127.295H107.567C108.048 127.295 108.379 127.231 108.559 127.103Z" fill="url(#paint22_linear_3_334)"/>
<path d="M117.762 127.97H120.198V127.103H117.762V125.946H120.379V125.079H116.77V130.186H120.469V129.319H117.762V127.97Z" fill="url(#paint23_linear_3_334)"/>
<path d="M56.3184 76.2204V78.2442H56.2282H54.4237H30.5139H28.2583L28.7094 75.9313C28.7696 75.4816 28.8297 75.064 28.8898 74.6785C29.0101 74.2931 29.1305 73.9076 29.2508 73.5221V73.3294L29.341 73.1367C29.4011 72.8155 29.4914 72.5263 29.6117 72.2694V72.173C29.6718 71.9803 29.7319 71.7554 29.7921 71.4984C29.8522 71.2414 29.9425 70.9845 30.0628 70.7275C30.1831 70.4063 30.3034 70.085 30.4237 69.7638C30.544 69.4426 30.6643 69.1535 30.7846 68.8965C30.8447 68.768 30.9049 68.6395 30.965 68.511C31.0252 68.254 31.1154 67.997 31.2357 67.7401C31.2959 67.6116 31.356 67.5152 31.4162 67.451C31.5365 67.194 31.6568 66.937 31.7771 66.68C31.8372 66.5515 31.8974 66.423 31.9575 66.2945C32.138 65.9733 32.2884 65.6521 32.4087 65.3309C32.5891 65.0739 32.7695 64.8169 32.95 64.5599V64.4636C33.0101 64.3993 33.0703 64.3029 33.1305 64.1744L33.2207 64.0781C33.341 63.8211 33.5214 63.532 33.762 63.2108C33.9425 62.8895 34.153 62.5683 34.3936 62.2471C34.5741 62.0544 34.7545 61.7653 34.935 61.4762L35.0252 61.3798C35.0853 61.2513 35.1455 61.155 35.2056 61.0907C35.4462 60.8337 35.6568 60.5767 35.8372 60.3197C35.8974 60.2555 35.9275 60.2234 35.9275 60.2234C36.1681 59.9664 36.3786 59.7094 36.559 59.4525C36.6192 59.3882 36.6793 59.324 36.7395 59.2597C37.0102 58.9706 37.1906 58.6815 37.5515 58.3924C39.8372 55.8868 42.4237 53.831 45.3109 52.2249H31.4162C27.7169 56.176 24.8297 60.7052 22.8447 65.8127C20.6793 71.2093 19.5966 76.895 19.5966 82.7734V86.6282V87.3027H64.5289V50.2975V48.2738V47.1174V41.1426V11.9432V9.91946H64.6192H66.5139H90.4237H92.6793L92.2282 12.3286C90.965 18.978 87.8974 25.0492 83.3861 29.8676C82.4237 30.8313 81.4011 31.7628 80.3184 32.6623H92.2282C94.6643 29.5785 96.559 26.1092 98.0929 22.3509C100.168 17.0507 101.251 11.365 101.251 5.48657V0.957275H56.3184V76.2204Z" fill="url(#paint24_linear_3_334)"/>
<path d="M27.9876 39.3116V37.2879V11.9432V9.43763L30.2432 9.91947C36.4688 11.2686 42.2432 14.5451 46.7545 19.3635C47.0553 19.6847 47.356 20.0381 47.6568 20.4236V8.47395C45.2207 6.5466 42.5139 5.00475 39.7169 3.75197C34.7545 1.43915 29.4312 0.2827 23.8372 0.2827H19.5966V45.6719H47.6568V39.3116H29.8823H27.9876Z" fill="url(#paint25_linear_3_334)"/>
<path d="M92.2282 45.6719V47.5993V75.6422V78.0514L90.0628 77.5696C83.8372 76.3168 78.0628 73.0403 73.5515 68.1256C73.4312 68.0613 73.341 67.965 73.2808 67.8365V79.5933C75.5365 81.2315 77.9726 82.6771 80.5891 83.8335C85.5515 86.1463 90.8748 87.3027 96.3786 87.3027H100.709V39.3116H73.2808V45.6719H90.4237H92.2282Z" fill="url(#paint26_linear_3_334)"/>
<defs>
<linearGradient id="paint0_linear_3_334" x1="-1.33574" y1="91.2538" x2="-1.33574" y2="-5.69188" gradientUnits="userSpaceOnUse">
<stop/>
<stop offset="0.328"/>
<stop offset="0.524"/>
<stop offset="0.73"/>
<stop offset="1"/>
</linearGradient>
<linearGradient id="paint1_linear_3_334" x1="17.1605" y1="111.587" x2="17.1605" y2="19.5562" gradientUnits="userSpaceOnUse">
<stop/>
<stop offset="0.328"/>
<stop offset="0.524"/>
<stop offset="0.73"/>
<stop offset="1"/>
</linearGradient>
<linearGradient id="paint2_linear_3_334" x1="4.07783" y1="174.323" x2="4.07783" y2="-49.8286" gradientUnits="userSpaceOnUse">
<stop/>
<stop offset="0.328"/>
<stop offset="0.524"/>
<stop offset="0.73"/>
<stop offset="1"/>
</linearGradient>
<linearGradient id="paint3_linear_3_334" x1="32.138" y1="143.292" x2="32.138" y2="7.79929" gradientUnits="userSpaceOnUse">
<stop/>
<stop offset="0.328"/>
<stop offset="0.524"/>
<stop offset="0.73"/>
<stop offset="1"/>
</linearGradient>
<linearGradient id="paint4_linear_3_334" x1="-6.11768" y1="146.28" x2="-6.11768" y2="-77.0043" gradientUnits="userSpaceOnUse">
<stop/>
<stop offset="0.328"/>
<stop offset="0.524"/>
<stop offset="0.73"/>
<stop offset="1"/>
</linearGradient>
<linearGradient id="paint5_linear_3_334" x1="14.2732" y1="195.524" x2="14.2732" y2="-25.4476" gradientUnits="userSpaceOnUse">
<stop/>
<stop offset="0.328"/>
<stop offset="0.524"/>
<stop offset="0.73"/>
<stop offset="1"/>
</linearGradient>
<linearGradient id="paint6_linear_3_334" x1="58.3034" y1="145.991" x2="58.3034" y2="64.5599" gradientUnits="userSpaceOnUse">
<stop/>
<stop offset="0.328"/>
<stop offset="0.524"/>
<stop offset="0.73"/>
<stop offset="1"/>
</linearGradient>
<linearGradient id="paint7_linear_3_334" x1="72.1981" y1="170.564" x2="72.1981" y2="76.124" gradientUnits="userSpaceOnUse">
<stop/>
<stop offset="0.328"/>
<stop offset="0.524"/>
<stop offset="0.73"/>
<stop offset="1"/>
</linearGradient>
<linearGradient id="paint8_linear_3_334" x1="85.0101" y1="316.851" x2="85.0101" y2="73.4258" gradientUnits="userSpaceOnUse">
<stop/>
<stop offset="0.328"/>
<stop offset="0.524"/>
<stop offset="0.73"/>
<stop offset="1"/>
</linearGradient>
<linearGradient id="paint9_linear_3_334" x1="57.5815" y1="309.816" x2="57.5815" y2="88.0736" gradientUnits="userSpaceOnUse">
<stop/>
<stop offset="0.328"/>
<stop offset="0.524"/>
<stop offset="0.73"/>
<stop offset="1"/>
</linearGradient>
<linearGradient id="paint10_linear_3_334" x1="46.3938" y1="291.602" x2="46.3938" y2="64.9454" gradientUnits="userSpaceOnUse">
<stop/>
<stop offset="0.328"/>
<stop offset="0.524"/>
<stop offset="0.73"/>
<stop offset="1"/>
</linearGradient>
<linearGradient id="paint11_linear_3_334" x1="105.491" y1="232.336" x2="105.491" y2="121.61" gradientUnits="userSpaceOnUse">
<stop/>
<stop offset="0.328"/>
<stop offset="0.524"/>
<stop offset="0.73"/>
<stop offset="1"/>
</linearGradient>
<linearGradient id="paint12_linear_3_334" x1="107.115" y1="254.115" x2="107.115" y2="112.84" gradientUnits="userSpaceOnUse">
<stop/>
<stop offset="0.328"/>
<stop offset="0.524"/>
<stop offset="0.73"/>
<stop offset="1"/>
</linearGradient>
<linearGradient id="paint13_linear_3_334" x1="-0.704162" y1="94.6267" x2="-0.704162" y2="-13.6903" gradientUnits="userSpaceOnUse">
<stop/>
<stop offset="0.328"/>
<stop offset="0.524"/>
<stop offset="0.73"/>
<stop offset="1"/>
</linearGradient>
<linearGradient id="paint14_linear_3_334" x1="10.4838" y1="110.142" x2="10.4838" y2="19.6529" gradientUnits="userSpaceOnUse">
<stop/>
<stop offset="0.328"/>
<stop offset="0.524"/>
<stop offset="0.73"/>
<stop offset="1"/>
</linearGradient>
<linearGradient id="paint15_linear_3_334" x1="21.3109" y1="122.477" x2="21.3109" y2="28.8076" gradientUnits="userSpaceOnUse">
<stop/>
<stop offset="0.328"/>
<stop offset="0.524"/>
<stop offset="0.73"/>
<stop offset="1"/>
</linearGradient>
<linearGradient id="paint16_linear_3_334" x1="34.2132" y1="143.967" x2="34.2132" y2="22.5439" gradientUnits="userSpaceOnUse">
<stop/>
<stop offset="0.328"/>
<stop offset="0.524"/>
<stop offset="0.73"/>
<stop offset="1"/>
</linearGradient>
<linearGradient id="paint17_linear_3_334" x1="34.8447" y1="175.672" x2="34.8447" y2="-19.7614" gradientUnits="userSpaceOnUse">
<stop/>
<stop offset="0.328"/>
<stop offset="0.524"/>
<stop offset="0.73"/>
<stop offset="1"/>
</linearGradient>
<linearGradient id="paint18_linear_3_334" x1="53.0703" y1="158.326" x2="53.0703" y2="72.2695" gradientUnits="userSpaceOnUse">
<stop/>
<stop offset="0.328"/>
<stop offset="0.524"/>
<stop offset="0.73"/>
<stop offset="1"/>
</linearGradient>
<linearGradient id="paint19_linear_3_334" x1="63.8071" y1="171.432" x2="63.8071" y2="80.9426" gradientUnits="userSpaceOnUse">
<stop/>
<stop offset="0.328"/>
<stop offset="0.524"/>
<stop offset="0.73"/>
<stop offset="1"/>
</linearGradient>
<linearGradient id="paint20_linear_3_334" x1="83.2057" y1="185.501" x2="83.2057" y2="99.8306" gradientUnits="userSpaceOnUse">
<stop/>
<stop offset="0.328"/>
<stop offset="0.524"/>
<stop offset="0.73"/>
<stop offset="1"/>
</linearGradient>
<linearGradient id="paint21_linear_3_334" x1="93.9425" y1="200.245" x2="93.9425" y2="109.756" gradientUnits="userSpaceOnUse">
<stop/>
<stop offset="0.328"/>
<stop offset="0.524"/>
<stop offset="0.73"/>
<stop offset="1"/>
</linearGradient>
<linearGradient id="paint22_linear_3_334" x1="105.311" y1="210.268" x2="105.311" y2="121.128" gradientUnits="userSpaceOnUse">
<stop/>
<stop offset="0.328"/>
<stop offset="0.524"/>
<stop offset="0.73"/>
<stop offset="1"/>
</linearGradient>
<linearGradient id="paint23_linear_3_334" x1="115.506" y1="223.085" x2="115.506" y2="132.692" gradientUnits="userSpaceOnUse">
<stop/>
<stop offset="0.328"/>
<stop offset="0.524"/>
<stop offset="0.73"/>
<stop offset="1"/>
</linearGradient>
<linearGradient id="paint24_linear_3_334" x1="19.5966" y1="0.957275" x2="101.251" y2="0.957275" gradientUnits="userSpaceOnUse">
<stop/>
<stop offset="0.328"/>
<stop offset="0.524"/>
<stop offset="0.73"/>
<stop offset="1"/>
</linearGradient>
<linearGradient id="paint25_linear_3_334" x1="19.5966" y1="0.2827" x2="47.6568" y2="0.2827" gradientUnits="userSpaceOnUse">
<stop/>
<stop offset="0.328"/>
<stop offset="0.524"/>
<stop offset="0.73"/>
<stop offset="1"/>
</linearGradient>
<linearGradient id="paint26_linear_3_334" x1="73.2808" y1="39.3116" x2="100.709" y2="39.3116" gradientUnits="userSpaceOnUse">
<stop/>
<stop offset="0.328"/>
<stop offset="0.524"/>
<stop offset="0.73"/>
<stop offset="1"/>
</linearGradient>
</defs>
</svg>
