<svg width="120" height="130" viewBox="0 0 120 130" fill="none" xmlns="http://www.w3.org/2000/svg">
<path d="M50.9862 7.41269C51.1336 7.41269 51.2442 7.41269 51.318 7.41269C52.129 7.41269 52.9401 7.44357 53.7512 7.50534C57.4378 7.75243 60.977 8.18484 64.3687 8.80257V1.66786C60.9401 0.926589 57.2903 0.46329 53.4193 0.185314C52.0184 0.123542 50.5438 0.0617724 48.9954 0C48.553 0 48.1475 0 47.7788 0C47.7788 0 47.7419 0 47.6682 0C40.4793 0 33.0691 0.833926 25.7696 2.40912C17.364 4.16963 9.29033 6.85673 2.32259 10.2851V81.2616C9.06913 78.2038 16.7004 75.7021 24.6636 74.0342C30.8571 72.737 37.1613 71.9031 43.3548 71.7177C43.4286 71.7177 43.5023 71.6869 43.576 71.6251C44.6083 71.6251 45.6774 71.6251 46.7834 71.6251V64.305C38.8203 64.3977 30.6359 65.3243 22.4516 66.9922C19.576 67.6408 16.7005 68.382 14.0461 69.1233L11.0599 69.9572V67.2701V15.8446V14.6401L12.3871 14.0841C17.1429 12.1383 22.4516 10.5631 27.871 9.45117C33.1797 8.33927 38.5991 7.598 43.7972 7.41269C43.9447 7.41269 44.0553 7.41269 44.129 7.41269C45.3087 7.35091 46.4885 7.32003 47.6682 7.32003C48.1106 7.32003 48.553 7.32003 48.9954 7.32003H49.106C49.6958 7.32003 50.3226 7.35091 50.9862 7.41269Z" fill="url(#paint0_linear_3_241)"/>
<path fill-rule="evenodd" clip-rule="evenodd" d="M95.447 12.4162C103.3 10.7484 110.931 8.24661 117.677 5.18887V74.8681C110.82 78.2965 102.747 80.9836 94.341 82.7441C86.9309 84.3193 79.5207 85.1532 72.3318 85.1532C66.3594 85.1532 60.7189 84.5973 55.6313 83.4854V13.3428C56.9585 13.5899 58.2857 13.8061 59.6129 13.9914C61.8986 14.3003 64.1843 14.5474 66.4701 14.7327C68.3871 14.7945 70.341 14.8254 72.3318 14.8254C79.8525 14.8254 87.7051 13.9914 95.447 12.4162ZM97.5484 18.1611C89.1429 19.9216 80.6267 20.8482 72.3318 20.8482C70.341 20.8482 68.5714 20.8482 66.8018 20.7555L64.3687 20.5702V70.7911V77.5552L66.4701 77.6479C68.3871 77.8332 70.341 77.9259 72.3318 77.9259C78.8571 77.9259 85.4931 77.1846 92.2396 75.7021C97.659 74.5902 102.857 73.015 107.723 71.0691L109.051 70.6058V15.196L106.065 16.1226C103.3 16.8639 100.424 17.6051 97.5484 18.1611Z" fill="url(#paint1_linear_3_241)"/>
<path d="M8.29494 105.538C7.41014 104.797 6.26728 104.426 4.86636 104.426C4.12903 104.426 3.46545 104.519 2.87559 104.704C2.35946 104.89 1.88018 105.167 1.43778 105.538C0.995383 105.909 0.663593 106.341 0.442395 106.835C0.221197 107.268 0.110611 107.762 0.110611 108.318V117.862C0.110611 118.665 0.25807 119.313 0.553001 119.808C0.847931 120.302 1.21659 120.703 1.65899 121.012C2.10139 121.321 2.61751 121.568 3.20737 121.753C3.79723 121.877 4.3871 121.939 4.97696 121.939C5.64056 121.939 6.23043 121.815 6.74656 121.568C7.33642 121.383 7.85254 121.105 8.29494 120.734C8.6636 120.364 8.99539 119.931 9.29032 119.437C9.51152 118.943 9.62214 118.449 9.62214 117.954V116.842H6.63595V117.676C6.63595 118.047 6.59908 118.325 6.52534 118.51C6.37788 118.757 6.23042 118.943 6.08295 119.066C5.86176 119.19 5.64055 119.282 5.41935 119.344C5.19815 119.406 5.01382 119.437 4.86636 119.437C4.12903 119.437 3.64978 119.282 3.42858 118.974C3.13365 118.603 2.98619 118.171 2.98619 117.676V108.874C2.98619 108.318 3.13365 107.824 3.42858 107.391C3.64978 107.021 4.12903 106.835 4.86636 106.835C5.38249 106.835 5.8249 107.021 6.19356 107.391C6.48849 107.762 6.63595 108.194 6.63595 108.689V109.43H9.62214V108.503C9.62214 107.885 9.51152 107.33 9.29032 106.835C8.99539 106.341 8.6636 105.909 8.29494 105.538Z" fill="url(#paint2_linear_3_241)"/>
<path fill-rule="evenodd" clip-rule="evenodd" d="M27.0968 106.743C27.318 107.299 27.4286 107.916 27.4286 108.596V117.676C27.4286 118.418 27.318 119.035 27.0968 119.53C26.8018 120.086 26.3963 120.518 25.8802 120.827C25.4378 121.197 24.9217 121.475 24.3318 121.661C23.7419 121.846 23.1521 121.939 22.5622 121.939C21.9723 121.939 21.3825 121.846 20.7926 121.661C20.2028 121.475 19.6866 121.197 19.2442 120.827C18.7281 120.518 18.3226 120.086 18.0276 119.53C17.7327 119.035 17.5852 118.418 17.5852 117.676V108.596C17.5852 107.916 17.7327 107.299 18.0276 106.743C18.3226 106.249 18.7281 105.816 19.2442 105.445C19.6866 105.075 20.2028 104.828 20.7926 104.704C21.3825 104.519 21.9723 104.426 22.5622 104.426C23.1521 104.426 23.7419 104.519 24.3318 104.704C24.9217 104.828 25.4378 105.075 25.8802 105.445C26.3963 105.816 26.8018 106.249 27.0968 106.743ZM24.553 108.596C24.553 107.978 24.3318 107.546 23.8894 107.299C23.5207 106.99 23.0783 106.835 22.5622 106.835C22.0461 106.835 21.5668 106.99 21.1244 107.299C20.7558 107.546 20.5714 107.978 20.5714 108.596V117.676C20.5714 118.294 20.7558 118.727 21.1244 118.974C21.5668 119.282 22.0461 119.437 22.5622 119.437C23.0783 119.437 23.5207 119.282 23.8894 118.974C24.3318 118.727 24.553 118.294 24.553 117.676V108.596Z" fill="url(#paint3_linear_3_241)"/>
<path d="M49.106 121.753V104.519H46.2304L42.47 113.692L38.7097 104.519H35.8341V121.753H38.8203V111.283L41.6959 118.696H43.2442L46.1198 111.283H46.2304V121.753H49.106Z" fill="url(#paint4_linear_3_241)"/>
<path fill-rule="evenodd" clip-rule="evenodd" d="M66.9124 107.299C67.1336 107.916 67.2442 108.75 67.2442 109.8C67.2442 110.542 67.1705 111.19 67.023 111.746C66.9493 112.302 66.7281 112.796 66.3594 113.229C65.9908 113.785 65.4747 114.217 64.8111 114.526C64.1475 114.897 63.2627 115.082 62.1567 115.082H60.6083V121.753H57.6221V104.519H62.0461C62.8572 104.519 63.5945 104.612 64.2581 104.797C64.8479 104.982 65.4009 105.291 65.9171 105.723C66.4332 106.218 66.765 106.743 66.9124 107.299ZM64.4793 109.8C64.4793 109.43 64.4793 109.059 64.4793 108.689C64.4055 108.318 64.2949 107.978 64.1475 107.669C64 107.422 63.7788 107.237 63.4839 107.113C63.1889 106.928 62.7466 106.835 62.1567 106.835H60.6083V112.673H62.0461C62.636 112.673 63.0783 112.611 63.3733 112.488C63.7419 112.364 64 112.179 64.1475 111.932C64.2949 111.684 64.3687 111.376 64.3687 111.005C64.4424 110.634 64.4793 110.233 64.4793 109.8Z" fill="url(#paint5_linear_3_241)"/>
<path fill-rule="evenodd" clip-rule="evenodd" d="M84.3871 121.753H81.5115L80.6267 118.047H76.6451L75.7604 121.753H72.7742L77.4194 104.519H79.8525L84.3871 121.753ZM80.0737 115.731L78.5253 109.522L77.0876 115.731H80.0737Z" fill="url(#paint6_linear_3_241)"/>
<path d="M98.8756 114.897H98.765L94.341 104.519H91.576V121.753H94.4516V111.376H94.5622L98.9862 121.753H101.862V104.519H98.8756V114.897Z" fill="url(#paint7_linear_3_241)"/>
<path d="M116.793 104.519L114.47 111.376L112.037 104.519H108.94L113.032 114.526V121.753H115.908V114.526L120 104.519H116.793Z" fill="url(#paint8_linear_3_241)"/>
<path d="M0 126.664H1.43777V129.907H2.43319V126.664H3.87097V125.923H0V126.664Z" fill="url(#paint9_linear_3_241)"/>
<path fill-rule="evenodd" clip-rule="evenodd" d="M12.9401 125.923L14.9309 129.907H13.8249L13.4931 129.073H11.5023L11.1705 129.907H10.0645L11.9447 125.923H12.9401ZM13.0507 128.332L12.4977 126.85L11.8341 128.332H13.0507Z" fill="url(#paint10_linear_3_241)"/>
<path d="M23.7788 128.425H24.8848V128.981C24.5161 129.228 24.1475 129.351 23.7788 129.351C23.3364 129.351 22.9677 129.228 22.6728 128.981C22.4516 128.672 22.341 128.301 22.341 127.869C22.341 127.004 22.8203 126.572 23.7788 126.572C24.2949 126.572 24.6267 126.788 24.7742 127.22L25.7696 127.035C25.5484 126.232 24.8848 125.83 23.7788 125.83C23.1152 125.83 22.5253 126.016 22.0092 126.386C21.5668 126.757 21.3456 127.282 21.3456 127.962C21.3456 128.579 21.5668 129.073 22.0092 129.444C22.3779 129.815 22.9677 130 23.7788 130C24.5899 130 25.2903 129.784 25.8802 129.351V127.776H23.7788V128.425Z" fill="url(#paint11_linear_3_241)"/>
<path d="M37.2719 125.923H36.3871V129.907H39.7051V129.259H37.2719V125.923Z" fill="url(#paint12_linear_3_241)"/>
<path d="M46.5622 129.907H47.447V125.923H46.5622V129.907Z" fill="url(#paint13_linear_3_241)"/>
<path d="M57.4009 128.61L55.5207 125.923H54.5253V129.907H55.4101V127.313L57.4009 129.907H58.2857V125.923H57.4009V128.61Z" fill="url(#paint14_linear_3_241)"/>
<path d="M66.4701 128.147H68.7926V127.498H66.4701V126.664H69.0138V125.923H65.4747V129.907H69.1244V129.259H66.4701V128.147Z" fill="url(#paint15_linear_3_241)"/>
<path d="M86.7097 127.498H84.8295V125.923H83.9447V129.907H84.8295V128.239H86.7097V129.907H87.705V125.923H86.7097V127.498Z" fill="url(#paint16_linear_3_241)"/>
<path d="M95.7788 128.147H98.212V127.498H95.7788V126.664H98.4332V125.923H94.7834V129.907H98.4332V129.259H95.7788V128.147Z" fill="url(#paint17_linear_3_241)"/>
<path fill-rule="evenodd" clip-rule="evenodd" d="M109.161 129.166L109.714 129.907H108.608L107.502 128.61C107.429 128.487 107.318 128.394 107.171 128.332C107.023 128.27 106.839 128.239 106.618 128.239H106.396V129.907H105.401V125.923H107.502C108.092 125.923 108.535 126.016 108.829 126.201C109.198 126.325 109.382 126.603 109.382 127.035C109.382 127.714 108.94 128.085 108.055 128.147C108.424 128.332 108.793 128.672 109.161 129.166ZM108.055 127.498C108.277 127.436 108.387 127.313 108.387 127.128C108.387 126.942 108.313 126.819 108.166 126.757C108.018 126.695 107.687 126.664 107.171 126.664H106.396V127.591H107.06C107.576 127.591 107.908 127.56 108.055 127.498Z" fill="url(#paint18_linear_3_241)"/>
<path d="M117.346 128.147H119.779V127.498H117.346V126.664H119.889V125.923H116.35V129.907H120V129.259H117.346V128.147Z" fill="url(#paint19_linear_3_241)"/>
<defs>
<linearGradient id="paint0_linear_3_241" x1="2.32259" y1="0" x2="64.3687" y2="0" gradientUnits="userSpaceOnUse">
<stop/>
<stop offset="0.328"/>
<stop offset="0.524"/>
<stop offset="0.73"/>
<stop offset="1"/>
</linearGradient>
<linearGradient id="paint1_linear_3_241" x1="55.6313" y1="5.18887" x2="117.677" y2="5.18887" gradientUnits="userSpaceOnUse">
<stop/>
<stop offset="0.328"/>
<stop offset="0.524"/>
<stop offset="0.73"/>
<stop offset="1"/>
</linearGradient>
<linearGradient id="paint2_linear_3_241" x1="-18.0277" y1="121.939" x2="-18.0277" y2="104.426" gradientUnits="userSpaceOnUse">
<stop/>
<stop offset="0.328"/>
<stop offset="0.524"/>
<stop offset="0.73"/>
<stop offset="1"/>
</linearGradient>
<linearGradient id="paint3_linear_3_241" x1="0.442403" y1="121.939" x2="0.442403" y2="104.426" gradientUnits="userSpaceOnUse">
<stop/>
<stop offset="0.328"/>
<stop offset="0.524"/>
<stop offset="0.73"/>
<stop offset="1"/>
</linearGradient>
<linearGradient id="paint4_linear_3_241" x1="26.5438" y1="121.753" x2="26.5438" y2="104.519" gradientUnits="userSpaceOnUse">
<stop/>
<stop offset="0.328"/>
<stop offset="0.524"/>
<stop offset="0.73"/>
<stop offset="1"/>
</linearGradient>
<linearGradient id="paint5_linear_3_241" x1="40.3687" y1="121.753" x2="40.3687" y2="104.519" gradientUnits="userSpaceOnUse">
<stop/>
<stop offset="0.328"/>
<stop offset="0.524"/>
<stop offset="0.73"/>
<stop offset="1"/>
</linearGradient>
<linearGradient id="paint6_linear_3_241" x1="60.4977" y1="121.753" x2="60.4977" y2="104.519" gradientUnits="userSpaceOnUse">
<stop/>
<stop offset="0.328"/>
<stop offset="0.524"/>
<stop offset="0.73"/>
<stop offset="1"/>
</linearGradient>
<linearGradient id="paint7_linear_3_241" x1="76.0921" y1="121.753" x2="76.0921" y2="104.519" gradientUnits="userSpaceOnUse">
<stop/>
<stop offset="0.328"/>
<stop offset="0.524"/>
<stop offset="0.73"/>
<stop offset="1"/>
</linearGradient>
<linearGradient id="paint8_linear_3_241" x1="95.3364" y1="121.753" x2="95.3364" y2="104.519" gradientUnits="userSpaceOnUse">
<stop/>
<stop offset="0.328"/>
<stop offset="0.524"/>
<stop offset="0.73"/>
<stop offset="1"/>
</linearGradient>
<linearGradient id="paint9_linear_3_241" x1="-1.10599" y1="129.907" x2="-1.10599" y2="125.923" gradientUnits="userSpaceOnUse">
<stop/>
<stop offset="0.328"/>
<stop offset="0.524"/>
<stop offset="0.73"/>
<stop offset="1"/>
</linearGradient>
<linearGradient id="paint10_linear_3_241" x1="10.1751" y1="129.907" x2="10.1751" y2="125.923" gradientUnits="userSpaceOnUse">
<stop/>
<stop offset="0.328"/>
<stop offset="0.524"/>
<stop offset="0.73"/>
<stop offset="1"/>
</linearGradient>
<linearGradient id="paint11_linear_3_241" x1="20.9032" y1="130" x2="20.9032" y2="125.83" gradientUnits="userSpaceOnUse">
<stop/>
<stop offset="0.328"/>
<stop offset="0.524"/>
<stop offset="0.73"/>
<stop offset="1"/>
</linearGradient>
<linearGradient id="paint12_linear_3_241" x1="34.6175" y1="129.907" x2="34.6175" y2="125.923" gradientUnits="userSpaceOnUse">
<stop/>
<stop offset="0.328"/>
<stop offset="0.524"/>
<stop offset="0.73"/>
<stop offset="1"/>
</linearGradient>
<linearGradient id="paint13_linear_3_241" x1="35.2813" y1="129.907" x2="35.2813" y2="125.923" gradientUnits="userSpaceOnUse">
<stop/>
<stop offset="0.328"/>
<stop offset="0.524"/>
<stop offset="0.73"/>
<stop offset="1"/>
</linearGradient>
<linearGradient id="paint14_linear_3_241" x1="53.4193" y1="129.907" x2="53.4193" y2="125.923" gradientUnits="userSpaceOnUse">
<stop/>
<stop offset="0.328"/>
<stop offset="0.524"/>
<stop offset="0.73"/>
<stop offset="1"/>
</linearGradient>
<linearGradient id="paint15_linear_3_241" x1="64.1475" y1="129.907" x2="64.1475" y2="125.923" gradientUnits="userSpaceOnUse">
<stop/>
<stop offset="0.328"/>
<stop offset="0.524"/>
<stop offset="0.73"/>
<stop offset="1"/>
</linearGradient>
<linearGradient id="paint16_linear_3_241" x1="82.8387" y1="129.907" x2="82.8387" y2="125.923" gradientUnits="userSpaceOnUse">
<stop/>
<stop offset="0.328"/>
<stop offset="0.524"/>
<stop offset="0.73"/>
<stop offset="1"/>
</linearGradient>
<linearGradient id="paint17_linear_3_241" x1="93.5668" y1="129.907" x2="93.5668" y2="125.923" gradientUnits="userSpaceOnUse">
<stop/>
<stop offset="0.328"/>
<stop offset="0.524"/>
<stop offset="0.73"/>
<stop offset="1"/>
</linearGradient>
<linearGradient id="paint18_linear_3_241" x1="104.959" y1="129.907" x2="104.959" y2="125.923" gradientUnits="userSpaceOnUse">
<stop/>
<stop offset="0.328"/>
<stop offset="0.524"/>
<stop offset="0.73"/>
<stop offset="1"/>
</linearGradient>
<linearGradient id="paint19_linear_3_241" x1="115.023" y1="129.907" x2="115.023" y2="125.923" gradientUnits="userSpaceOnUse">
<stop/>
<stop offset="0.328"/>
<stop offset="0.524"/>
<stop offset="0.73"/>
<stop offset="1"/>
</linearGradient>
</defs>
</svg>
