<svg width="121" height="131" viewBox="0 0 121 131" fill="none" xmlns="http://www.w3.org/2000/svg">
<path d="M6.23705 120.385C7.66751 120.385 9.0185 119.808 9.97214 118.82L8.46221 117.256C7.82645 117.832 7.03175 118.162 6.23705 118.162C4.40923 118.162 2.8993 116.68 2.8993 114.786C2.8993 112.893 4.40923 111.328 6.23705 111.328C7.03175 111.328 7.82645 111.74 8.46221 112.316L9.97214 110.67C9.0185 109.682 7.66751 109.105 6.23705 109.105C3.21718 109.105 0.753601 111.658 0.753601 114.786C0.753601 117.915 3.21718 120.385 6.23705 120.385Z" fill="url(#paint0_linear_3_60)"/>
<path fill-rule="evenodd" clip-rule="evenodd" d="M24.3562 120.385C21.3364 120.385 18.9523 117.915 18.9523 114.786C18.9523 111.658 21.3364 109.105 24.3562 109.105C27.3761 109.105 29.8397 111.658 29.8397 114.786C29.8397 117.915 27.3761 120.385 24.3562 120.385ZM27.694 114.786C27.694 112.893 26.1841 111.328 24.3562 111.328C22.6079 111.328 21.098 112.893 21.098 114.786C21.098 116.68 22.6079 118.162 24.3562 118.162C26.1841 118.162 27.694 116.68 27.694 114.786Z" fill="url(#paint1_linear_3_60)"/>
<path d="M50.5814 120.385V109.105H48.2768L45.098 117.338L41.8397 109.105H39.5351V120.385H41.6808V114.786L43.9059 120.385H46.2106L48.4357 114.786V120.385H50.5814Z" fill="url(#paint2_linear_3_60)"/>
<path fill-rule="evenodd" clip-rule="evenodd" d="M62.4225 120.385H60.2768V109.105H63.2967C65.1245 109.105 66.5549 110.587 66.5549 112.481C66.5549 114.374 65.1245 115.856 63.2967 115.856H62.4225V120.385ZM62.4225 113.633H63.2967C63.9324 113.633 64.4092 113.139 64.4092 112.481C64.4092 111.905 63.9324 111.411 63.2967 111.411H62.4225V113.633Z" fill="url(#paint3_linear_3_60)"/>
<path fill-rule="evenodd" clip-rule="evenodd" d="M85.0715 120.385H82.6874L81.5748 117.256H78.237L77.1245 120.385H74.8198L78.7933 109.105H81.098L85.0715 120.385ZM80.8596 114.951L79.9059 112.399L79.0317 114.951H80.8596Z" fill="url(#paint4_linear_3_60)"/>
<path d="M103.509 120.385V109.105H101.363V116.68L96.992 109.105H94.3695V120.385H96.5946V112.893L100.966 120.385H103.509Z" fill="url(#paint5_linear_3_60)"/>
<path d="M115.35 109.105H112.886L115.747 115.033V120.385H117.893V115.033L120.754 109.105H118.29L116.86 112.234L115.35 109.105Z" fill="url(#paint6_linear_3_60)"/>
<path d="M2.02512 130.1H2.74036V125.901H4.01188V125.242H0.753601V125.901H2.02512V130.1Z" fill="url(#paint7_linear_3_60)"/>
<path fill-rule="evenodd" clip-rule="evenodd" d="M9.65426 125.242L11.3231 130.1H10.6079L10.29 129.029H8.54168L8.14433 130.1H7.42909L9.09797 125.242H9.65426ZM10.0516 128.371L9.33638 126.23L8.70061 128.371H10.0516Z" fill="url(#paint8_linear_3_60)"/>
<path d="M16.4092 126.312C16.5152 126.203 16.6212 126.12 16.7271 126.065C16.8331 126.011 16.9655 125.983 17.1245 125.983C17.3364 125.983 17.5218 126.038 17.6808 126.148C17.8397 126.312 17.9457 126.477 17.9986 126.642H18.7933C18.6874 126.258 18.502 125.928 18.2371 125.654C17.9722 125.379 17.6013 125.242 17.1245 125.242C16.7536 125.242 16.4622 125.324 16.2503 125.489C15.9854 125.654 15.8 125.846 15.694 126.065C15.641 126.175 15.588 126.34 15.5351 126.559C15.4821 126.724 15.4556 127.081 15.4556 127.63C15.4556 128.179 15.4821 128.563 15.5351 128.782C15.5351 128.892 15.5616 128.974 15.6145 129.029C15.6145 129.084 15.641 129.167 15.694 129.276C15.8 129.496 15.9854 129.688 16.2503 129.853C16.4622 130.017 16.7536 130.1 17.1245 130.1C17.6013 130.1 17.9986 129.935 18.3165 129.606C18.6344 129.276 18.7933 128.865 18.7933 128.371V127.465H17.1245V128.124H18.0781V128.371C18.0781 128.645 17.9986 128.892 17.8397 129.112C17.6278 129.276 17.3894 129.359 17.1245 129.359C16.9655 129.359 16.8331 129.331 16.7271 129.276C16.6212 129.221 16.5152 129.139 16.4092 129.029C16.3033 128.92 16.2503 128.782 16.2503 128.618C16.1973 128.453 16.1708 128.124 16.1708 127.63C16.1708 127.191 16.1973 126.889 16.2503 126.724C16.2503 126.559 16.3033 126.422 16.4092 126.312Z" fill="url(#paint9_linear_3_60)"/>
<path d="M23.4821 125.242V130.1H26.502V129.359H24.1973V125.242H23.4821Z" fill="url(#paint10_linear_3_60)"/>
<path d="M31.0317 125.242V130.1H31.747V125.242H31.0317Z" fill="url(#paint11_linear_3_60)"/>
<path d="M39.3761 128.7L37.3099 125.242H36.5947V130.1H37.3099V126.642L39.4556 130.1H40.0914V125.242H39.3761V128.7Z" fill="url(#paint12_linear_3_60)"/>
<path d="M47.9589 125.983V125.242H44.939V130.1H47.9589V129.359H45.6543V127.959H47.5615V127.3H45.6543V125.983H47.9589Z" fill="url(#paint13_linear_3_60)"/>
<path d="M58.5284 125.489C58.2635 125.654 58.0781 125.846 57.9722 126.065C57.9192 126.175 57.8662 126.34 57.8132 126.559C57.8132 126.724 57.8132 127.081 57.8132 127.63C57.8132 128.179 57.8132 128.563 57.8132 128.782C57.8662 128.892 57.8927 128.974 57.8927 129.029C57.9457 129.084 57.9722 129.167 57.9722 129.276C58.0781 129.496 58.2635 129.688 58.5284 129.853C58.7933 130.017 59.1112 130.1 59.4821 130.1C59.9589 130.1 60.3298 129.935 60.5947 129.606C60.9125 129.276 61.0715 128.865 61.0715 128.371V127.465H59.4821V128.124H60.4357V128.371C60.3827 128.645 60.2768 128.892 60.1178 129.112C59.9589 129.276 59.747 129.359 59.4821 129.359C59.2702 129.359 59.1112 129.331 59.0053 129.276C58.8993 129.221 58.8198 129.139 58.7669 129.029C58.6609 128.92 58.5814 128.782 58.5284 128.618C58.5284 128.453 58.5284 128.124 58.5284 127.63C58.5284 127.191 58.5284 126.889 58.5284 126.724C58.5814 126.559 58.6609 126.422 58.7669 126.312C58.8198 126.203 58.8993 126.12 59.0053 126.065C59.1112 126.011 59.2702 125.983 59.4821 125.983C59.694 125.983 59.8794 126.038 60.0384 126.148C60.1973 126.312 60.3033 126.477 60.3563 126.642H61.0715C61.0185 126.258 60.8331 125.928 60.5152 125.654C60.2503 125.379 59.9059 125.242 59.4821 125.242C59.1112 125.242 58.7933 125.324 58.5284 125.489Z" fill="url(#paint14_linear_3_60)"/>
<path fill-rule="evenodd" clip-rule="evenodd" d="M68.2238 129.853C68.0119 130.017 67.7205 130.1 67.3496 130.1C66.9788 130.1 66.6609 130.017 66.396 129.853C66.1311 129.688 65.9457 129.496 65.8397 129.276C65.8397 129.167 65.8132 129.084 65.7602 129.029C65.7602 128.974 65.7337 128.892 65.6808 128.782C65.6808 128.563 65.6808 128.179 65.6808 127.63C65.6808 127.081 65.6808 126.724 65.6808 126.559C65.7337 126.34 65.7867 126.175 65.8397 126.065C65.9457 125.846 66.1311 125.654 66.396 125.489C66.6609 125.324 66.9788 125.242 67.3496 125.242C67.7205 125.242 68.0119 125.324 68.2238 125.489C68.4887 125.654 68.6741 125.846 68.7801 126.065C68.8331 126.175 68.886 126.34 68.939 126.559C68.939 126.724 68.939 127.081 68.939 127.63C68.939 128.179 68.939 128.563 68.939 128.782C68.886 129.002 68.8331 129.167 68.7801 129.276C68.6741 129.496 68.4887 129.688 68.2238 129.853ZM68.2238 128.618C68.2768 128.453 68.3033 128.124 68.3033 127.63C68.3033 127.191 68.2768 126.889 68.2238 126.724C68.1708 126.559 68.1178 126.422 68.0649 126.312C67.9589 126.203 67.8529 126.12 67.747 126.065C67.641 126.011 67.5086 125.983 67.3496 125.983C67.1907 125.983 67.0317 126.011 66.8728 126.065C66.7668 126.12 66.6874 126.203 66.6344 126.312C66.5284 126.422 66.449 126.559 66.396 126.724C66.396 126.889 66.396 127.191 66.396 127.63C66.396 128.124 66.396 128.453 66.396 128.618C66.449 128.782 66.5284 128.92 66.6344 129.029C66.6874 129.139 66.7668 129.221 66.8728 129.276C67.0317 129.331 67.1907 129.359 67.3496 129.359C67.5086 129.359 67.641 129.331 67.747 129.276C67.8529 129.221 67.9589 129.139 68.0649 129.029C68.1178 128.92 68.1708 128.782 68.2238 128.618Z" fill="url(#paint15_linear_3_60)"/>
<path d="M76.6477 125.983V125.242H73.7072V130.1H76.6477V129.359H74.4225V127.959H76.3298V127.3H74.4225V125.983H76.6477Z" fill="url(#paint16_linear_3_60)"/>
<path d="M82.6079 129.359C82.0781 129.359 81.6278 129.194 81.2569 128.865L80.7801 129.441C81.3099 129.88 81.9192 130.1 82.6079 130.1C83.6675 130.1 84.1973 129.633 84.1973 128.7C84.1973 128.371 84.0913 128.069 83.8794 127.794C83.6675 127.575 83.3496 127.41 82.9258 127.3C82.7139 127.3 82.5549 127.3 82.449 127.3C82.1841 127.245 81.9986 127.163 81.8927 127.053C81.7867 126.944 81.7337 126.806 81.7337 126.642C81.7337 126.422 81.8132 126.258 81.9721 126.148C82.1311 126.038 82.3165 125.983 82.5284 125.983C82.9523 125.983 83.3496 126.093 83.7205 126.312L84.0384 125.736C83.6145 125.407 83.1377 125.242 82.6079 125.242C82.0781 125.242 81.7072 125.379 81.4953 125.654C81.1774 125.873 81.0185 126.203 81.0185 126.642C81.0185 126.971 81.151 127.273 81.4159 127.547C81.5748 127.767 81.8662 127.904 82.29 127.959C82.5019 128.014 82.7139 128.041 82.9258 128.041C83.2966 128.151 83.4821 128.371 83.4821 128.7C83.4821 129.139 83.1907 129.359 82.6079 129.359Z" fill="url(#paint17_linear_3_60)"/>
<path d="M97.5483 130.1V125.242H96.8331V127.3H95.0053V125.242H94.29V130.1H95.0053V127.959H96.8331V130.1H97.5483Z" fill="url(#paint18_linear_3_60)"/>
<path d="M105.416 125.983V125.242H102.396V130.1H105.416V129.359H103.111V127.959H105.098V127.3H103.111V125.983H105.416Z" fill="url(#paint19_linear_3_60)"/>
<path fill-rule="evenodd" clip-rule="evenodd" d="M110.661 130.1H109.946V125.242H111.773C112.144 125.242 112.462 125.352 112.727 125.571C112.992 125.846 113.151 126.203 113.204 126.642C113.151 127.245 112.833 127.685 112.25 127.959L113.363 130.1H112.489L111.535 128.041H110.661V130.1ZM110.661 127.383H111.694C111.959 127.383 112.171 127.3 112.33 127.136C112.436 127.026 112.489 126.861 112.489 126.642C112.489 126.367 112.409 126.175 112.25 126.065C112.144 125.956 111.985 125.901 111.773 125.901H110.661V127.383Z" fill="url(#paint20_linear_3_60)"/>
<path d="M120.754 125.983V125.242H117.813V130.1H120.754V129.359H118.528V127.959H120.436V127.3H118.528V125.983H120.754Z" fill="url(#paint21_linear_3_60)"/>
<path d="M16.0119 39.8653V39.9476C15.9589 40.0025 15.9324 40.0848 15.9324 40.1946C15.9324 40.2495 15.9324 40.3044 15.9324 40.3593V40.5239H15.8529V40.6063V40.6886C15.8529 40.8532 15.8265 41.0179 15.7735 41.1826C15.7735 41.2923 15.7735 41.4296 15.7735 41.5942C15.7735 41.6491 15.7735 41.704 15.7735 41.7589C15.7205 41.9235 15.694 42.0882 15.694 42.2529C15.694 42.4175 15.694 42.5547 15.694 42.6645L15.6145 42.8292C15.6145 42.8841 15.6145 42.939 15.6145 42.9938C15.6145 43.0487 15.6145 43.1036 15.6145 43.1585C15.6145 43.1585 15.6145 43.1859 15.6145 43.2408C15.6145 43.2408 15.6145 43.2683 15.6145 43.3232C15.6145 43.3781 15.6145 43.4329 15.6145 43.4878C15.6145 43.4878 15.6145 43.5153 15.6145 43.5702C15.5616 43.7348 15.5351 43.9269 15.5351 44.1465C15.5351 44.2014 15.5351 44.2837 15.5351 44.3935C15.5351 44.5032 15.5351 44.5856 15.5351 44.6405V44.7228C15.5351 44.7777 15.5351 44.8051 15.5351 44.8051V44.8874C15.5351 44.9972 15.5351 45.107 15.5351 45.2168C15.5351 45.2168 15.5086 45.2442 15.4556 45.2991C15.4556 45.5186 15.4556 45.7108 15.4556 45.8754C15.4556 45.8754 15.4556 45.9029 15.4556 45.9577V46.0401C15.4556 46.2047 15.4556 46.342 15.4556 46.4517V46.5341V46.6164V46.781C15.4556 46.8359 15.4556 46.8634 15.4556 46.8634C15.4556 46.9183 15.4556 46.9732 15.4556 47.028C15.4556 47.028 15.4556 47.0555 15.4556 47.1104C15.4556 47.1653 15.4556 47.1927 15.4556 47.1927V47.3574V47.522C15.6145 56.4137 19.0318 64.8115 25.151 71.0686C31.3496 77.3257 39.4556 80.7836 48.1178 80.7836C49.4953 80.7836 50.8463 80.7013 52.1708 80.5366C52.8066 80.4817 53.4159 80.3994 53.9986 80.2896C49.5483 77.4904 45.6543 73.7032 42.6344 69.175C41.5218 67.5832 40.5417 65.8818 39.694 64.0705C39.5351 63.6863 39.3761 63.3021 39.2172 62.9178C39.1642 62.863 39.1377 62.8081 39.1377 62.7532C36.992 57.8133 35.8794 52.4619 35.8794 47.028C35.8794 38.9596 38.2635 31.3029 42.6344 24.7988C43.641 23.2619 44.7536 21.8349 45.9722 20.5176C49.7867 16.2364 54.5549 12.8609 59.8794 10.7203C61.5218 10.0616 63.1642 9.54018 64.8066 9.15597C67.6145 8.49733 70.4755 8.168 73.3894 8.168C80.2238 8.168 86.7404 9.97928 92.4622 13.5195C92.4092 13.4646 92.3563 13.4097 92.3033 13.3548C92.2503 13.2999 92.1973 13.2176 92.1443 13.1078C92.0914 13.1078 92.0649 13.0804 92.0649 13.0255H91.9854C91.9324 12.9706 91.8794 12.9157 91.8265 12.8608C91.7735 12.7511 91.694 12.6687 91.588 12.6139C91.588 12.6139 91.5616 12.5864 91.5086 12.5315C91.4556 12.4766 91.3761 12.4218 91.2702 12.3669V12.2845L91.1907 12.2022C91.1377 12.2022 91.1112 12.2022 91.1112 12.2022C91.0053 12.0924 90.8993 11.9827 90.7933 11.8729C90.6344 11.7631 90.502 11.6533 90.396 11.5436C90.343 11.4887 90.29 11.4338 90.2371 11.3789C90.1841 11.324 90.1046 11.2417 89.9986 11.1319L89.8397 11.0496L89.7602 10.9672V10.8849H89.6808L89.6013 10.8026C89.4953 10.7477 89.3894 10.6654 89.2834 10.5556C89.1775 10.5007 89.098 10.4184 89.045 10.3086C88.7801 10.0891 88.5152 9.89695 88.2503 9.73229C88.1973 9.6774 88.1178 9.62251 88.0119 9.56763L87.9324 9.4853V9.40296C87.9324 9.40296 87.9059 9.40296 87.8529 9.40296L87.694 9.2383H87.6145L87.4556 9.07364C87.4556 9.07364 87.4291 9.0462 87.3761 8.99131C87.3232 8.99131 87.2967 8.96387 87.2967 8.90898H87.2172C87.1112 8.85409 87.0318 8.79921 86.9788 8.74432C86.9258 8.68943 86.8993 8.66199 86.8993 8.66199H86.8198C86.6609 8.49733 86.4755 8.36011 86.2635 8.25034C86.2106 8.19545 86.1311 8.11312 86.0251 8.00334C86.0251 8.00334 85.9986 8.00334 85.9457 8.00334C85.8397 7.89357 85.7073 7.81124 85.5483 7.75635C85.5483 7.75635 85.5483 7.72891 85.5483 7.67402C85.4953 7.67402 85.4688 7.67402 85.4688 7.67402C85.3629 7.56425 85.2569 7.48192 85.151 7.42703C84.992 7.31726 84.8596 7.23493 84.7536 7.18004H84.6741C84.5152 7.07026 84.3827 6.96049 84.2768 6.85071L84.0384 6.68606C83.9854 6.68606 83.9324 6.68606 83.8794 6.68606C83.8794 6.63117 83.853 6.60373 83.8 6.60373C83.747 6.54884 83.7205 6.52139 83.7205 6.52139C83.6145 6.4665 83.5086 6.41162 83.4026 6.35673L83.3231 6.2744C83.2702 6.2744 83.2172 6.24696 83.1642 6.19207C83.0583 6.13719 82.9788 6.0823 82.9258 6.02741C82.9258 6.02741 82.8993 6.02741 82.8463 6.02741C82.2106 5.6432 81.5748 5.28644 80.939 4.95712C80.8861 4.95712 80.8596 4.95712 80.8596 4.95712C80.7006 4.84734 80.5417 4.76501 80.3828 4.71012L79.9854 4.54546C79.9854 4.49058 79.9854 4.46313 79.9854 4.46313H79.9059C79.4821 4.24358 79.0583 4.05148 78.6344 3.88682C78.5285 3.83193 78.4225 3.77704 78.3165 3.72216H78.2371L78.0781 3.63982C78.0251 3.58493 77.9722 3.55749 77.9192 3.55749C77.8662 3.55749 77.8132 3.53005 77.7602 3.47516C77.3629 3.3105 76.9655 3.14584 76.6477 3.06351L76.4887 2.98118H76.4092L76.2503 2.89885C75.6675 2.6793 75.0847 2.45975 74.502 2.2402C74.396 2.2402 74.29 2.21276 74.1841 2.15787C74.0781 2.10299 73.9457 2.07554 73.7867 2.07554C73.7337 2.02066 73.6808 1.99321 73.6278 1.99321C73.3629 1.93832 73.1245 1.856 72.9125 1.74622H72.8331C72.8331 1.74622 72.8066 1.74622 72.7536 1.74622C72.7006 1.74622 72.6477 1.71878 72.5947 1.66389H72.5152C72.0384 1.55412 71.5616 1.44434 71.0847 1.33457C70.8198 1.22479 70.5284 1.14246 70.2106 1.08757C69.7337 0.9778 69.2569 0.895473 68.7801 0.840586C68.6212 0.785699 68.4357 0.730808 68.2238 0.675921C68.0119 0.675921 67.8265 0.648479 67.6675 0.593592C67.5616 0.593592 67.4821 0.593592 67.4291 0.593592C67.3231 0.538705 67.2172 0.511262 67.1112 0.511262C66.5814 0.456375 66.0516 0.401484 65.5218 0.346597C64.5152 0.236823 63.5086 0.154496 62.502 0.0996094C61.9192 0.0996094 61.3364 0.0996094 60.7536 0.0996094C59.8 0.0996094 58.8463 0.127052 57.8927 0.181939C57.7867 0.181939 57.6808 0.181939 57.5748 0.181939C56.5152 0.236826 55.4556 0.346601 54.396 0.511262C54.2371 0.566149 54.0516 0.593592 53.8397 0.593592L16.0119 39.7829V39.8653Z" fill="url(#paint22_linear_3_60)"/>
<path d="M105.575 54.1085V54.0261C105.575 53.9712 105.575 53.8889 105.575 53.7792C105.575 53.6694 105.601 53.5596 105.654 53.4498V53.3675C105.654 53.3675 105.654 53.34 105.654 53.2852V53.0382L105.734 52.7912C105.734 52.6265 105.734 52.4344 105.734 52.2149C105.787 52.0502 105.813 51.8855 105.813 51.7209C105.813 51.5562 105.84 51.419 105.893 51.3092V51.1446C105.893 51.0897 105.893 51.0073 105.893 50.8976V50.8152C105.893 50.7055 105.893 50.5957 105.893 50.4859V50.4036C105.946 50.2389 105.972 50.0743 105.972 49.9096V49.8273C105.972 49.6626 105.972 49.498 105.972 49.3333V49.251V49.1686V49.0863C106.025 48.9765 106.052 48.8393 106.052 48.6747C106.052 48.4551 106.052 48.263 106.052 48.0983V48.016V47.9337C106.052 47.8239 106.052 47.6867 106.052 47.522V47.3574C106.052 47.2476 106.052 47.1378 106.052 47.028C106.052 46.8634 106.052 46.7262 106.052 46.6164V46.4517C105.893 37.56 102.475 29.1623 96.3562 22.9052C90.1576 16.6481 82.0516 13.1902 73.3894 13.1902C71.4291 13.1902 69.4688 13.3823 67.5086 13.7665C71.9589 16.5657 75.8529 20.2706 78.8728 24.7988C83.3231 31.3029 85.6278 38.9596 85.6278 47.028C85.6278 55.0141 83.3231 62.6709 78.8728 69.175C74.5814 75.5968 68.6212 80.4543 61.6278 83.2535C57.3364 84.9824 52.8066 85.8881 48.1178 85.8881C41.2834 85.8881 34.7669 83.9945 29.045 80.4543V80.5366C29.098 80.5366 29.1245 80.564 29.1245 80.6189L29.2834 80.7012C29.3364 80.7561 29.3894 80.8385 29.4423 80.9482H29.5218C29.6278 81.058 29.7602 81.1952 29.9192 81.3599C30.0251 81.4697 30.1311 81.5794 30.2371 81.6892C30.396 81.8539 30.5549 81.9911 30.7139 82.1009H30.7933V82.1832C30.8993 82.2381 31.0053 82.3204 31.1112 82.4302L31.1907 82.5125L31.5086 82.8418H31.588V82.9242C31.694 82.9791 31.7735 83.0339 31.8265 83.0888L31.9059 83.1712C32.0119 83.2261 32.1178 83.3084 32.2238 83.4182C32.3298 83.473 32.4092 83.5279 32.4622 83.5828V83.6651C32.7271 83.8847 32.992 84.0768 33.2569 84.2415C33.3099 84.2964 33.3629 84.3512 33.4159 84.4061C33.4688 84.461 33.5218 84.5159 33.5748 84.5708C33.6278 84.5708 33.6543 84.5982 33.6543 84.6531H33.7337C33.8397 84.7629 33.9457 84.8452 34.0516 84.9001L34.1311 84.9824C34.1841 84.9824 34.2371 85.0099 34.29 85.0648L34.3695 85.1471C34.4225 85.202 34.502 85.2569 34.6079 85.3118H34.6874C34.8463 85.4764 35.0318 85.6136 35.2437 85.7234V85.8057C35.3496 85.8606 35.4291 85.9155 35.4821 85.9704H35.5616L35.8 86.1351L36.0384 86.2997C36.1443 86.3546 36.2503 86.4369 36.3563 86.5467C36.4622 86.6016 36.5682 86.6839 36.6741 86.7937H36.992L37.4688 87.2877C37.5748 87.3426 37.6543 87.37 37.7073 87.37C37.8662 87.4798 38.0251 87.5896 38.1841 87.6993H38.2635C38.3695 87.8091 38.4755 87.8915 38.5814 87.9463C39.2702 88.3306 39.9589 88.6873 40.6477 89.0166C40.8066 89.1264 40.9655 89.2087 41.1245 89.2636C41.2834 89.3734 41.4424 89.4557 41.6013 89.5106C42.0251 89.7302 42.449 89.9223 42.8728 90.0869C42.9788 90.1418 43.0847 90.1967 43.1907 90.2516C43.2437 90.2516 43.2702 90.279 43.2702 90.3339C43.4291 90.3888 43.588 90.4437 43.747 90.4986C44.0649 90.6632 44.4357 90.8005 44.8596 90.9102C45.0185 90.9651 45.151 91.02 45.2569 91.0749C45.8397 91.2944 46.4225 91.514 47.0053 91.7335C47.1112 91.7335 47.2172 91.761 47.3231 91.8159H47.4026C47.5616 91.8708 47.7205 91.9257 47.8794 91.9805L48.0384 92.0629C48.2503 92.1178 48.4357 92.1726 48.5947 92.2275C48.7536 92.2275 48.8596 92.255 48.9125 92.3099H48.992C50.2106 92.6392 51.4556 92.9411 52.7271 93.2155C52.8861 93.2155 53.0715 93.2429 53.2834 93.2978C53.4953 93.2978 53.6808 93.3253 53.8397 93.3802C54.0516 93.3802 54.2371 93.4076 54.396 93.4625C56.5417 93.7918 58.6079 93.8741 60.7536 93.8741C62.8993 93.8741 65.045 93.7918 67.1112 93.4625C67.3231 93.4076 67.5086 93.3802 67.6675 93.3802L105.495 54.1908C105.495 54.1359 105.522 54.1085 105.575 54.1085Z" fill="url(#paint23_linear_3_60)"/>
<defs>
<linearGradient id="paint0_linear_3_60" x1="0.753601" y1="109.105" x2="9.97214" y2="109.105" gradientUnits="userSpaceOnUse">
<stop/>
<stop offset="0.328"/>
<stop offset="0.524"/>
<stop offset="0.73"/>
<stop offset="1"/>
</linearGradient>
<linearGradient id="paint1_linear_3_60" x1="18.9523" y1="109.105" x2="29.8397" y2="109.105" gradientUnits="userSpaceOnUse">
<stop/>
<stop offset="0.328"/>
<stop offset="0.524"/>
<stop offset="0.73"/>
<stop offset="1"/>
</linearGradient>
<linearGradient id="paint2_linear_3_60" x1="39.5351" y1="109.105" x2="50.5814" y2="109.105" gradientUnits="userSpaceOnUse">
<stop/>
<stop offset="0.328"/>
<stop offset="0.524"/>
<stop offset="0.73"/>
<stop offset="1"/>
</linearGradient>
<linearGradient id="paint3_linear_3_60" x1="60.2768" y1="109.105" x2="66.5549" y2="109.105" gradientUnits="userSpaceOnUse">
<stop/>
<stop offset="0.328"/>
<stop offset="0.524"/>
<stop offset="0.73"/>
<stop offset="1"/>
</linearGradient>
<linearGradient id="paint4_linear_3_60" x1="74.8198" y1="109.105" x2="85.0715" y2="109.105" gradientUnits="userSpaceOnUse">
<stop/>
<stop offset="0.328"/>
<stop offset="0.524"/>
<stop offset="0.73"/>
<stop offset="1"/>
</linearGradient>
<linearGradient id="paint5_linear_3_60" x1="94.3695" y1="109.105" x2="103.509" y2="109.105" gradientUnits="userSpaceOnUse">
<stop/>
<stop offset="0.328"/>
<stop offset="0.524"/>
<stop offset="0.73"/>
<stop offset="1"/>
</linearGradient>
<linearGradient id="paint6_linear_3_60" x1="112.886" y1="109.105" x2="120.754" y2="109.105" gradientUnits="userSpaceOnUse">
<stop/>
<stop offset="0.328"/>
<stop offset="0.524"/>
<stop offset="0.73"/>
<stop offset="1"/>
</linearGradient>
<linearGradient id="paint7_linear_3_60" x1="0.753601" y1="125.242" x2="4.01188" y2="125.242" gradientUnits="userSpaceOnUse">
<stop/>
<stop offset="0.328"/>
<stop offset="0.524"/>
<stop offset="0.73"/>
<stop offset="1"/>
</linearGradient>
<linearGradient id="paint8_linear_3_60" x1="7.42909" y1="125.242" x2="11.3231" y2="125.242" gradientUnits="userSpaceOnUse">
<stop/>
<stop offset="0.328"/>
<stop offset="0.524"/>
<stop offset="0.73"/>
<stop offset="1"/>
</linearGradient>
<linearGradient id="paint9_linear_3_60" x1="15.4556" y1="125.242" x2="18.7933" y2="125.242" gradientUnits="userSpaceOnUse">
<stop/>
<stop offset="0.328"/>
<stop offset="0.524"/>
<stop offset="0.73"/>
<stop offset="1"/>
</linearGradient>
<linearGradient id="paint10_linear_3_60" x1="23.4821" y1="125.242" x2="26.502" y2="125.242" gradientUnits="userSpaceOnUse">
<stop/>
<stop offset="0.328"/>
<stop offset="0.524"/>
<stop offset="0.73"/>
<stop offset="1"/>
</linearGradient>
<linearGradient id="paint11_linear_3_60" x1="31.0317" y1="125.242" x2="31.747" y2="125.242" gradientUnits="userSpaceOnUse">
<stop/>
<stop offset="0.328"/>
<stop offset="0.524"/>
<stop offset="0.73"/>
<stop offset="1"/>
</linearGradient>
<linearGradient id="paint12_linear_3_60" x1="36.5947" y1="125.242" x2="40.0914" y2="125.242" gradientUnits="userSpaceOnUse">
<stop/>
<stop offset="0.328"/>
<stop offset="0.524"/>
<stop offset="0.73"/>
<stop offset="1"/>
</linearGradient>
<linearGradient id="paint13_linear_3_60" x1="44.939" y1="125.242" x2="47.9589" y2="125.242" gradientUnits="userSpaceOnUse">
<stop/>
<stop offset="0.328"/>
<stop offset="0.524"/>
<stop offset="0.73"/>
<stop offset="1"/>
</linearGradient>
<linearGradient id="paint14_linear_3_60" x1="57.8132" y1="125.242" x2="61.0715" y2="125.242" gradientUnits="userSpaceOnUse">
<stop/>
<stop offset="0.328"/>
<stop offset="0.524"/>
<stop offset="0.73"/>
<stop offset="1"/>
</linearGradient>
<linearGradient id="paint15_linear_3_60" x1="65.6808" y1="125.242" x2="68.939" y2="125.242" gradientUnits="userSpaceOnUse">
<stop/>
<stop offset="0.328"/>
<stop offset="0.524"/>
<stop offset="0.73"/>
<stop offset="1"/>
</linearGradient>
<linearGradient id="paint16_linear_3_60" x1="73.7072" y1="125.242" x2="76.6477" y2="125.242" gradientUnits="userSpaceOnUse">
<stop/>
<stop offset="0.328"/>
<stop offset="0.524"/>
<stop offset="0.73"/>
<stop offset="1"/>
</linearGradient>
<linearGradient id="paint17_linear_3_60" x1="80.7801" y1="125.242" x2="84.1973" y2="125.242" gradientUnits="userSpaceOnUse">
<stop/>
<stop offset="0.328"/>
<stop offset="0.524"/>
<stop offset="0.73"/>
<stop offset="1"/>
</linearGradient>
<linearGradient id="paint18_linear_3_60" x1="94.29" y1="125.242" x2="97.5483" y2="125.242" gradientUnits="userSpaceOnUse">
<stop/>
<stop offset="0.328"/>
<stop offset="0.524"/>
<stop offset="0.73"/>
<stop offset="1"/>
</linearGradient>
<linearGradient id="paint19_linear_3_60" x1="102.396" y1="125.242" x2="105.416" y2="125.242" gradientUnits="userSpaceOnUse">
<stop/>
<stop offset="0.328"/>
<stop offset="0.524"/>
<stop offset="0.73"/>
<stop offset="1"/>
</linearGradient>
<linearGradient id="paint20_linear_3_60" x1="109.946" y1="125.242" x2="113.363" y2="125.242" gradientUnits="userSpaceOnUse">
<stop/>
<stop offset="0.328"/>
<stop offset="0.524"/>
<stop offset="0.73"/>
<stop offset="1"/>
</linearGradient>
<linearGradient id="paint21_linear_3_60" x1="117.813" y1="125.242" x2="120.754" y2="125.242" gradientUnits="userSpaceOnUse">
<stop/>
<stop offset="0.328"/>
<stop offset="0.524"/>
<stop offset="0.73"/>
<stop offset="1"/>
</linearGradient>
<linearGradient id="paint22_linear_3_60" x1="15.4556" y1="0.0996094" x2="92.4622" y2="0.0996094" gradientUnits="userSpaceOnUse">
<stop/>
<stop offset="0.328"/>
<stop offset="0.524"/>
<stop offset="0.73"/>
<stop offset="1"/>
</linearGradient>
<linearGradient id="paint23_linear_3_60" x1="29.045" y1="13.1902" x2="106.052" y2="13.1902" gradientUnits="userSpaceOnUse">
<stop/>
<stop offset="0.328"/>
<stop offset="0.524"/>
<stop offset="0.73"/>
<stop offset="1"/>
</linearGradient>
</defs>
</svg>
