<svg width="121" height="131" viewBox="0 0 121 131" fill="none" xmlns="http://www.w3.org/2000/svg">
<path d="M36.2796 91.1362L33.3597 85.2309L10.1431 38.2379H4.30331L30.4398 91.1362H36.2796Z" fill="url(#paint0_linear_3_169)"/>
<path d="M59.7811 91.1362L56.79 85.2309L53.8701 79.3256L50.9502 73.3371L48.0303 67.4318L45.1104 61.5265L33.5734 38.2379H27.7336L42.1906 67.4318L45.1104 73.3371L48.0303 79.3256L50.9502 85.2309L53.8701 91.1362H59.7098H59.7811Z" fill="url(#paint1_linear_3_169)"/>
<path d="M68.5407 85.2309L65.6209 79.3256L62.701 73.3371L59.7811 67.4318L56.79 61.5265L53.8701 55.6211L50.9502 49.6327L45.3241 38.2379H39.4131L48.0304 55.6211L53.8701 67.4318L56.79 73.3371L59.7811 79.3256L62.701 85.2309L65.6209 91.1362H71.4606L68.5407 85.2309Z" fill="url(#paint2_linear_3_169)"/>
<path d="M81.1461 0.394012H75.3063L53.9413 43.6442L56.8612 49.6327L81.1461 0.394012Z" fill="url(#paint3_linear_3_169)"/>
<path d="M42.1906 91.1362H48.0303L45.1104 85.2309L42.1906 79.3256L39.2707 73.3371L21.8226 38.2379H15.9829L36.2796 79.3256L39.2707 85.2309L42.1906 91.1362Z" fill="url(#paint4_linear_3_169)"/>
<path d="M62.7009 61.4433L92.8968 0.394012H87.057L59.7811 55.538V55.6211L62.7009 61.4433Z" fill="url(#paint5_linear_3_169)"/>
<path d="M68.5407 73.3371L104.648 0.394012H98.7366L65.6209 67.3486L65.6921 67.4318L68.5407 73.3371Z" fill="url(#paint6_linear_3_169)"/>
<path d="M116.327 0.394012H110.487L71.5318 79.2424V79.3256L74.4517 85.1477L116.327 0.394012Z" fill="url(#paint7_linear_3_169)"/>
<path d="M8.00659 115.922C7.43685 116.504 6.65349 116.92 5.79889 116.92C4.01847 116.92 2.5229 115.256 2.5229 113.094C2.5229 111.015 4.01847 109.268 5.79889 109.268C6.65349 109.268 7.43685 109.684 8.00659 110.349L9.57336 108.519C8.57633 107.438 7.22322 106.69 5.79889 106.69C2.80779 106.69 0.315201 109.601 0.315201 113.094C0.315201 116.587 2.80779 119.498 5.79889 119.498C7.22322 119.498 8.57633 118.833 9.57336 117.752L8.00659 115.922Z" fill="url(#paint8_linear_3_169)"/>
<path fill-rule="evenodd" clip-rule="evenodd" d="M29.4428 113.094C29.4428 116.587 26.9502 119.498 23.9591 119.498C20.968 119.498 18.4754 116.587 18.4754 113.094C18.4754 109.601 20.968 106.69 23.9591 106.69C26.9502 106.69 29.4428 109.601 29.4428 113.094ZM27.2351 113.094C27.2351 111.015 25.7395 109.268 23.9591 109.268C22.1787 109.268 20.6831 111.015 20.6831 113.094C20.6831 115.256 22.1787 116.92 23.9591 116.92C25.7395 116.92 27.2351 115.256 27.2351 113.094Z" fill="url(#paint9_linear_3_169)"/>
<path d="M44.612 116.088L41.4072 106.69H39.057V119.498H41.2648V113.094L43.4725 119.498H45.8226L47.9591 113.094V119.498H50.1668V106.69H47.8167L44.612 116.088Z" fill="url(#paint10_linear_3_169)"/>
<path fill-rule="evenodd" clip-rule="evenodd" d="M66.1193 110.599C66.1193 112.678 64.695 114.425 62.9146 114.425H61.9888V119.498H59.7811V106.69H62.8434C64.695 106.69 66.1193 108.436 66.1193 110.599ZM63.9828 110.599C63.9828 109.85 63.4843 109.268 62.8434 109.268H61.9888V111.846H62.8434C63.4843 111.846 63.9828 111.264 63.9828 110.599Z" fill="url(#paint11_linear_3_169)"/>
<path fill-rule="evenodd" clip-rule="evenodd" d="M80.6475 106.69L84.5645 119.498H82.2143L81.1461 115.922H77.7989L76.6594 119.498H74.3805L78.2974 106.69H80.6475ZM80.3627 113.343L79.5081 110.516L78.5822 113.343H80.3627Z" fill="url(#paint12_linear_3_169)"/>
<path d="M103.01 106.69H100.873V115.256L96.4576 106.69H93.9651V119.498H96.1016V111.015L100.517 119.498H103.01V106.69Z" fill="url(#paint13_linear_3_169)"/>
<path d="M117.395 119.498V113.427L120.244 106.69H117.823L116.327 110.266L114.832 106.69H112.41L115.259 113.427V119.498H117.395Z" fill="url(#paint14_linear_3_169)"/>
<path d="M0.315201 125.653H1.59709V130.394H2.30926V125.653H3.59115V124.988H0.315201V125.653Z" fill="url(#paint15_linear_3_169)"/>
<path fill-rule="evenodd" clip-rule="evenodd" d="M9.28849 124.988L10.9265 130.394H10.2143L9.85822 129.146H8.0778L7.72172 130.394H7.00955L8.64757 124.988H9.28849ZM9.71582 128.398L9.00365 126.069L8.36269 128.398H9.71582Z" fill="url(#paint16_linear_3_169)"/>
<path d="M16.695 128.148H17.692V128.398C17.692 128.786 17.5971 129.063 17.4072 129.23C17.2173 129.451 16.9799 129.562 16.695 129.562C16.5526 129.562 16.4101 129.535 16.2677 129.479C16.1728 129.424 16.0778 129.34 15.9829 129.23C15.8879 129.063 15.8404 128.897 15.8404 128.731C15.793 128.564 15.7692 128.204 15.7692 127.649C15.7692 127.095 15.793 126.734 15.8404 126.568C15.8404 126.402 15.8879 126.263 15.9829 126.152C16.0778 126.041 16.1728 125.93 16.2677 125.819C16.4101 125.764 16.5526 125.736 16.695 125.736C16.9324 125.736 17.1223 125.819 17.2648 125.986C17.4072 126.097 17.5259 126.263 17.6208 126.485H18.333C18.2855 126.041 18.1194 125.681 17.8345 125.404C17.5496 125.071 17.1698 124.905 16.695 124.905C16.3627 124.905 16.0778 125.015 15.8404 125.237C15.5556 125.404 15.3657 125.625 15.2707 125.903C15.1758 126.014 15.1283 126.18 15.1283 126.402C15.0808 126.623 15.0571 127.039 15.0571 127.649C15.0571 128.259 15.0808 128.675 15.1283 128.897C15.1283 129.008 15.152 129.119 15.1995 129.23C15.1995 129.285 15.2232 129.34 15.2707 129.396C15.3657 129.673 15.5556 129.895 15.8404 130.061C16.0778 130.283 16.3627 130.394 16.695 130.394C17.1698 130.394 17.5734 130.2 17.9057 129.812C18.1906 129.479 18.333 129.036 18.333 128.481V127.4H16.695V128.148Z" fill="url(#paint17_linear_3_169)"/>
<path d="M23.8167 124.988H23.1045V130.394H26.0244V129.562H23.8167V124.988Z" fill="url(#paint18_linear_3_169)"/>
<path d="M30.5823 130.394H31.2944V124.988H30.5823V130.394Z" fill="url(#paint19_linear_3_169)"/>
<path d="M38.9146 128.814L36.8493 124.988H36.2084V130.394H36.8493V126.485H36.9205L38.9858 130.394H39.6268V124.988H38.9146V128.814Z" fill="url(#paint20_linear_3_169)"/>
<path d="M44.5407 130.394H47.4606V129.562H45.2529V127.982H47.1757V127.233H45.2529V125.736H47.4606V124.988H44.5407V130.394Z" fill="url(#paint21_linear_3_169)"/>
<path d="M58.9977 128.148H59.9235V128.398C59.9235 128.786 59.8523 129.063 59.7099 129.23C59.5199 129.451 59.2826 129.562 58.9977 129.562C58.8553 129.562 58.7128 129.535 58.5704 129.479C58.4754 129.424 58.3805 129.34 58.2855 129.23C58.1906 129.063 58.1194 128.897 58.0719 128.731C58.0719 128.564 58.0719 128.204 58.0719 127.649C58.0719 127.095 58.0719 126.734 58.0719 126.568C58.1194 126.402 58.1906 126.263 58.2855 126.152C58.3805 126.041 58.4754 125.93 58.5704 125.819C58.7128 125.764 58.8553 125.736 58.9977 125.736C59.2351 125.736 59.425 125.819 59.5675 125.986C59.7099 126.097 59.8048 126.263 59.8523 126.485H60.6357C60.5407 126.041 60.3508 125.681 60.0659 125.404C59.7811 125.071 59.425 124.905 58.9977 124.905C58.6179 124.905 58.3093 125.015 58.0719 125.237C57.8345 125.404 57.6683 125.625 57.5734 125.903C57.4784 126.014 57.4072 126.18 57.3597 126.402C57.3597 126.623 57.3597 127.039 57.3597 127.649C57.3597 128.259 57.3597 128.675 57.3597 128.897C57.4072 129.008 57.431 129.119 57.431 129.23C57.4784 129.285 57.5259 129.34 57.5734 129.396C57.6683 129.673 57.8345 129.895 58.0719 130.061C58.3093 130.283 58.6179 130.394 58.9977 130.394C59.4725 130.394 59.876 130.2 60.2084 129.812C60.4932 129.479 60.6357 129.036 60.6357 128.481V127.4H58.9977V128.148Z" fill="url(#paint22_linear_3_169)"/>
<path fill-rule="evenodd" clip-rule="evenodd" d="M68.4695 126.402C68.517 126.623 68.5407 127.039 68.5407 127.649C68.5407 128.259 68.517 128.675 68.4695 128.897C68.422 129.119 68.3746 129.285 68.3271 129.396C68.2321 129.673 68.0422 129.895 67.7574 130.061C67.52 130.283 67.2113 130.394 66.8315 130.394C66.4992 130.394 66.2143 130.283 65.9769 130.061C65.6921 129.895 65.5021 129.673 65.4072 129.396C65.3597 129.34 65.336 129.285 65.336 129.23C65.2885 129.119 65.2648 129.008 65.2648 128.897C65.2173 128.675 65.1935 128.259 65.1935 127.649C65.1935 127.039 65.2173 126.623 65.2648 126.402C65.3122 126.18 65.3597 126.014 65.4072 125.903C65.5021 125.625 65.6921 125.404 65.9769 125.237C66.2143 125.015 66.4992 124.905 66.8315 124.905C67.2113 124.905 67.52 125.015 67.7574 125.237C68.0422 125.404 68.2321 125.625 68.3271 125.903C68.3746 126.014 68.422 126.18 68.4695 126.402ZM67.8286 127.649C67.8286 127.095 67.8048 126.734 67.7574 126.568C67.7099 126.402 67.6624 126.263 67.6149 126.152C67.52 126.041 67.425 125.93 67.33 125.819C67.1876 125.764 67.0214 125.736 66.8315 125.736C66.6891 125.736 66.5704 125.764 66.4754 125.819C66.333 125.93 66.2143 126.041 66.1193 126.152C66.0719 126.263 66.0244 126.402 65.9769 126.568C65.9295 126.734 65.9057 127.095 65.9057 127.649C65.9057 128.204 65.9295 128.564 65.9769 128.731C66.0244 128.897 66.0719 129.063 66.1193 129.23C66.2143 129.34 66.333 129.424 66.4754 129.479C66.5704 129.535 66.6891 129.562 66.8315 129.562C67.0214 129.562 67.1876 129.535 67.33 129.479C67.425 129.424 67.52 129.34 67.6149 129.23C67.6624 129.063 67.7099 128.897 67.7574 128.731C67.8048 128.564 67.8286 128.204 67.8286 127.649Z" fill="url(#paint23_linear_3_169)"/>
<path d="M73.241 130.394H76.1609V129.562H73.9532V127.982H75.876V127.233H73.9532V125.736H76.1609V124.988H73.241V130.394Z" fill="url(#paint24_linear_3_169)"/>
<path d="M82.4991 127.317C82.2618 127.261 82.0718 127.233 81.9294 127.233C81.7395 127.178 81.5733 127.067 81.4309 126.901C81.3359 126.79 81.2885 126.651 81.2885 126.485C81.2885 126.263 81.3597 126.069 81.5021 125.903C81.6446 125.792 81.8345 125.736 82.0719 125.736C82.4992 125.736 82.879 125.875 83.2113 126.152L83.6386 125.487C83.2113 125.099 82.6891 124.905 82.0719 124.905C81.5971 124.905 81.241 125.043 81.0036 125.32C80.7187 125.653 80.5763 126.041 80.5763 126.485C80.5763 126.873 80.695 127.206 80.9324 127.483C81.1223 127.76 81.4309 127.927 81.8582 127.982C82.0481 128.037 82.238 128.065 82.4279 128.065C82.8552 128.176 83.0689 128.426 83.0689 128.814C83.0214 129.313 82.7128 129.562 82.1431 129.562C81.6208 129.562 81.1698 129.396 80.79 129.063L80.3626 129.645C80.8374 130.144 81.4309 130.394 82.1431 130.394C83.1876 130.394 83.7098 129.867 83.7098 128.814C83.7098 128.426 83.6149 128.093 83.425 127.816C83.2351 127.538 82.9264 127.372 82.4991 127.317Z" fill="url(#paint25_linear_3_169)"/>
<path d="M96.3864 127.233H94.5348V124.988H93.8226V130.394H94.5348V127.982H96.3864V130.394H97.0986V124.988H96.3864V127.233Z" fill="url(#paint26_linear_3_169)"/>
<path d="M101.941 130.394H104.932V129.562H102.653V127.982H104.576V127.233H102.653V125.736H104.932V124.988H101.941V130.394Z" fill="url(#paint27_linear_3_169)"/>
<path fill-rule="evenodd" clip-rule="evenodd" d="M111.769 127.982L112.837 130.394H112.054L111.057 128.065H110.202V130.394H109.49V124.988H111.271C111.651 124.988 111.959 125.099 112.196 125.32C112.529 125.598 112.695 125.986 112.695 126.485C112.695 127.206 112.386 127.705 111.769 127.982ZM111.271 127.317C111.508 127.317 111.698 127.233 111.84 127.067C111.983 126.901 112.054 126.707 112.054 126.485C112.007 126.208 111.912 125.986 111.769 125.819C111.674 125.709 111.508 125.653 111.271 125.653H110.202V127.317H111.271Z" fill="url(#paint28_linear_3_169)"/>
<path d="M117.324 130.394H120.315V129.562H118.036V127.982H119.959V127.233H118.036V125.736H120.315V124.988H117.324V130.394Z" fill="url(#paint29_linear_3_169)"/>
<defs>
<linearGradient id="paint0_linear_3_169" x1="4.30331" y1="38.2379" x2="36.2796" y2="38.2379" gradientUnits="userSpaceOnUse">
<stop/>
<stop offset="0.328"/>
<stop offset="0.524"/>
<stop offset="0.73"/>
<stop offset="1"/>
</linearGradient>
<linearGradient id="paint1_linear_3_169" x1="27.7336" y1="38.2379" x2="59.7811" y2="38.2379" gradientUnits="userSpaceOnUse">
<stop/>
<stop offset="0.328"/>
<stop offset="0.524"/>
<stop offset="0.73"/>
<stop offset="1"/>
</linearGradient>
<linearGradient id="paint2_linear_3_169" x1="39.4131" y1="38.2379" x2="71.4606" y2="38.2379" gradientUnits="userSpaceOnUse">
<stop/>
<stop offset="0.328"/>
<stop offset="0.524"/>
<stop offset="0.73"/>
<stop offset="1"/>
</linearGradient>
<linearGradient id="paint3_linear_3_169" x1="53.9413" y1="0.394012" x2="81.1461" y2="0.394012" gradientUnits="userSpaceOnUse">
<stop/>
<stop offset="0.328"/>
<stop offset="0.524"/>
<stop offset="0.73"/>
<stop offset="1"/>
</linearGradient>
<linearGradient id="paint4_linear_3_169" x1="15.9829" y1="38.2379" x2="48.0303" y2="38.2379" gradientUnits="userSpaceOnUse">
<stop/>
<stop offset="0.328"/>
<stop offset="0.524"/>
<stop offset="0.73"/>
<stop offset="1"/>
</linearGradient>
<linearGradient id="paint5_linear_3_169" x1="59.7811" y1="0.394012" x2="92.8968" y2="0.394012" gradientUnits="userSpaceOnUse">
<stop/>
<stop offset="0.328"/>
<stop offset="0.524"/>
<stop offset="0.73"/>
<stop offset="1"/>
</linearGradient>
<linearGradient id="paint6_linear_3_169" x1="65.6209" y1="0.394012" x2="104.648" y2="0.394012" gradientUnits="userSpaceOnUse">
<stop/>
<stop offset="0.328"/>
<stop offset="0.524"/>
<stop offset="0.73"/>
<stop offset="1"/>
</linearGradient>
<linearGradient id="paint7_linear_3_169" x1="71.5318" y1="0.394012" x2="116.327" y2="0.394012" gradientUnits="userSpaceOnUse">
<stop/>
<stop offset="0.328"/>
<stop offset="0.524"/>
<stop offset="0.73"/>
<stop offset="1"/>
</linearGradient>
<linearGradient id="paint8_linear_3_169" x1="0.315201" y1="106.69" x2="9.57336" y2="106.69" gradientUnits="userSpaceOnUse">
<stop/>
<stop offset="0.328"/>
<stop offset="0.524"/>
<stop offset="0.73"/>
<stop offset="1"/>
</linearGradient>
<linearGradient id="paint9_linear_3_169" x1="18.4754" y1="106.69" x2="29.4428" y2="106.69" gradientUnits="userSpaceOnUse">
<stop/>
<stop offset="0.328"/>
<stop offset="0.524"/>
<stop offset="0.73"/>
<stop offset="1"/>
</linearGradient>
<linearGradient id="paint10_linear_3_169" x1="39.057" y1="106.69" x2="50.1668" y2="106.69" gradientUnits="userSpaceOnUse">
<stop/>
<stop offset="0.328"/>
<stop offset="0.524"/>
<stop offset="0.73"/>
<stop offset="1"/>
</linearGradient>
<linearGradient id="paint11_linear_3_169" x1="59.7811" y1="106.69" x2="66.1193" y2="106.69" gradientUnits="userSpaceOnUse">
<stop/>
<stop offset="0.328"/>
<stop offset="0.524"/>
<stop offset="0.73"/>
<stop offset="1"/>
</linearGradient>
<linearGradient id="paint12_linear_3_169" x1="74.3805" y1="106.69" x2="84.5645" y2="106.69" gradientUnits="userSpaceOnUse">
<stop/>
<stop offset="0.328"/>
<stop offset="0.524"/>
<stop offset="0.73"/>
<stop offset="1"/>
</linearGradient>
<linearGradient id="paint13_linear_3_169" x1="93.9651" y1="106.69" x2="103.01" y2="106.69" gradientUnits="userSpaceOnUse">
<stop/>
<stop offset="0.328"/>
<stop offset="0.524"/>
<stop offset="0.73"/>
<stop offset="1"/>
</linearGradient>
<linearGradient id="paint14_linear_3_169" x1="112.41" y1="106.69" x2="120.244" y2="106.69" gradientUnits="userSpaceOnUse">
<stop/>
<stop offset="0.328"/>
<stop offset="0.524"/>
<stop offset="0.73"/>
<stop offset="1"/>
</linearGradient>
<linearGradient id="paint15_linear_3_169" x1="0.315201" y1="124.988" x2="3.59115" y2="124.988" gradientUnits="userSpaceOnUse">
<stop/>
<stop offset="0.328"/>
<stop offset="0.524"/>
<stop offset="0.73"/>
<stop offset="1"/>
</linearGradient>
<linearGradient id="paint16_linear_3_169" x1="7.00955" y1="124.988" x2="10.9265" y2="124.988" gradientUnits="userSpaceOnUse">
<stop/>
<stop offset="0.328"/>
<stop offset="0.524"/>
<stop offset="0.73"/>
<stop offset="1"/>
</linearGradient>
<linearGradient id="paint17_linear_3_169" x1="15.0571" y1="124.905" x2="18.333" y2="124.905" gradientUnits="userSpaceOnUse">
<stop/>
<stop offset="0.328"/>
<stop offset="0.524"/>
<stop offset="0.73"/>
<stop offset="1"/>
</linearGradient>
<linearGradient id="paint18_linear_3_169" x1="23.1045" y1="124.988" x2="26.0244" y2="124.988" gradientUnits="userSpaceOnUse">
<stop/>
<stop offset="0.328"/>
<stop offset="0.524"/>
<stop offset="0.73"/>
<stop offset="1"/>
</linearGradient>
<linearGradient id="paint19_linear_3_169" x1="30.5823" y1="124.988" x2="31.2944" y2="124.988" gradientUnits="userSpaceOnUse">
<stop/>
<stop offset="0.328"/>
<stop offset="0.524"/>
<stop offset="0.73"/>
<stop offset="1"/>
</linearGradient>
<linearGradient id="paint20_linear_3_169" x1="36.2084" y1="124.988" x2="39.6268" y2="124.988" gradientUnits="userSpaceOnUse">
<stop/>
<stop offset="0.328"/>
<stop offset="0.524"/>
<stop offset="0.73"/>
<stop offset="1"/>
</linearGradient>
<linearGradient id="paint21_linear_3_169" x1="44.5407" y1="124.988" x2="47.4606" y2="124.988" gradientUnits="userSpaceOnUse">
<stop/>
<stop offset="0.328"/>
<stop offset="0.524"/>
<stop offset="0.73"/>
<stop offset="1"/>
</linearGradient>
<linearGradient id="paint22_linear_3_169" x1="57.3597" y1="124.905" x2="60.6357" y2="124.905" gradientUnits="userSpaceOnUse">
<stop/>
<stop offset="0.328"/>
<stop offset="0.524"/>
<stop offset="0.73"/>
<stop offset="1"/>
</linearGradient>
<linearGradient id="paint23_linear_3_169" x1="65.1935" y1="124.905" x2="68.5407" y2="124.905" gradientUnits="userSpaceOnUse">
<stop/>
<stop offset="0.328"/>
<stop offset="0.524"/>
<stop offset="0.73"/>
<stop offset="1"/>
</linearGradient>
<linearGradient id="paint24_linear_3_169" x1="73.241" y1="124.988" x2="76.1609" y2="124.988" gradientUnits="userSpaceOnUse">
<stop/>
<stop offset="0.328"/>
<stop offset="0.524"/>
<stop offset="0.73"/>
<stop offset="1"/>
</linearGradient>
<linearGradient id="paint25_linear_3_169" x1="80.3626" y1="124.905" x2="83.7098" y2="124.905" gradientUnits="userSpaceOnUse">
<stop/>
<stop offset="0.328"/>
<stop offset="0.524"/>
<stop offset="0.73"/>
<stop offset="1"/>
</linearGradient>
<linearGradient id="paint26_linear_3_169" x1="93.8226" y1="124.988" x2="97.0986" y2="124.988" gradientUnits="userSpaceOnUse">
<stop/>
<stop offset="0.328"/>
<stop offset="0.524"/>
<stop offset="0.73"/>
<stop offset="1"/>
</linearGradient>
<linearGradient id="paint27_linear_3_169" x1="101.941" y1="124.988" x2="104.932" y2="124.988" gradientUnits="userSpaceOnUse">
<stop/>
<stop offset="0.328"/>
<stop offset="0.524"/>
<stop offset="0.73"/>
<stop offset="1"/>
</linearGradient>
<linearGradient id="paint28_linear_3_169" x1="109.49" y1="124.988" x2="112.837" y2="124.988" gradientUnits="userSpaceOnUse">
<stop/>
<stop offset="0.328"/>
<stop offset="0.524"/>
<stop offset="0.73"/>
<stop offset="1"/>
</linearGradient>
<linearGradient id="paint29_linear_3_169" x1="117.324" y1="124.988" x2="120.315" y2="124.988" gradientUnits="userSpaceOnUse">
<stop/>
<stop offset="0.328"/>
<stop offset="0.524"/>
<stop offset="0.73"/>
<stop offset="1"/>
</linearGradient>
</defs>
</svg>
