<svg width="121" height="131" viewBox="0 0 121 131" fill="none" xmlns="http://www.w3.org/2000/svg">
<path d="M103.387 10.8079C96.5962 4.30791 87.5692 0.740829 77.9626 0.740829C68.356 0.740829 59.3291 4.30791 52.621 10.8079C47.3208 15.8811 43.8425 22.2225 42.6003 29.1189C42.4899 29.8587 42.3795 30.5721 42.2691 31.2591C42.2139 31.9461 42.1586 32.6595 42.1034 33.3994C42.1034 33.9278 42.1034 34.4827 42.1034 35.064V39.7408V41.881V43.9421V69.4665L68.6872 69.3872H70.9233H73.0765C73.1317 68.8587 73.1593 68.3038 73.1593 67.7225V63.0457H70.9233H48.7287V43.8628V39.6615V35.064C48.7287 34.4827 48.7287 33.9014 48.7287 33.3201C48.7839 32.6331 48.8667 31.9461 48.9771 31.2591C49.0875 30.5193 49.2256 29.8059 49.3912 29.1189C50.5506 23.8079 53.3664 18.9725 57.2587 15.2469C62.5589 10.1737 69.9295 7.08229 77.9626 7.08229C94.1117 7.08229 107.197 19.6067 107.197 35.064C107.197 42.753 103.967 49.8079 98.6665 54.8811C94.7742 58.6067 89.7225 61.3018 84.1738 62.4116V63.0457V67.7225C84.1738 68.0925 84.1738 68.4888 84.1738 68.9116C91.3788 67.7225 98.0868 64.4725 103.387 59.3994C110.095 52.8994 113.905 44.2591 113.905 35.064C113.905 25.8689 110.095 17.2286 103.387 10.8079Z" fill="url(#paint0_linear_3_118)"/>
<path d="M48.7287 39.6615H50.8819H53.1179H73.1593V58.8445V60.9847V63.0457V67.7225C73.1593 68.3038 73.1317 68.8587 73.0765 69.3871C73.0213 70.127 72.9661 70.8404 72.9109 71.5274C72.8005 72.2144 72.6624 72.9014 72.4968 73.5884C71.2546 78.9786 68.4388 83.7347 64.5465 87.4603C59.2463 92.5335 51.9585 95.7042 43.9254 95.7042C27.7763 95.7042 14.6086 83.1006 14.6086 67.7225C14.6086 59.9542 17.9212 52.9786 23.2214 47.9055C27.1138 44.1798 32.0827 41.4847 37.7142 40.2957V35.064C37.7142 34.6412 37.7142 34.2449 37.7142 33.875C30.5092 35.064 23.8011 38.314 18.5009 43.3872C11.7101 49.8872 7.98334 58.5274 7.98334 67.7225C7.98334 76.8384 11.7101 85.4786 18.5009 91.9786C25.2918 98.4786 34.3188 102.046 43.9254 102.046C53.4492 102.046 62.4761 98.4786 69.267 91.9786C75.6438 85.875 79.2877 77.9481 79.7017 69.3871C79.7569 69.1229 79.7846 68.8587 79.7846 68.5945C79.7846 68.4359 79.7846 68.2774 79.7846 68.1189C79.7846 67.9603 79.7846 67.8282 79.7846 67.7225V63.0457V33.3201H53.1179H50.9647H48.7287C48.7287 33.9014 48.7287 34.4827 48.7287 35.064V39.6615Z" fill="url(#paint1_linear_3_118)"/>
<path d="M8.64585 118.851C8.06614 119.405 7.23797 119.722 6.40982 119.722C4.58787 119.722 3.09719 118.296 3.09719 116.552C3.09719 114.887 4.58787 113.46 6.40982 113.46C7.23797 113.46 8.06614 113.777 8.64585 114.253L10.2194 112.826C9.22558 111.875 7.9005 111.32 6.40982 111.32C3.42845 111.32 0.944 113.698 0.944 116.552C0.944 119.485 3.42845 121.783 6.40982 121.783C7.9005 121.783 9.22558 121.229 10.2194 120.357L8.64585 118.851Z" fill="url(#paint2_linear_3_118)"/>
<path fill-rule="evenodd" clip-rule="evenodd" d="M24.5465 121.783C21.5651 121.783 19.0807 119.485 19.0807 116.552C19.0807 113.698 21.5651 111.32 24.5465 111.32C27.6107 111.32 30.0123 113.698 30.0123 116.552C30.0123 119.485 27.6107 121.783 24.5465 121.783ZM27.8591 116.552C27.8591 114.887 26.3684 113.46 24.5465 113.46C22.7245 113.46 21.3166 114.887 21.3166 116.552C21.3166 118.296 22.7245 119.722 24.5465 119.722C26.3684 119.722 27.8591 118.296 27.8591 116.552Z" fill="url(#paint3_linear_3_118)"/>
<path d="M50.7991 121.783V111.32H48.3974L45.2504 119.009L42.0206 111.32H39.7017V121.783H41.855V116.552L44.091 121.783H46.4098L48.563 116.552V121.783H50.7991Z" fill="url(#paint4_linear_3_118)"/>
<path fill-rule="evenodd" clip-rule="evenodd" d="M66.7825 114.491C66.7825 116.235 65.2918 117.662 63.4699 117.662H62.6417V121.783H60.4057V111.32H63.4699C65.2918 111.32 66.7825 112.747 66.7825 114.491ZM64.5465 114.491C64.5465 113.936 64.0496 113.46 63.4699 113.46H62.6417V115.521H63.4699C64.0496 115.521 64.5465 115.046 64.5465 114.491Z" fill="url(#paint5_linear_3_118)"/>
<path fill-rule="evenodd" clip-rule="evenodd" d="M85.1676 121.783H82.8488L81.7721 118.851H78.3767L77.3001 121.783H74.9813L78.9564 111.32H81.2752L85.1676 121.783ZM80.944 116.79L80.033 114.412L79.122 116.79H80.944Z" fill="url(#paint6_linear_3_118)"/>
<path d="M101.482 118.296L97.093 111.32H94.5258V121.783H96.7618V114.808L101.151 121.783H103.636V111.32H101.482V118.296Z" fill="url(#paint7_linear_3_118)"/>
<path d="M118.045 121.783V116.79L120.861 111.32H118.46L116.969 114.253L115.478 111.32H112.994L115.892 116.79V121.783H118.045Z" fill="url(#paint8_linear_3_118)"/>
<path fill-rule="evenodd" clip-rule="evenodd" d="M9.88809 126.302L11.5444 130.741H10.7991L10.4678 129.71H8.7287L8.31462 130.741H7.56926L9.30837 126.302H9.88809ZM10.2194 129.155L9.55686 127.174L8.89429 129.155H10.2194Z" fill="url(#paint9_linear_3_118)"/>
<path d="M16.5962 127.253C16.7066 127.147 16.817 127.068 16.9274 127.015C17.0378 126.962 17.1759 126.936 17.3415 126.936C17.5623 126.936 17.7556 126.989 17.9212 127.094C18.0868 127.253 18.1973 127.412 18.2525 127.57H18.9978C18.8874 127.2 18.6941 126.883 18.4181 126.619C18.142 126.355 17.7832 126.223 17.3415 126.223C16.955 126.223 16.6514 126.302 16.4305 126.46C16.1545 126.619 15.9612 126.804 15.8508 127.015C15.7956 127.121 15.768 127.279 15.768 127.491C15.7128 127.649 15.6852 127.993 15.6852 128.521C15.6852 128.997 15.7128 129.34 15.768 129.552C15.768 129.605 15.768 129.684 15.768 129.79C15.8232 129.842 15.8508 129.895 15.8508 129.948C15.9612 130.16 16.1545 130.345 16.4305 130.503C16.6514 130.662 16.955 130.741 17.3415 130.741C17.7832 130.741 18.1697 130.582 18.5009 130.265C18.8322 130.001 18.9978 129.631 18.9978 129.155V128.283H17.3415V128.918H18.2525V129.155C18.2525 129.42 18.1696 129.631 18.004 129.79C17.8384 130.001 17.6175 130.107 17.3415 130.107C17.1759 130.107 17.0378 130.054 16.9274 129.948C16.817 129.895 16.7066 129.842 16.5962 129.79C16.541 129.684 16.4858 129.552 16.4305 129.393C16.3753 129.235 16.3477 128.944 16.3477 128.521C16.3477 128.046 16.3753 127.729 16.4305 127.57C16.4858 127.464 16.541 127.359 16.5962 127.253Z" fill="url(#paint10_linear_3_118)"/>
<path d="M23.7183 126.302V130.741H26.6997V130.107H24.3808V126.302H23.7183Z" fill="url(#paint11_linear_3_118)"/>
<path d="M31.2545 126.302V130.741H31.9171V126.302H31.2545Z" fill="url(#paint12_linear_3_118)"/>
<path d="M39.5361 129.393L37.4657 126.302H36.8032V130.741H37.4657V127.57H37.5486L39.619 130.741H40.2815V126.302H39.5361V129.393Z" fill="url(#paint13_linear_3_118)"/>
<path d="M48.0662 126.936V126.302H45.1676V130.741H48.0662V130.107H45.8301V128.759H47.7349V128.204H45.8301V126.936H48.0662Z" fill="url(#paint14_linear_3_118)"/>
<path d="M58.7494 126.46C58.4733 126.619 58.2801 126.804 58.1696 127.015C58.1144 127.121 58.0593 127.279 58.004 127.491C58.004 127.649 58.004 127.993 58.004 128.521C58.004 128.997 58.004 129.34 58.004 129.552C58.004 129.605 58.0316 129.684 58.0868 129.79C58.0868 129.842 58.1144 129.895 58.1696 129.948C58.2801 130.16 58.4733 130.345 58.7494 130.503C58.9702 130.662 59.2739 130.741 59.6604 130.741C60.102 130.741 60.4885 130.582 60.8197 130.265C61.0958 130.001 61.2338 129.631 61.2338 129.155V128.283H59.6604V128.918H60.5713V129.155C60.5713 129.42 60.4885 129.631 60.3229 129.79C60.102 130.001 59.8812 130.107 59.6604 130.107C59.4947 130.107 59.3291 130.054 59.1634 129.948C59.053 129.895 58.9702 129.842 58.915 129.79C58.8046 129.684 58.7494 129.552 58.7494 129.393C58.6941 129.235 58.6666 128.944 58.6666 128.521C58.6666 128.046 58.6941 127.729 58.7494 127.57C58.7494 127.464 58.8046 127.359 58.915 127.253C58.9702 127.147 59.053 127.068 59.1634 127.015C59.3291 126.962 59.4947 126.936 59.6604 126.936C59.8812 126.936 60.0468 126.989 60.1572 127.094C60.3229 127.253 60.4333 127.412 60.4885 127.57H61.2338C61.1786 127.2 61.013 126.883 60.737 126.619C60.4609 126.355 60.102 126.223 59.6604 126.223C59.2739 126.223 58.9702 126.302 58.7494 126.46Z" fill="url(#paint15_linear_3_118)"/>
<path fill-rule="evenodd" clip-rule="evenodd" d="M66.5341 126.46C66.8101 126.302 67.1138 126.223 67.445 126.223C67.8315 126.223 68.1628 126.302 68.4388 126.46C68.6597 126.619 68.8253 126.804 68.9357 127.015C68.9909 127.121 69.0461 127.279 69.1013 127.491C69.1013 127.649 69.1013 127.993 69.1013 128.521C69.1013 128.997 69.1013 129.34 69.1013 129.552C69.0461 129.71 68.9909 129.842 68.9357 129.948C68.8253 130.16 68.6597 130.345 68.4388 130.503C68.1628 130.662 67.8315 130.741 67.445 130.741C67.1138 130.741 66.8101 130.662 66.5341 130.503C66.3132 130.345 66.1476 130.16 66.0371 129.948C65.9819 129.895 65.9543 129.842 65.9543 129.79C65.8991 129.684 65.8716 129.605 65.8716 129.552C65.8716 129.34 65.8716 128.997 65.8716 128.521C65.8716 127.993 65.8716 127.649 65.8716 127.491C65.9268 127.279 65.9819 127.121 66.0371 127.015C66.1476 126.804 66.3132 126.619 66.5341 126.46ZM66.5341 128.521C66.5341 128.944 66.5617 129.235 66.6169 129.393C66.6169 129.552 66.6721 129.684 66.7825 129.79C66.8377 129.842 66.9205 129.895 67.0309 129.948C67.1414 130.054 67.2794 130.107 67.445 130.107C67.6659 130.107 67.8315 130.054 67.9419 129.948C68.0524 129.895 68.1352 129.842 68.1904 129.79C68.3008 129.684 68.356 129.552 68.356 129.393C68.4112 129.235 68.4388 128.944 68.4388 128.521C68.4388 128.046 68.4112 127.729 68.356 127.57C68.356 127.464 68.3008 127.359 68.1904 127.253C68.1352 127.147 68.0524 127.068 67.9419 127.015C67.8315 126.962 67.6659 126.936 67.445 126.936C67.2794 126.936 67.1414 126.962 67.0309 127.015C66.9205 127.068 66.8377 127.147 66.7825 127.253C66.6721 127.359 66.6169 127.464 66.6169 127.57C66.5617 127.729 66.5341 128.046 66.5341 128.521Z" fill="url(#paint16_linear_3_118)"/>
<path d="M73.8218 130.741H76.8032V130.107H74.5672V128.759H76.472V128.204H74.5672V126.936H76.8032V126.302H73.8218V130.741Z" fill="url(#paint17_linear_3_118)"/>
<path d="M82.7659 130.107C82.269 130.107 81.8274 129.948 81.4409 129.631L80.944 130.107C81.4409 130.529 82.0482 130.741 82.7659 130.741C83.8149 130.741 84.3394 130.318 84.3394 129.473C84.3394 129.155 84.2566 128.865 84.091 128.601C83.8702 128.389 83.5389 128.257 83.0972 128.204C82.8764 128.151 82.7107 128.125 82.6003 128.125C82.3794 128.072 82.2138 127.993 82.1034 127.887C81.993 127.781 81.9378 127.676 81.9378 127.57C81.9378 127.359 82.0206 127.2 82.1862 127.094C82.2966 126.989 82.4623 126.936 82.6831 126.936C83.1248 126.936 83.5113 127.042 83.8425 127.253L84.2566 126.698C83.8149 126.434 83.318 126.275 82.7659 126.223C82.269 126.223 81.8826 126.355 81.6065 126.619C81.3305 126.83 81.1925 127.147 81.1925 127.57C81.1925 127.887 81.3028 128.151 81.5237 128.363C81.7445 128.574 82.0482 128.706 82.4347 128.759C82.6555 128.812 82.8764 128.838 83.0972 128.838C83.4837 128.944 83.6769 129.155 83.6769 129.473C83.6769 129.895 83.3732 130.107 82.7659 130.107Z" fill="url(#paint18_linear_3_118)"/>
<path d="M94.443 130.741H95.1883V128.759H97.0102V130.741H97.6727V126.302H97.0102V128.204H95.1883V126.302H94.443V130.741Z" fill="url(#paint19_linear_3_118)"/>
<path d="M105.54 126.936V126.302H102.559V130.741H105.54V130.107H103.304V128.759H105.209V128.204H103.304V126.936H105.54Z" fill="url(#paint20_linear_3_118)"/>
<path fill-rule="evenodd" clip-rule="evenodd" d="M112.414 128.759L113.491 130.741H112.662L111.669 128.838H110.758V130.741H110.095V126.302H111.917C112.304 126.302 112.607 126.381 112.828 126.54C113.159 126.804 113.325 127.121 113.325 127.491C113.325 128.125 113.021 128.548 112.414 128.759ZM111.834 128.204C112.11 128.204 112.304 128.151 112.414 128.046C112.58 127.887 112.662 127.702 112.662 127.491C112.662 127.279 112.58 127.121 112.414 127.015C112.304 126.91 112.138 126.857 111.917 126.857H110.758V128.204H111.834Z" fill="url(#paint21_linear_3_118)"/>
<path d="M117.963 130.741H120.944V130.107H118.625V128.759H120.613V128.204H118.625V126.936H120.944V126.302H117.963V130.741Z" fill="url(#paint22_linear_3_118)"/>
<defs>
<linearGradient id="paint0_linear_3_118" x1="42.1034" y1="0.740829" x2="113.905" y2="0.740829" gradientUnits="userSpaceOnUse">
<stop/>
<stop offset="0.328"/>
<stop offset="0.524"/>
<stop offset="0.73"/>
<stop offset="1"/>
</linearGradient>
<linearGradient id="paint1_linear_3_118" x1="7.98334" y1="33.3201" x2="79.7846" y2="33.3201" gradientUnits="userSpaceOnUse">
<stop/>
<stop offset="0.328"/>
<stop offset="0.524"/>
<stop offset="0.73"/>
<stop offset="1"/>
</linearGradient>
<linearGradient id="paint2_linear_3_118" x1="0.944" y1="111.32" x2="10.2194" y2="111.32" gradientUnits="userSpaceOnUse">
<stop/>
<stop offset="0.328"/>
<stop offset="0.524"/>
<stop offset="0.73"/>
<stop offset="1"/>
</linearGradient>
<linearGradient id="paint3_linear_3_118" x1="19.0807" y1="111.32" x2="30.0123" y2="111.32" gradientUnits="userSpaceOnUse">
<stop/>
<stop offset="0.328"/>
<stop offset="0.524"/>
<stop offset="0.73"/>
<stop offset="1"/>
</linearGradient>
<linearGradient id="paint4_linear_3_118" x1="39.7017" y1="111.32" x2="50.7991" y2="111.32" gradientUnits="userSpaceOnUse">
<stop/>
<stop offset="0.328"/>
<stop offset="0.524"/>
<stop offset="0.73"/>
<stop offset="1"/>
</linearGradient>
<linearGradient id="paint5_linear_3_118" x1="60.4057" y1="111.32" x2="66.7825" y2="111.32" gradientUnits="userSpaceOnUse">
<stop/>
<stop offset="0.328"/>
<stop offset="0.524"/>
<stop offset="0.73"/>
<stop offset="1"/>
</linearGradient>
<linearGradient id="paint6_linear_3_118" x1="74.9813" y1="111.32" x2="85.1676" y2="111.32" gradientUnits="userSpaceOnUse">
<stop/>
<stop offset="0.328"/>
<stop offset="0.524"/>
<stop offset="0.73"/>
<stop offset="1"/>
</linearGradient>
<linearGradient id="paint7_linear_3_118" x1="94.5258" y1="111.32" x2="103.636" y2="111.32" gradientUnits="userSpaceOnUse">
<stop/>
<stop offset="0.328"/>
<stop offset="0.524"/>
<stop offset="0.73"/>
<stop offset="1"/>
</linearGradient>
<linearGradient id="paint8_linear_3_118" x1="112.994" y1="111.32" x2="120.861" y2="111.32" gradientUnits="userSpaceOnUse">
<stop/>
<stop offset="0.328"/>
<stop offset="0.524"/>
<stop offset="0.73"/>
<stop offset="1"/>
</linearGradient>
<linearGradient id="paint9_linear_3_118" x1="7.56926" y1="126.302" x2="11.5444" y2="126.302" gradientUnits="userSpaceOnUse">
<stop/>
<stop offset="0.328"/>
<stop offset="0.524"/>
<stop offset="0.73"/>
<stop offset="1"/>
</linearGradient>
<linearGradient id="paint10_linear_3_118" x1="15.6852" y1="126.223" x2="18.9978" y2="126.223" gradientUnits="userSpaceOnUse">
<stop/>
<stop offset="0.328"/>
<stop offset="0.524"/>
<stop offset="0.73"/>
<stop offset="1"/>
</linearGradient>
<linearGradient id="paint11_linear_3_118" x1="23.7183" y1="126.302" x2="26.6997" y2="126.302" gradientUnits="userSpaceOnUse">
<stop/>
<stop offset="0.328"/>
<stop offset="0.524"/>
<stop offset="0.73"/>
<stop offset="1"/>
</linearGradient>
<linearGradient id="paint12_linear_3_118" x1="31.2545" y1="126.302" x2="31.9171" y2="126.302" gradientUnits="userSpaceOnUse">
<stop/>
<stop offset="0.328"/>
<stop offset="0.524"/>
<stop offset="0.73"/>
<stop offset="1"/>
</linearGradient>
<linearGradient id="paint13_linear_3_118" x1="36.8032" y1="126.302" x2="40.2815" y2="126.302" gradientUnits="userSpaceOnUse">
<stop/>
<stop offset="0.328"/>
<stop offset="0.524"/>
<stop offset="0.73"/>
<stop offset="1"/>
</linearGradient>
<linearGradient id="paint14_linear_3_118" x1="45.1676" y1="126.302" x2="48.0662" y2="126.302" gradientUnits="userSpaceOnUse">
<stop/>
<stop offset="0.328"/>
<stop offset="0.524"/>
<stop offset="0.73"/>
<stop offset="1"/>
</linearGradient>
<linearGradient id="paint15_linear_3_118" x1="58.004" y1="126.223" x2="61.2338" y2="126.223" gradientUnits="userSpaceOnUse">
<stop/>
<stop offset="0.328"/>
<stop offset="0.524"/>
<stop offset="0.73"/>
<stop offset="1"/>
</linearGradient>
<linearGradient id="paint16_linear_3_118" x1="65.8716" y1="126.223" x2="69.1013" y2="126.223" gradientUnits="userSpaceOnUse">
<stop/>
<stop offset="0.328"/>
<stop offset="0.524"/>
<stop offset="0.73"/>
<stop offset="1"/>
</linearGradient>
<linearGradient id="paint17_linear_3_118" x1="73.8218" y1="126.302" x2="76.8032" y2="126.302" gradientUnits="userSpaceOnUse">
<stop/>
<stop offset="0.328"/>
<stop offset="0.524"/>
<stop offset="0.73"/>
<stop offset="1"/>
</linearGradient>
<linearGradient id="paint18_linear_3_118" x1="80.944" y1="126.223" x2="84.3394" y2="126.223" gradientUnits="userSpaceOnUse">
<stop/>
<stop offset="0.328"/>
<stop offset="0.524"/>
<stop offset="0.73"/>
<stop offset="1"/>
</linearGradient>
<linearGradient id="paint19_linear_3_118" x1="94.443" y1="126.302" x2="97.6727" y2="126.302" gradientUnits="userSpaceOnUse">
<stop/>
<stop offset="0.328"/>
<stop offset="0.524"/>
<stop offset="0.73"/>
<stop offset="1"/>
</linearGradient>
<linearGradient id="paint20_linear_3_118" x1="102.559" y1="126.302" x2="105.54" y2="126.302" gradientUnits="userSpaceOnUse">
<stop/>
<stop offset="0.328"/>
<stop offset="0.524"/>
<stop offset="0.73"/>
<stop offset="1"/>
</linearGradient>
<linearGradient id="paint21_linear_3_118" x1="110.095" y1="126.302" x2="113.491" y2="126.302" gradientUnits="userSpaceOnUse">
<stop/>
<stop offset="0.328"/>
<stop offset="0.524"/>
<stop offset="0.73"/>
<stop offset="1"/>
</linearGradient>
<linearGradient id="paint22_linear_3_118" x1="117.963" y1="126.302" x2="120.944" y2="126.302" gradientUnits="userSpaceOnUse">
<stop/>
<stop offset="0.328"/>
<stop offset="0.524"/>
<stop offset="0.73"/>
<stop offset="1"/>
</linearGradient>
</defs>
</svg>
