<svg width="121" height="131" viewBox="0 0 121 131" fill="none" xmlns="http://www.w3.org/2000/svg">
<path fill-rule="evenodd" clip-rule="evenodd" d="M42.985 41.1996C38.0122 41.8337 33.2839 42.6264 28.8002 43.6569L54.5611 0.376419L77.8763 39.7727C74.8872 39.6142 71.8437 39.535 68.7459 39.535C67.5502 39.535 66.3545 39.535 65.1589 39.535L54.5611 21.6996L42.985 41.1996ZM40.8654 38.1874L51.5448 20.1142L54.4796 15.1996L57.4143 20.1142L67.0339 36.2849C67.5774 36.2849 68.1209 36.2849 68.6643 36.2849C69.7513 36.2849 70.8383 36.3114 71.9252 36.3642L54.4796 6.95568L35.485 39.0593C37.2241 38.7423 39.0176 38.4516 40.8654 38.1874Z" fill="url(#paint0_linear_3_8)"/>
<path fill-rule="evenodd" clip-rule="evenodd" d="M0.675201 72.4313C0.675201 63.791 9.96866 55.9435 24.8056 50.3947C28.8817 48.8886 33.2839 47.5411 38.0937 46.4313C38.7459 46.2728 39.4252 46.1142 40.1317 45.9557C48.2024 44.1325 57.1698 42.8642 66.7078 42.3093C67.7404 42.2565 68.7458 42.2036 69.7241 42.1508C72.7676 41.9923 75.8383 41.913 78.9361 41.913C79.0448 41.913 79.1263 41.913 79.1806 41.913C92.8763 41.913 105.757 43.3398 116.925 45.7179C118.175 45.9821 119.425 46.2727 120.675 46.5898C120.186 46.537 119.724 46.4841 119.289 46.4313C112.442 45.7179 105.186 45.3215 97.7676 45.3215C92.2241 45.3215 86.7622 45.4801 81.5448 45.9557L95.3219 69.0228H19.9958C18.2839 71.5594 17.3872 74.2545 17.3872 77.0288C17.3872 85.352 25.5393 92.9618 38.7458 98.5898C15.9198 93.2789 0.675201 83.5289 0.675201 72.4313ZM32.7948 58.3215H76.2458L69.7241 47.3032C54.8056 49.4435 42.0067 53.3276 32.7948 58.3215Z" fill="url(#paint1_linear_3_8)"/>
<path d="M7.93064 120.468C8.36542 120.309 8.71867 120.072 8.99041 119.754C9.3165 119.437 9.56106 119.067 9.7241 118.645C9.94149 118.275 10.0502 117.852 10.0502 117.376V116.504H7.84911V117.218C7.84911 117.482 7.82193 117.72 7.76758 117.931C7.65889 118.09 7.5502 118.222 7.4415 118.328C7.27846 118.486 7.11541 118.565 6.95237 118.565C6.78932 118.618 6.65345 118.645 6.54476 118.645C6.05563 118.645 5.70238 118.513 5.48499 118.248C5.32194 117.931 5.24041 117.561 5.24041 117.139V109.687C5.24041 109.212 5.32194 108.815 5.48499 108.498C5.64803 108.181 6.00128 108.023 6.54476 108.023C6.92519 108.023 7.25129 108.181 7.52303 108.498C7.74042 108.763 7.84911 109.106 7.84911 109.529V110.242H10.0502V109.37C10.0502 108.895 9.94149 108.446 9.7241 108.023C9.56106 107.6 9.3165 107.23 8.99041 106.913C8.39258 106.226 7.57737 105.883 6.54476 105.883C6.05563 105.883 5.59369 105.988 5.1589 106.2C4.72412 106.358 4.34367 106.596 4.01758 106.913C3.69149 107.177 3.44693 107.521 3.28389 107.943C3.12085 108.366 3.03933 108.815 3.03933 109.291V117.297C3.03933 117.984 3.14802 118.539 3.36542 118.962C3.58281 119.385 3.85455 119.728 4.18063 119.992C4.56107 120.309 4.9415 120.521 5.32193 120.626C5.75672 120.732 6.1915 120.785 6.62629 120.785C7.06107 120.785 7.49586 120.679 7.93064 120.468Z" fill="url(#paint2_linear_3_8)"/>
<path fill-rule="evenodd" clip-rule="evenodd" d="M27.2513 117.218C27.2513 117.799 27.1426 118.328 26.9252 118.803C26.7622 119.226 26.4904 119.569 26.11 119.834C25.7839 120.151 25.4035 120.389 24.9687 120.547C24.5339 120.706 24.0991 120.785 23.6643 120.785C23.2295 120.785 22.7948 120.706 22.36 120.547C21.9252 120.389 21.5448 120.151 21.2187 119.834C20.8926 119.569 20.6208 119.226 20.4035 118.803C20.1861 118.328 20.0774 117.799 20.0774 117.218V109.45C20.0774 108.868 20.1861 108.366 20.4035 107.943C20.6208 107.468 20.8926 107.098 21.2187 106.834C21.5448 106.517 21.9252 106.279 22.36 106.12C22.7948 105.962 23.2295 105.883 23.6643 105.883C24.0991 105.883 24.5339 105.962 24.9687 106.12C25.4035 106.279 25.7839 106.517 26.11 106.834C26.4904 107.098 26.7622 107.468 26.9252 107.943C27.1426 108.366 27.2513 108.868 27.2513 109.45V117.218ZM25.1317 109.529C25.1317 109.053 24.9959 108.683 24.7241 108.419C24.398 108.208 24.0448 108.102 23.6643 108.102C23.2839 108.102 22.9578 108.208 22.6861 108.419C22.36 108.683 22.1969 109.053 22.1969 109.529V117.218C22.1969 117.746 22.36 118.143 22.6861 118.407C22.9578 118.618 23.2839 118.724 23.6643 118.724C24.0448 118.724 24.398 118.618 24.7241 118.407C24.9959 118.143 25.1317 117.746 25.1317 117.218V109.529Z" fill="url(#paint3_linear_3_8)"/>
<path d="M42.4959 113.809H42.4143L39.6426 106.041H37.6045V120.626H39.7241V111.748H39.8056L41.9252 118.011H42.985L45.1046 111.748H45.1861V120.626H47.3056V106.041H45.1861L42.4959 113.809Z" fill="url(#paint4_linear_3_8)"/>
<path fill-rule="evenodd" clip-rule="evenodd" d="M64.5067 108.419C64.6698 108.948 64.7513 109.635 64.7513 110.48C64.7513 111.167 64.6969 111.722 64.5883 112.145C64.5339 112.62 64.3709 113.043 64.0991 113.413C63.8274 113.889 63.4469 114.259 62.9578 114.523C62.4687 114.787 61.8165 114.919 61.0013 114.919H59.9415V120.626H57.7404V106.041H61.0013C61.5991 106.041 62.1154 106.12 62.5502 106.279C62.985 106.437 63.3926 106.702 63.773 107.072C64.1535 107.441 64.398 107.891 64.5067 108.419ZM62.7132 110.48C62.7132 110.163 62.7132 109.846 62.7132 109.529C62.6589 109.212 62.5774 108.948 62.4687 108.736C62.36 108.525 62.1969 108.34 61.9795 108.181C61.7622 108.076 61.4361 108.023 61.0013 108.023H59.9415V112.937H60.9198C61.3546 112.937 61.7078 112.885 61.9795 112.779C62.1969 112.673 62.36 112.515 62.4687 112.303C62.5774 112.092 62.6589 111.828 62.7132 111.511C62.7132 111.193 62.7132 110.85 62.7132 110.48Z" fill="url(#paint5_linear_3_8)"/>
<path fill-rule="evenodd" clip-rule="evenodd" d="M78.1209 106.041L81.5448 120.626H79.3437L78.6915 117.535H75.7567L75.1861 120.626H72.985L76.3274 106.041H78.1209ZM78.3654 115.553L77.3056 110.242H77.2241L76.1643 115.553H78.3654Z" fill="url(#paint6_linear_3_8)"/>
<path d="M98.4198 120.626V106.041H96.3002V114.84H96.2187L92.9578 106.041H90.9198V120.626H93.0393V111.828H93.1209L96.3817 120.626H98.4198Z" fill="url(#paint7_linear_3_8)"/>
<path d="M112.931 120.626V114.443L115.865 106.041H113.583L111.871 111.828L110.077 106.041H107.795L110.811 114.443V120.626H112.931Z" fill="url(#paint8_linear_3_8)"/>
<path d="M4.8328 130.376V126.73H6.05562V126.096H3.03933V126.73H4.18063V130.376H4.8328Z" fill="url(#paint9_linear_3_8)"/>
<path fill-rule="evenodd" clip-rule="evenodd" d="M11.4361 126.096L12.985 130.376H12.3328L12.0067 129.425H10.2948L9.96868 130.376H9.31649L10.8654 126.096H11.4361ZM11.7621 128.87L11.1915 126.968L10.5393 128.87H11.7621Z" fill="url(#paint10_linear_3_8)"/>
<path d="M17.7948 127.047C17.8491 126.941 17.9306 126.862 18.0393 126.809C18.148 126.757 18.2839 126.73 18.4469 126.73C18.6643 126.73 18.8274 126.783 18.9361 126.889C19.0991 127.047 19.2078 127.206 19.2622 127.364H19.9958C19.8872 126.994 19.697 126.704 19.4252 126.492C19.2078 126.228 18.8817 126.096 18.4469 126.096C18.1209 126.096 17.8219 126.175 17.5502 126.334C17.3328 126.492 17.1698 126.677 17.0611 126.889C17.0067 126.994 16.9524 127.126 16.898 127.285C16.898 127.444 16.898 127.761 16.898 128.236C16.898 128.712 16.898 129.055 16.898 129.267C16.9524 129.32 16.9796 129.372 16.9796 129.425C17.0339 129.531 17.0611 129.61 17.0611 129.663C17.1698 129.822 17.3328 129.98 17.5502 130.139C17.8219 130.297 18.1209 130.376 18.4469 130.376C18.8817 130.376 19.235 130.244 19.5067 129.98C19.8328 129.663 19.9958 129.293 19.9958 128.87V127.998H18.4469V128.633H19.3437V128.87C19.3437 129.135 19.2621 129.346 19.0991 129.504C18.9361 129.663 18.7187 129.742 18.4469 129.742C18.2839 129.742 18.148 129.716 18.0393 129.663C17.9306 129.61 17.8491 129.531 17.7948 129.425C17.6861 129.372 17.6317 129.267 17.6317 129.108C17.5774 128.95 17.5502 128.659 17.5502 128.236C17.5502 127.813 17.5774 127.523 17.6317 127.364C17.6317 127.259 17.6861 127.153 17.7948 127.047Z" fill="url(#paint11_linear_3_8)"/>
<path d="M24.398 126.096V130.376H27.2513V129.742H25.1317V126.096H24.398Z" fill="url(#paint12_linear_3_8)"/>
<path d="M31.4904 126.096V130.376H32.1432V126.096H31.4904Z" fill="url(#paint13_linear_3_8)"/>
<path d="M36.7893 126.096V130.376H37.4415V127.364L39.398 130.376H40.0502V126.096H39.398V129.108H39.3165L37.36 126.096H36.7893Z" fill="url(#paint14_linear_3_8)"/>
<path d="M47.3872 126.73V126.096H44.6154V130.376H47.3872V129.742H45.2676V128.553H47.0611V127.919H45.2676V126.73H47.3872Z" fill="url(#paint15_linear_3_8)"/>
<path d="M56.8437 126.889C56.7893 126.994 56.7622 127.126 56.7622 127.285C56.7078 127.444 56.6806 127.761 56.6806 128.236C56.6806 128.712 56.7078 129.055 56.7622 129.267C56.7622 129.32 56.7622 129.372 56.7622 129.425C56.8165 129.531 56.8437 129.61 56.8437 129.663C56.9524 129.822 57.1426 129.98 57.4143 130.139C57.6317 130.297 57.9035 130.376 58.2295 130.376C58.6643 130.376 59.0448 130.244 59.3709 129.98C59.6426 129.663 59.7785 129.293 59.7785 128.87V127.998H58.2295V128.633H59.1263V128.87C59.1263 129.135 59.0448 129.346 58.8817 129.504C58.7187 129.663 58.5013 129.742 58.2295 129.742C58.0665 129.742 57.9306 129.716 57.8219 129.663C57.7132 129.61 57.6317 129.531 57.5774 129.425C57.4687 129.372 57.4143 129.267 57.4143 129.108C57.36 128.95 57.3328 128.659 57.3328 128.236C57.3328 127.813 57.36 127.523 57.4143 127.364C57.4143 127.259 57.4687 127.153 57.5774 127.047C57.6317 126.941 57.7132 126.862 57.8219 126.809C57.9306 126.757 58.0665 126.73 58.2295 126.73C58.4469 126.73 58.6372 126.783 58.8002 126.889C58.9089 127.047 58.9904 127.206 59.0448 127.364H59.7785C59.7241 126.994 59.5611 126.704 59.2893 126.492C59.0176 126.228 58.6643 126.096 58.2295 126.096C57.9035 126.096 57.6317 126.175 57.4143 126.334C57.1426 126.492 56.9524 126.677 56.8437 126.889Z" fill="url(#paint16_linear_3_8)"/>
<path fill-rule="evenodd" clip-rule="evenodd" d="M64.7513 126.334C65.023 126.175 65.3219 126.096 65.648 126.096C65.9741 126.096 66.273 126.175 66.5448 126.334C66.7622 126.492 66.9252 126.677 67.0339 126.889C67.0882 126.994 67.1426 127.126 67.1969 127.285C67.1969 127.444 67.1969 127.761 67.1969 128.236C67.1969 128.712 67.1969 129.055 67.1969 129.267C67.1426 129.425 67.0882 129.557 67.0339 129.663C66.9252 129.822 66.7622 129.98 66.5448 130.139C66.273 130.297 65.9741 130.376 65.648 130.376C65.3219 130.376 65.023 130.297 64.7513 130.139C64.5339 129.98 64.3709 129.822 64.2622 129.663C64.2622 129.61 64.235 129.531 64.1806 129.425C64.1806 129.372 64.1535 129.32 64.0991 129.267C64.0991 129.055 64.0991 128.712 64.0991 128.236C64.0991 127.761 64.0991 127.444 64.0991 127.285C64.1535 127.126 64.2078 126.994 64.2622 126.889C64.3709 126.677 64.5339 126.492 64.7513 126.334ZM64.7513 128.236C64.7513 128.659 64.7785 128.95 64.8328 129.108C64.8328 129.267 64.8872 129.372 64.9959 129.425C65.0502 129.531 65.1317 129.61 65.2404 129.663C65.3491 129.716 65.485 129.742 65.648 129.742C65.8111 129.742 65.9469 129.716 66.0556 129.663C66.1643 129.61 66.2459 129.531 66.3002 129.425C66.4089 129.372 66.4632 129.267 66.4632 129.108C66.5176 128.95 66.5448 128.659 66.5448 128.236C66.5448 127.813 66.5176 127.523 66.4632 127.364C66.4632 127.259 66.4089 127.153 66.3002 127.047C66.2459 126.941 66.1643 126.862 66.0556 126.809C65.9469 126.757 65.8111 126.73 65.648 126.73C65.485 126.73 65.3491 126.757 65.2404 126.809C65.1317 126.862 65.0502 126.941 64.9959 127.047C64.8872 127.153 64.8328 127.259 64.8328 127.364C64.7785 127.523 64.7513 127.813 64.7513 128.236Z" fill="url(#paint17_linear_3_8)"/>
<path d="M71.5991 130.376H74.4524V129.742H72.3328V128.553H74.1263V127.919H72.3328V126.73H74.4524V126.096H71.5991V130.376Z" fill="url(#paint18_linear_3_8)"/>
<path d="M79.9959 129.742C79.5067 129.742 79.0991 129.61 78.773 129.346L78.3654 129.822C78.8002 130.191 79.3437 130.376 79.9959 130.376C80.9741 130.376 81.4904 129.98 81.5448 129.187C81.5448 128.87 81.4361 128.606 81.2187 128.395C81.0556 128.13 80.7567 127.972 80.3219 127.919C80.1045 127.919 79.9415 127.919 79.8328 127.919C79.6154 127.866 79.4524 127.787 79.3437 127.681C79.2893 127.576 79.2622 127.47 79.2622 127.364C79.2622 127.153 79.3165 126.994 79.4252 126.889C79.5882 126.783 79.7513 126.73 79.9143 126.73C80.3491 126.73 80.7295 126.836 81.0556 127.047L81.3817 126.572C81.0013 126.254 80.5393 126.096 79.9959 126.096C79.5611 126.096 79.2078 126.202 78.9361 126.413C78.6643 126.677 78.5285 126.994 78.5285 127.364C78.5285 127.628 78.6372 127.893 78.8546 128.157C79.0719 128.315 79.3709 128.448 79.7513 128.553C79.9143 128.553 80.1045 128.58 80.3219 128.633C80.7024 128.685 80.8926 128.87 80.8926 129.187C80.8926 129.557 80.5937 129.742 79.9959 129.742Z" fill="url(#paint19_linear_3_8)"/>
<path d="M94.0991 130.376V126.096H93.4469V127.919H91.735V126.096H91.0013V130.376H91.735V128.553H93.4469V130.376H94.0991Z" fill="url(#paint20_linear_3_8)"/>
<path d="M101.436 126.73V126.096H98.6643V130.376H101.436V129.742H99.3165V128.553H101.11V127.919H99.3165V126.73H101.436Z" fill="url(#paint21_linear_3_8)"/>
<path fill-rule="evenodd" clip-rule="evenodd" d="M108.936 130.376H108.121L107.224 128.553H106.409V130.376H105.757V126.096H107.469C107.795 126.096 108.094 126.202 108.365 126.413C108.637 126.624 108.773 126.915 108.773 127.285C108.773 127.866 108.501 128.263 107.958 128.474L108.936 130.376ZM107.387 127.998C107.605 127.998 107.795 127.946 107.958 127.84C108.067 127.681 108.121 127.523 108.121 127.364C108.121 127.1 108.039 126.941 107.876 126.889C107.768 126.783 107.605 126.73 107.387 126.73H106.409V127.998H107.387Z" fill="url(#paint22_linear_3_8)"/>
<path d="M115.947 126.73V126.096H113.175V130.376H115.947V129.742H113.827V128.553H115.621V127.919H113.827V126.73H115.947Z" fill="url(#paint23_linear_3_8)"/>
<defs>
<linearGradient id="paint0_linear_3_8" x1="28.8002" y1="0.376419" x2="77.8763" y2="0.376419" gradientUnits="userSpaceOnUse">
<stop/>
<stop offset="0.328"/>
<stop offset="0.524"/>
<stop offset="0.73"/>
<stop offset="1"/>
</linearGradient>
<linearGradient id="paint1_linear_3_8" x1="0.675201" y1="41.913" x2="120.675" y2="41.913" gradientUnits="userSpaceOnUse">
<stop/>
<stop offset="0.328"/>
<stop offset="0.524"/>
<stop offset="0.73"/>
<stop offset="1"/>
</linearGradient>
<linearGradient id="paint2_linear_3_8" x1="3.03933" y1="105.883" x2="10.0502" y2="105.883" gradientUnits="userSpaceOnUse">
<stop/>
<stop offset="0.328"/>
<stop offset="0.524"/>
<stop offset="0.73"/>
<stop offset="1"/>
</linearGradient>
<linearGradient id="paint3_linear_3_8" x1="20.0774" y1="105.883" x2="27.2513" y2="105.883" gradientUnits="userSpaceOnUse">
<stop/>
<stop offset="0.328"/>
<stop offset="0.524"/>
<stop offset="0.73"/>
<stop offset="1"/>
</linearGradient>
<linearGradient id="paint4_linear_3_8" x1="37.6045" y1="106.041" x2="47.3056" y2="106.041" gradientUnits="userSpaceOnUse">
<stop/>
<stop offset="0.328"/>
<stop offset="0.524"/>
<stop offset="0.73"/>
<stop offset="1"/>
</linearGradient>
<linearGradient id="paint5_linear_3_8" x1="57.7404" y1="106.041" x2="64.7513" y2="106.041" gradientUnits="userSpaceOnUse">
<stop/>
<stop offset="0.328"/>
<stop offset="0.524"/>
<stop offset="0.73"/>
<stop offset="1"/>
</linearGradient>
<linearGradient id="paint6_linear_3_8" x1="72.985" y1="106.041" x2="81.5448" y2="106.041" gradientUnits="userSpaceOnUse">
<stop/>
<stop offset="0.328"/>
<stop offset="0.524"/>
<stop offset="0.73"/>
<stop offset="1"/>
</linearGradient>
<linearGradient id="paint7_linear_3_8" x1="90.9198" y1="106.041" x2="98.4198" y2="106.041" gradientUnits="userSpaceOnUse">
<stop/>
<stop offset="0.328"/>
<stop offset="0.524"/>
<stop offset="0.73"/>
<stop offset="1"/>
</linearGradient>
<linearGradient id="paint8_linear_3_8" x1="107.795" y1="106.041" x2="115.865" y2="106.041" gradientUnits="userSpaceOnUse">
<stop/>
<stop offset="0.328"/>
<stop offset="0.524"/>
<stop offset="0.73"/>
<stop offset="1"/>
</linearGradient>
<linearGradient id="paint9_linear_3_8" x1="3.03933" y1="126.096" x2="6.05562" y2="126.096" gradientUnits="userSpaceOnUse">
<stop/>
<stop offset="0.328"/>
<stop offset="0.524"/>
<stop offset="0.73"/>
<stop offset="1"/>
</linearGradient>
<linearGradient id="paint10_linear_3_8" x1="9.31649" y1="126.096" x2="12.985" y2="126.096" gradientUnits="userSpaceOnUse">
<stop/>
<stop offset="0.328"/>
<stop offset="0.524"/>
<stop offset="0.73"/>
<stop offset="1"/>
</linearGradient>
<linearGradient id="paint11_linear_3_8" x1="16.898" y1="126.096" x2="19.9958" y2="126.096" gradientUnits="userSpaceOnUse">
<stop/>
<stop offset="0.328"/>
<stop offset="0.524"/>
<stop offset="0.73"/>
<stop offset="1"/>
</linearGradient>
<linearGradient id="paint12_linear_3_8" x1="24.398" y1="126.096" x2="27.2513" y2="126.096" gradientUnits="userSpaceOnUse">
<stop/>
<stop offset="0.328"/>
<stop offset="0.524"/>
<stop offset="0.73"/>
<stop offset="1"/>
</linearGradient>
<linearGradient id="paint13_linear_3_8" x1="31.4904" y1="126.096" x2="32.1432" y2="126.096" gradientUnits="userSpaceOnUse">
<stop/>
<stop offset="0.328"/>
<stop offset="0.524"/>
<stop offset="0.73"/>
<stop offset="1"/>
</linearGradient>
<linearGradient id="paint14_linear_3_8" x1="36.7893" y1="126.096" x2="40.0502" y2="126.096" gradientUnits="userSpaceOnUse">
<stop/>
<stop offset="0.328"/>
<stop offset="0.524"/>
<stop offset="0.73"/>
<stop offset="1"/>
</linearGradient>
<linearGradient id="paint15_linear_3_8" x1="44.6154" y1="126.096" x2="47.3872" y2="126.096" gradientUnits="userSpaceOnUse">
<stop/>
<stop offset="0.328"/>
<stop offset="0.524"/>
<stop offset="0.73"/>
<stop offset="1"/>
</linearGradient>
<linearGradient id="paint16_linear_3_8" x1="56.6806" y1="126.096" x2="59.7785" y2="126.096" gradientUnits="userSpaceOnUse">
<stop/>
<stop offset="0.328"/>
<stop offset="0.524"/>
<stop offset="0.73"/>
<stop offset="1"/>
</linearGradient>
<linearGradient id="paint17_linear_3_8" x1="64.0991" y1="126.096" x2="67.1969" y2="126.096" gradientUnits="userSpaceOnUse">
<stop/>
<stop offset="0.328"/>
<stop offset="0.524"/>
<stop offset="0.73"/>
<stop offset="1"/>
</linearGradient>
<linearGradient id="paint18_linear_3_8" x1="71.5991" y1="126.096" x2="74.4524" y2="126.096" gradientUnits="userSpaceOnUse">
<stop/>
<stop offset="0.328"/>
<stop offset="0.524"/>
<stop offset="0.73"/>
<stop offset="1"/>
</linearGradient>
<linearGradient id="paint19_linear_3_8" x1="78.3654" y1="126.096" x2="81.5448" y2="126.096" gradientUnits="userSpaceOnUse">
<stop/>
<stop offset="0.328"/>
<stop offset="0.524"/>
<stop offset="0.73"/>
<stop offset="1"/>
</linearGradient>
<linearGradient id="paint20_linear_3_8" x1="91.0013" y1="126.096" x2="94.0991" y2="126.096" gradientUnits="userSpaceOnUse">
<stop/>
<stop offset="0.328"/>
<stop offset="0.524"/>
<stop offset="0.73"/>
<stop offset="1"/>
</linearGradient>
<linearGradient id="paint21_linear_3_8" x1="98.6643" y1="126.096" x2="101.436" y2="126.096" gradientUnits="userSpaceOnUse">
<stop/>
<stop offset="0.328"/>
<stop offset="0.524"/>
<stop offset="0.73"/>
<stop offset="1"/>
</linearGradient>
<linearGradient id="paint22_linear_3_8" x1="105.757" y1="126.096" x2="108.936" y2="126.096" gradientUnits="userSpaceOnUse">
<stop/>
<stop offset="0.328"/>
<stop offset="0.524"/>
<stop offset="0.73"/>
<stop offset="1"/>
</linearGradient>
<linearGradient id="paint23_linear_3_8" x1="113.175" y1="126.096" x2="115.947" y2="126.096" gradientUnits="userSpaceOnUse">
<stop/>
<stop offset="0.328"/>
<stop offset="0.524"/>
<stop offset="0.73"/>
<stop offset="1"/>
</linearGradient>
</defs>
</svg>
