<svg width="121" height="131" viewBox="0 0 121 131" fill="none" xmlns="http://www.w3.org/2000/svg">
<path d="M14.393 125.376H15.2638V129.906H15.897V125.376H16.7677V124.638H14.393V125.376Z" fill="url(#paint0_linear_3_390)"/>
<path fill-rule="evenodd" clip-rule="evenodd" d="M23.8917 124.322L25.7123 129.906H25.0791L24.6833 128.642H23.021L22.5461 129.906H21.9128L23.8917 124.322ZM24.4458 127.904L23.8917 126.113L23.2585 127.904H24.4458Z" fill="url(#paint1_linear_3_390)"/>
<path d="M33.2321 125.27C33.707 125.27 34.1028 125.586 34.4194 126.219L34.8152 125.586C34.5514 125.235 34.3139 124.99 34.1028 124.849C33.7862 124.638 33.496 124.533 33.2321 124.533C32.6516 124.533 32.1503 124.814 31.7282 125.376C31.306 125.867 31.0949 126.499 31.0949 127.272C31.0949 128.045 31.306 128.712 31.7282 129.274C32.0976 129.765 32.5725 130.011 33.153 130.011C33.7334 130.011 34.2084 129.73 34.5778 129.168C34.7361 128.958 34.8416 128.712 34.8944 128.431C34.9472 128.15 34.9735 127.799 34.9735 127.377V127.167H33.3904V127.904H34.3403C34.3403 128.326 34.2084 128.642 33.9445 128.852C33.7334 129.133 33.4696 129.274 33.153 129.274C32.8363 129.274 32.5197 129.098 32.2031 128.747C31.8865 128.396 31.7282 127.904 31.7282 127.272C31.7282 126.71 31.8601 126.254 32.124 125.903C32.4406 125.481 32.8099 125.27 33.2321 125.27Z" fill="url(#paint2_linear_3_390)"/>
<path d="M41.8601 124.638V129.906H43.6015V129.168H42.4142V124.638H41.8601Z" fill="url(#paint3_linear_3_390)"/>
<path d="M49.459 124.638V129.906H50.0131V124.638H49.459Z" fill="url(#paint4_linear_3_390)"/>
<path d="M59.7492 130.222V124.638H59.116V128.326L56.2664 124.322V129.906H56.8205V126.219L59.7492 130.222Z" fill="url(#paint5_linear_3_390)"/>
<path d="M68.1397 125.376V124.638H65.9234V129.906H68.1397V129.168H66.5566V127.377H68.0606V126.64H66.5566V125.376H68.1397Z" fill="url(#paint6_linear_3_390)"/>
<path d="M81.6754 129.906V124.638H81.1213V126.745H79.3799V124.638H78.7466V129.906H79.3799V127.483H81.1213V129.906H81.6754Z" fill="url(#paint7_linear_3_390)"/>
<path d="M90.0659 125.376V124.638H87.9287V129.906H90.0659V129.168H88.4828V127.377H90.0659V126.64H88.4828V125.376H90.0659Z" fill="url(#paint8_linear_3_390)"/>
<path fill-rule="evenodd" clip-rule="evenodd" d="M98.1397 127.167C97.9814 127.448 97.7703 127.623 97.5065 127.693L98.6938 129.906H97.9814L96.8732 127.799H96.7149V129.906H96.1608V124.638H96.7941C97.3218 124.638 97.7176 124.779 97.9814 125.06C98.2453 125.341 98.3772 125.727 98.3772 126.219C98.3772 126.57 98.298 126.886 98.1397 127.167ZM97.7439 126.219C97.7439 125.657 97.4801 125.376 96.9524 125.376H96.7149V127.061H96.9524C97.4801 127.061 97.7439 126.78 97.7439 126.219Z" fill="url(#paint9_linear_3_390)"/>
<path d="M104.551 129.906H106.768V129.168H105.185V127.377H106.689V126.64H105.185V125.376H106.768V124.638H104.551V129.906Z" fill="url(#paint10_linear_3_390)"/>
<path d="M9.7229 115.157C9.56458 115.508 9.35346 115.824 9.08961 116.105C8.82576 116.386 8.50918 116.597 8.13978 116.737C7.77039 116.878 7.37461 116.948 6.95245 116.948C6.37197 116.948 5.87063 116.807 5.44847 116.527C4.97354 116.246 4.57776 115.824 4.26114 115.262C3.89174 114.771 3.62789 114.174 3.46958 113.471C3.31127 112.769 3.23212 111.997 3.23212 111.154C3.23212 110.17 3.31127 109.293 3.46958 108.52C3.62789 107.747 3.86538 107.115 4.182 106.624C4.49862 106.062 4.86799 105.676 5.29015 105.465C5.76508 105.184 6.24001 105.044 6.71494 105.044C7.18988 105.044 7.58565 105.149 7.90228 105.36C8.27167 105.641 8.56194 105.992 8.77302 106.413C9.03687 106.764 9.24794 107.221 9.40625 107.783C9.56456 108.274 9.69649 108.766 9.80203 109.257H10.4353L10.3561 104.517H9.7229L9.40625 105.149C8.98409 104.868 8.56195 104.657 8.13978 104.517C7.66485 104.306 7.16351 104.201 6.63581 104.201C5.89702 104.201 5.21102 104.376 4.57778 104.727C3.89176 105.079 3.31128 105.57 2.83634 106.202C2.36141 106.764 1.992 107.502 1.72815 108.415C1.46429 109.257 1.33237 110.206 1.33237 111.259C1.33237 112.313 1.46429 113.261 1.72815 114.103C1.992 114.946 2.36141 115.649 2.83634 116.21C3.31128 116.772 3.86535 117.229 4.49859 117.58C5.07907 117.861 5.71233 118.001 6.39835 118.001C7.40099 118.001 8.27169 117.72 9.01048 117.159C9.74926 116.597 10.3561 115.684 10.831 114.42L10.2769 114.103C10.1186 114.455 9.93398 114.806 9.7229 115.157Z" fill="url(#paint11_linear_3_390)"/>
<path fill-rule="evenodd" clip-rule="evenodd" d="M27.2163 116.21C26.7413 116.772 26.1609 117.229 25.4748 117.58C24.8416 117.861 24.1556 118.001 23.4168 118.001C22.678 118.001 21.9656 117.826 21.2796 117.475C20.6464 117.194 20.0923 116.737 19.6173 116.105C19.1424 115.473 18.773 114.736 18.5092 113.893C18.2453 113.05 18.1134 112.137 18.1134 111.154C18.1134 110.1 18.2453 109.152 18.5092 108.309C18.8258 107.467 19.2216 106.729 19.6965 106.097C20.1714 105.465 20.7519 105.008 21.4379 104.727C22.0712 104.376 22.7308 104.201 23.4168 104.201C24.1556 104.201 24.868 104.376 25.554 104.727C26.1873 105.008 26.7413 105.465 27.2163 106.097C27.744 106.729 28.1398 107.467 28.4036 108.309C28.6675 109.152 28.7994 110.1 28.7994 111.154C28.7994 112.207 28.6675 113.155 28.4036 113.998C28.087 114.841 27.6912 115.578 27.2163 116.21ZM26.8996 111.154C26.8996 110.241 26.8205 109.398 26.6622 108.625C26.5039 107.853 26.2928 107.221 26.0289 106.729C25.7651 106.167 25.3957 105.746 24.9207 105.465C24.4986 105.184 23.9973 105.044 23.4168 105.044C22.8363 105.044 22.3086 105.219 21.8337 105.57C21.4115 105.921 21.0685 106.378 20.8047 106.94C20.5408 107.431 20.3297 108.064 20.1714 108.836C20.0659 109.538 20.0131 110.311 20.0131 111.154C20.0131 112.067 20.0659 112.874 20.1714 113.577C20.3297 114.279 20.5672 114.911 20.8838 115.473C21.1477 116.035 21.4907 116.456 21.9128 116.737C22.335 117.018 22.8363 117.159 23.4168 117.159C23.9973 117.159 24.525 117.018 24.9999 116.737C25.4221 116.456 25.7915 116.035 26.1081 115.473C26.3719 114.911 26.583 114.244 26.7414 113.471C26.8469 112.769 26.8996 111.997 26.8996 111.154Z" fill="url(#paint12_linear_3_390)"/>
<path d="M37.9814 115.789C37.9287 116.14 37.7967 116.421 37.5857 116.632C37.4273 116.772 37.2163 116.878 36.9524 116.948C36.7413 117.018 36.5039 117.053 36.2401 117.053V117.685H40.7519V117.053C40.6463 117.053 40.4089 116.983 40.0395 116.843C39.6701 116.772 39.4326 116.667 39.3271 116.527C39.1688 116.316 39.0369 116.035 38.9313 115.684C38.8785 115.262 38.8522 114.665 38.8522 113.893V105.992H38.9313L42.5725 117.475H42.9683L46.7677 106.308H46.8469V115.894C46.8469 116.105 46.8205 116.281 46.7677 116.421C46.6622 116.562 46.5303 116.702 46.372 116.843C46.2664 116.913 46.0817 116.948 45.8179 116.948C45.554 117.018 45.3165 117.053 45.1054 117.053V117.685H50.0923V117.053C49.934 117.053 49.7229 117.018 49.459 116.948C49.2479 116.878 49.0896 116.843 48.9841 116.843C48.8258 116.702 48.6939 116.562 48.5883 116.421C48.5355 116.281 48.5092 116.105 48.5092 115.894V106.308C48.5092 106.097 48.5355 105.921 48.5883 105.781C48.6939 105.57 48.8258 105.43 48.9841 105.36C49.0896 105.36 49.2479 105.324 49.459 105.254C49.7229 105.184 49.9076 105.149 50.0131 105.149V104.517H46.372C46.372 104.657 46.3456 104.868 46.2928 105.149C46.24 105.5 46.1609 105.816 46.0553 106.097L43.2849 114.42L40.1186 104.517H36.3192V105.149C36.5303 105.149 36.7678 105.219 37.0316 105.36C37.2427 105.43 37.4273 105.535 37.5857 105.676C37.744 105.816 37.8759 106.027 37.9814 106.308C38.0342 106.518 38.0606 106.834 38.0606 107.256V113.998C38.0606 114.841 38.0342 115.438 37.9814 115.789Z" fill="url(#paint13_linear_3_390)"/>
<path fill-rule="evenodd" clip-rule="evenodd" d="M65.211 110.943C64.8416 111.294 64.4194 111.54 63.9445 111.68C63.4696 111.821 62.9682 111.891 62.4405 111.891H61.1741V115.894C61.1741 116.105 61.2004 116.316 61.2532 116.527C61.306 116.667 61.4379 116.772 61.649 116.843C61.7017 116.913 61.86 116.948 62.1239 116.948C62.335 117.018 62.5461 117.053 62.7572 117.053V117.685H58.0078V117.053C58.1134 117.053 58.298 117.018 58.5619 116.948C58.773 116.948 58.9313 116.913 59.0368 116.843C59.1952 116.772 59.3007 116.667 59.3534 116.527C59.459 116.386 59.5118 116.175 59.5118 115.894V106.413C59.5118 106.202 59.4854 105.992 59.4326 105.781C59.3799 105.64 59.2479 105.535 59.0368 105.465C58.8258 105.324 58.6147 105.254 58.4036 105.254C58.2453 105.184 58.087 105.149 57.9286 105.149V104.517H62.9946C64.05 104.517 64.8944 104.798 65.5276 105.36C66.1609 105.992 66.4775 106.799 66.4775 107.783C66.4775 108.485 66.3719 109.082 66.1609 109.574C65.9498 110.135 65.6331 110.592 65.211 110.943ZM64.5777 108.204C64.5777 107.853 64.5513 107.502 64.4986 107.151C64.393 106.799 64.2611 106.483 64.1028 106.202C63.8917 105.921 63.6543 105.711 63.3904 105.57C63.0738 105.36 62.7044 105.254 62.2822 105.254H61.1741V111.154H61.9656C62.5461 111.154 62.9946 111.048 63.3112 110.838C63.6806 110.627 63.9445 110.346 64.1028 109.995C64.3139 109.714 64.4458 109.433 64.4986 109.152C64.5513 108.801 64.5777 108.485 64.5777 108.204Z" fill="url(#paint14_linear_3_390)"/>
<path fill-rule="evenodd" clip-rule="evenodd" d="M84.6041 117.685H80.0131V117.053C80.3825 117.053 80.7255 116.983 81.0421 116.843C81.306 116.772 81.4379 116.667 81.4379 116.527C81.4379 116.456 81.4115 116.386 81.3588 116.316C81.3588 116.246 81.3588 116.175 81.3588 116.105L80.4089 113.155H76.5302C76.3719 113.577 76.24 113.963 76.1345 114.314C76.0289 114.595 75.9498 114.876 75.897 115.157C75.8442 115.438 75.7915 115.649 75.7387 115.789C75.7387 116 75.7387 116.14 75.7387 116.21C75.7387 116.491 75.897 116.702 76.2136 116.843C76.5303 116.983 76.8996 117.053 77.3218 117.053V117.685H73.1266V117.053C73.2849 117.053 73.4696 117.018 73.6807 116.948C73.839 116.878 73.9973 116.807 74.1556 116.737C74.3667 116.527 74.525 116.351 74.6305 116.21C74.7361 116 74.8416 115.754 74.9471 115.473C75.5276 113.787 76.1609 111.926 76.8469 109.89C77.5329 107.783 78.1397 105.921 78.6675 104.306H79.3007L82.9419 115.684C83.0474 115.965 83.1529 116.175 83.2585 116.316C83.364 116.456 83.4959 116.597 83.6542 116.737C83.7598 116.807 83.9181 116.878 84.1292 116.948C84.3403 117.018 84.4986 117.053 84.6041 117.053V117.685ZM80.1714 112.313L78.43 107.151L76.7677 112.313H80.1714Z" fill="url(#paint15_linear_3_390)"/>
<path d="M101.068 117.896V108.204C101.068 107.502 101.095 106.94 101.148 106.518C101.253 106.097 101.385 105.781 101.543 105.57C101.702 105.5 101.913 105.43 102.177 105.36C102.493 105.219 102.731 105.149 102.889 105.149V104.517H98.3772V105.149C98.5355 105.149 98.773 105.219 99.0896 105.36C99.459 105.5 99.6965 105.605 99.802 105.676C99.9603 105.816 100.092 106.097 100.198 106.518C100.303 106.94 100.356 107.537 100.356 108.309V114.63L94.0236 104.517H90.8574V105.149C91.0685 105.149 91.3324 105.254 91.649 105.465C91.9656 105.605 92.2295 105.781 92.4405 105.992C92.5461 106.132 92.6516 106.343 92.7571 106.624C92.8627 106.905 92.9154 107.186 92.9154 107.467V113.998C92.9154 114.841 92.8627 115.438 92.7571 115.789C92.7044 116.14 92.5988 116.421 92.4405 116.632C92.335 116.702 92.1239 116.772 91.8073 116.843C91.4379 116.983 91.2004 117.053 91.0949 117.053V117.685H95.6068V117.053C95.5012 117.053 95.2637 116.983 94.8943 116.843C94.5249 116.772 94.2611 116.667 94.1028 116.527C93.9445 116.316 93.8389 116 93.7861 115.578C93.6806 115.227 93.6279 114.665 93.6279 113.893V107.045L100.435 117.896H101.068Z" fill="url(#paint16_linear_3_390)"/>
<path d="M115.871 104.517V105.149C116.029 105.219 116.214 105.254 116.425 105.254C116.583 105.254 116.741 105.289 116.9 105.36C117.058 105.36 117.164 105.43 117.216 105.57C117.322 105.641 117.375 105.746 117.375 105.886C117.375 106.027 117.163 106.554 116.741 107.467C116.319 108.309 115.686 109.538 114.842 111.154C114.419 110.241 114.076 109.503 113.813 108.941C113.602 108.45 113.364 107.923 113.1 107.361C112.995 107.15 112.915 106.94 112.863 106.729C112.757 106.518 112.652 106.343 112.546 106.202C112.493 106.062 112.467 105.921 112.467 105.781C112.414 105.711 112.388 105.676 112.388 105.676C112.388 105.535 112.493 105.43 112.704 105.36C112.968 105.219 113.364 105.149 113.892 105.149V104.517H109.142V105.149C109.248 105.149 109.406 105.184 109.617 105.254C109.776 105.324 109.908 105.395 110.013 105.465C110.224 105.605 110.383 105.781 110.488 105.992C110.646 106.132 110.805 106.378 110.963 106.729C111.227 107.361 111.543 108.099 111.913 108.941C112.335 109.784 112.704 110.557 113.021 111.259C113.127 111.54 113.232 111.821 113.338 112.102C113.443 112.383 113.496 112.558 113.496 112.629V115.894C113.496 116.105 113.47 116.281 113.417 116.421C113.364 116.632 113.232 116.772 113.021 116.843C112.916 116.913 112.704 116.948 112.388 116.948C112.124 117.018 111.913 117.053 111.755 117.053V117.685H116.979V117.053C116.768 117.053 116.53 117.018 116.266 116.948C116.003 116.878 115.818 116.807 115.712 116.737C115.501 116.667 115.369 116.527 115.317 116.316C115.211 116.175 115.158 116 115.158 115.789V113.261C115.158 112.769 115.211 112.418 115.317 112.207C115.369 111.997 115.475 111.68 115.633 111.259C116.161 110.206 116.609 109.328 116.979 108.625C117.295 107.923 117.665 107.221 118.087 106.518C118.298 106.167 118.43 105.957 118.483 105.886C118.588 105.816 118.747 105.711 118.958 105.57C119.01 105.5 119.142 105.395 119.353 105.254C119.565 105.184 119.697 105.149 119.749 105.149V104.517H115.871Z" fill="url(#paint17_linear_3_390)"/>
<path fill-rule="evenodd" clip-rule="evenodd" d="M98.9313 60.2704L78.9049 90.2948L60.5408 62.6934L42.1767 90.2948L20.8838 58.3742L0.540833 27.8231H37.2691L18.905 0.221817H102.177L83.8126 27.8231H120.541L98.9313 60.2704ZM28.562 6.12131L42.1767 26.4536L55.7123 6.12131H28.562ZM83.7335 33.6173L97.3482 54.0549L110.884 33.6173H83.7335ZM28.6411 55.4244H55.7123L42.1767 35.1975L28.6411 55.4244ZM60.5408 53.9495L74.1556 33.6173H47.0052L60.5408 53.9495ZM65.3693 55.3191H92.4406L78.9049 35.0921L65.3693 55.3191ZM74.0765 27.7177L60.5408 7.3855L47.0052 27.7177H74.0765ZM92.5197 5.91063H65.3693L78.9049 26.2429L92.5197 5.91063ZM10.1978 33.5119L23.8126 53.9495L37.3482 33.5119H10.1978ZM28.6411 61.1132L42.1767 81.5508L55.7915 61.1132H28.6411ZM65.4485 61.1132L78.9841 81.5508L92.5988 61.1132H65.4485Z" fill="url(#paint18_linear_3_390)"/>
<defs>
<linearGradient id="paint0_linear_3_390" x1="12.335" y1="137.491" x2="12.335" y2="-90.6939" gradientUnits="userSpaceOnUse">
<stop/>
<stop offset="0.328"/>
<stop offset="0.524"/>
<stop offset="0.73"/>
<stop offset="1"/>
</linearGradient>
<linearGradient id="paint1_linear_3_390" x1="21.5171" y1="145.181" x2="21.5171" y2="-23.0599" gradientUnits="userSpaceOnUse">
<stop/>
<stop offset="0.328"/>
<stop offset="0.524"/>
<stop offset="0.73"/>
<stop offset="1"/>
</linearGradient>
<linearGradient id="paint2_linear_3_390" x1="30.8575" y1="156.664" x2="30.8575" y2="4.43619" gradientUnits="userSpaceOnUse">
<stop/>
<stop offset="0.328"/>
<stop offset="0.524"/>
<stop offset="0.73"/>
<stop offset="1"/>
</linearGradient>
<linearGradient id="paint3_linear_3_390" x1="38.2981" y1="217.556" x2="38.2981" y2="-98.5951" gradientUnits="userSpaceOnUse">
<stop/>
<stop offset="0.328"/>
<stop offset="0.524"/>
<stop offset="0.73"/>
<stop offset="1"/>
</linearGradient>
<linearGradient id="paint4_linear_3_390" x1="36.5564" y1="248.423" x2="36.5564" y2="-97.2255" gradientUnits="userSpaceOnUse">
<stop/>
<stop offset="0.328"/>
<stop offset="0.524"/>
<stop offset="0.73"/>
<stop offset="1"/>
</linearGradient>
<linearGradient id="paint5_linear_3_390" x1="55.0791" y1="189.638" x2="55.0791" y2="41.729" gradientUnits="userSpaceOnUse">
<stop/>
<stop offset="0.328"/>
<stop offset="0.524"/>
<stop offset="0.73"/>
<stop offset="1"/>
</linearGradient>
<linearGradient id="paint6_linear_3_390" x1="63.4696" y1="218.293" x2="63.4696" y2="36.3563" gradientUnits="userSpaceOnUse">
<stop/>
<stop offset="0.328"/>
<stop offset="0.524"/>
<stop offset="0.73"/>
<stop offset="1"/>
</linearGradient>
<linearGradient id="paint7_linear_3_390" x1="77.5592" y1="217.24" x2="77.5592" y2="67.4341" gradientUnits="userSpaceOnUse">
<stop/>
<stop offset="0.328"/>
<stop offset="0.524"/>
<stop offset="0.73"/>
<stop offset="1"/>
</linearGradient>
<linearGradient id="paint8_linear_3_390" x1="85.3957" y1="250.214" x2="85.3957" y2="68.3823" gradientUnits="userSpaceOnUse">
<stop/>
<stop offset="0.328"/>
<stop offset="0.524"/>
<stop offset="0.73"/>
<stop offset="1"/>
</linearGradient>
<linearGradient id="paint9_linear_3_390" x1="94.3402" y1="274.022" x2="94.3402" y2="77.3369" gradientUnits="userSpaceOnUse">
<stop/>
<stop offset="0.328"/>
<stop offset="0.524"/>
<stop offset="0.73"/>
<stop offset="1"/>
</linearGradient>
<linearGradient id="paint10_linear_3_390" x1="102.018" y1="276.445" x2="102.018" y2="94.5087" gradientUnits="userSpaceOnUse">
<stop/>
<stop offset="0.328"/>
<stop offset="0.524"/>
<stop offset="0.73"/>
<stop offset="1"/>
</linearGradient>
<linearGradient id="paint11_linear_3_390" x1="0.3825" y1="110.1" x2="0.3825" y2="-38.3358" gradientUnits="userSpaceOnUse">
<stop/>
<stop offset="0.328"/>
<stop offset="0.524"/>
<stop offset="0.73"/>
<stop offset="1"/>
</linearGradient>
<linearGradient id="paint12_linear_3_390" x1="18.43" y1="131.17" x2="18.43" y2="-11.6826" gradientUnits="userSpaceOnUse">
<stop/>
<stop offset="0.328"/>
<stop offset="0.524"/>
<stop offset="0.73"/>
<stop offset="1"/>
</linearGradient>
<linearGradient id="paint13_linear_3_390" x1="39.5646" y1="139.492" x2="39.5646" y2="48.1554" gradientUnits="userSpaceOnUse">
<stop/>
<stop offset="0.328"/>
<stop offset="0.524"/>
<stop offset="0.73"/>
<stop offset="1"/>
</linearGradient>
<linearGradient id="paint14_linear_3_390" x1="56.5038" y1="177.839" x2="56.5038" y2="36.7777" gradientUnits="userSpaceOnUse">
<stop/>
<stop offset="0.328"/>
<stop offset="0.524"/>
<stop offset="0.73"/>
<stop offset="1"/>
</linearGradient>
<linearGradient id="paint15_linear_3_390" x1="74.4722" y1="191.851" x2="74.4722" y2="58.7955" gradientUnits="userSpaceOnUse">
<stop/>
<stop offset="0.328"/>
<stop offset="0.524"/>
<stop offset="0.73"/>
<stop offset="1"/>
</linearGradient>
<linearGradient id="paint16_linear_3_390" x1="92.678" y1="192.272" x2="92.678" y2="87.7664" gradientUnits="userSpaceOnUse">
<stop/>
<stop offset="0.328"/>
<stop offset="0.524"/>
<stop offset="0.73"/>
<stop offset="1"/>
</linearGradient>
<linearGradient id="paint17_linear_3_390" x1="109.855" y1="241.997" x2="109.855" y2="102.515" gradientUnits="userSpaceOnUse">
<stop/>
<stop offset="0.328"/>
<stop offset="0.524"/>
<stop offset="0.73"/>
<stop offset="1"/>
</linearGradient>
<linearGradient id="paint18_linear_3_390" x1="0.540833" y1="0.221817" x2="120.541" y2="0.221817" gradientUnits="userSpaceOnUse">
<stop/>
<stop offset="0.328"/>
<stop offset="0.524"/>
<stop offset="0.73"/>
<stop offset="1"/>
</linearGradient>
</defs>
</svg>
