<svg width="121" height="131" viewBox="0 0 121 131" fill="none" xmlns="http://www.w3.org/2000/svg">
<path d="M2.05689 119.814C2.43374 120.069 2.83751 120.273 3.26819 120.426C3.69888 120.528 4.12954 120.579 4.56023 120.579C5.09859 120.579 5.5831 120.477 6.01379 120.273C6.44447 120.069 6.82134 119.814 7.14436 119.507C7.46737 119.201 7.73655 118.818 7.95189 118.359C8.1134 117.951 8.19415 117.517 8.19415 117.058V116.139H5.93305V116.904C5.93305 117.16 5.87921 117.389 5.77154 117.593C5.7177 117.798 5.61001 117.951 5.4485 118.053C5.28699 118.206 5.12551 118.308 4.964 118.359C4.80249 118.41 4.641 118.436 4.4795 118.436C3.94114 118.436 3.59117 118.282 3.42966 117.976C3.21432 117.67 3.10667 117.287 3.10667 116.828V109.095C3.10667 108.585 3.18742 108.176 3.34893 107.87C3.56427 107.513 3.94114 107.334 4.4795 107.334C4.91018 107.334 5.26011 107.487 5.52928 107.794C5.79846 108.151 5.93305 108.534 5.93305 108.942V109.631H8.19415V108.789C8.19415 108.279 8.1134 107.794 7.95189 107.334C7.73655 106.875 7.46737 106.492 7.14436 106.186C6.49833 105.522 5.63695 105.191 4.56023 105.191C3.96804 105.191 3.45658 105.293 3.02589 105.497C2.5952 105.65 2.19144 105.88 1.81459 106.186C1.49157 106.492 1.24934 106.875 1.08783 107.334C0.926325 107.743 0.845581 108.202 0.845581 108.712V116.981C0.845581 117.696 0.953223 118.282 1.16857 118.742C1.38391 119.15 1.68004 119.507 2.05689 119.814Z" fill="url(#paint0_linear_3_142)"/>
<path fill-rule="evenodd" clip-rule="evenodd" d="M19.2574 118.512C19.0421 118.053 18.9344 117.517 18.9344 116.904V108.866C18.9344 108.253 19.0421 107.717 19.2574 107.258C19.4728 106.798 19.7688 106.416 20.1457 106.109C20.4687 105.803 20.8725 105.573 21.357 105.42C21.7877 105.267 22.2453 105.191 22.7298 105.191C23.2143 105.191 23.672 105.267 24.1026 105.42C24.5333 105.573 24.9371 105.803 25.3139 106.109C25.6908 106.416 25.9869 106.798 26.2022 107.258C26.4176 107.717 26.5253 108.253 26.5253 108.866V116.904C26.5253 117.517 26.4176 118.053 26.2022 118.512C25.9869 118.972 25.6908 119.354 25.3139 119.661C24.9371 119.967 24.5333 120.196 24.1026 120.35C23.672 120.503 23.2143 120.579 22.7298 120.579C22.2453 120.579 21.7877 120.503 21.357 120.35C20.8725 120.196 20.4687 119.967 20.1457 119.661C19.7688 119.354 19.4728 118.972 19.2574 118.512ZM21.1955 116.904C21.1955 117.415 21.357 117.798 21.68 118.053C21.9492 118.308 22.2991 118.436 22.7298 118.436C23.1605 118.436 23.5104 118.308 23.7796 118.053C24.1026 117.798 24.2642 117.415 24.2642 116.904V108.866C24.2642 108.355 24.1026 107.972 23.7796 107.717C23.5104 107.462 23.1605 107.334 22.7298 107.334C22.2991 107.334 21.9492 107.462 21.68 107.717C21.357 107.972 21.1955 108.355 21.1955 108.866V116.904Z" fill="url(#paint1_linear_3_142)"/>
<path d="M42.676 113.306L39.6881 105.344H37.5078V120.426H39.8496V111.239L42.1107 117.747H43.2413L45.5024 111.239H45.5831V120.426H47.8442V105.344H45.5831L42.676 113.306Z" fill="url(#paint2_linear_3_142)"/>
<path fill-rule="evenodd" clip-rule="evenodd" d="M66.1753 107.794C66.283 108.304 66.3368 109.019 66.3368 109.937C66.3368 110.601 66.3099 111.162 66.2561 111.622C66.1484 112.132 65.96 112.591 65.6908 113C65.3678 113.459 64.964 113.842 64.4795 114.148C63.9411 114.403 63.2412 114.531 62.3799 114.531H61.2493V120.426H58.9075V105.344H62.3799C63.0259 105.344 63.5643 105.42 63.9949 105.573C64.4795 105.727 64.9371 106.007 65.3678 106.416C65.7446 106.773 66.0138 107.232 66.1753 107.794ZM64.2372 109.937C64.2372 109.58 64.2103 109.248 64.1565 108.942C64.1565 108.636 64.1026 108.355 63.9949 108.1C63.8873 107.845 63.6989 107.666 63.4297 107.564C63.2144 107.411 62.8644 107.334 62.3799 107.334H61.2493V112.464H62.2991C62.7837 112.464 63.1605 112.413 63.4297 112.311C63.645 112.158 63.8334 111.979 63.9949 111.775C64.1026 111.571 64.1565 111.315 64.1565 111.009C64.2103 110.703 64.2372 110.346 64.2372 109.937Z" fill="url(#paint3_linear_3_142)"/>
<path fill-rule="evenodd" clip-rule="evenodd" d="M80.6302 105.344L84.1834 120.426H81.9223L81.1955 117.211H78.1269L77.4808 120.426H75.139L78.6921 105.344H80.6302ZM80.8725 115.144L79.7419 109.708H79.6612L78.5306 115.144H80.8725Z" fill="url(#paint4_linear_3_142)"/>
<path d="M94.1968 120.426H96.4579V111.315H96.5387L100.011 120.426H102.191V105.344H99.8496V114.454L96.3772 105.344H94.1968V120.426Z" fill="url(#paint5_linear_3_142)"/>
<path d="M115.274 120.426H117.615V114.072L120.684 105.344H118.342L116.485 111.315H116.404L114.547 105.344H112.205L115.274 114.072V120.426Z" fill="url(#paint6_linear_3_142)"/>
<path d="M2.70291 130.532V126.704H3.99495V126.168H0.764801V126.704H2.05689V130.532H2.70291Z" fill="url(#paint7_linear_3_142)"/>
<path fill-rule="evenodd" clip-rule="evenodd" d="M11.4243 130.532H10.6168L10.2937 129.537H8.51718L8.19415 130.532H7.46735L9.08242 126.168H9.72849L11.4243 130.532ZM10.1323 128.924L9.40545 127.01L8.75943 128.924H10.1323Z" fill="url(#paint8_linear_3_142)"/>
<path d="M15.6235 129.613C15.6235 129.665 15.6504 129.716 15.7042 129.767C15.8119 129.971 16.0003 130.149 16.2695 130.303C16.4849 130.456 16.7809 130.532 17.1578 130.532C17.6423 130.532 18.0461 130.379 18.3691 130.073C18.6383 129.818 18.7998 129.46 18.8537 129.001V128.082H17.1578V128.771H18.1269V129.001C18.1269 129.256 18.0192 129.46 17.8039 129.613C17.6424 129.818 17.427 129.92 17.1578 129.92C16.9963 129.92 16.8617 129.869 16.754 129.767C16.6464 129.716 16.5387 129.665 16.431 129.613C16.3772 129.511 16.3234 129.384 16.2695 129.231C16.2157 129.078 16.1888 128.771 16.1888 128.312C16.1888 127.904 16.2157 127.623 16.2695 127.47C16.3234 127.317 16.3772 127.189 16.431 127.087C16.5387 126.985 16.6464 126.908 16.754 126.857C16.8617 126.806 16.9963 126.781 17.1578 126.781C17.3731 126.781 17.5616 126.832 17.7231 126.934C17.8846 127.087 17.9923 127.24 18.0461 127.393H18.7729C18.719 127.036 18.5575 126.73 18.2884 126.474C17.9654 126.219 17.5885 126.092 17.1578 126.092C16.7809 126.092 16.4849 126.168 16.2695 126.321C16.0003 126.474 15.8119 126.653 15.7042 126.857C15.6504 127.01 15.5966 127.164 15.5427 127.317C15.5427 127.47 15.5427 127.802 15.5427 128.312C15.5427 128.822 15.5427 129.18 15.5427 129.384C15.5966 129.435 15.6235 129.511 15.6235 129.613Z" fill="url(#paint9_linear_3_142)"/>
<path d="M23.5374 126.168V130.532H26.5252V129.92H24.2642V126.168H23.5374Z" fill="url(#paint10_linear_3_142)"/>
<path d="M31.0474 126.168V130.532H31.7742V126.168H31.0474Z" fill="url(#paint11_linear_3_142)"/>
<path d="M36.6195 126.168V130.532H37.3462V127.393L39.4459 130.532H40.0919V126.168H39.3651V129.231L37.2655 126.168H36.6195Z" fill="url(#paint12_linear_3_142)"/>
<path d="M47.925 126.781V126.168H45.0178V130.532H47.925V129.92H45.6639V128.618H47.602V128.006H45.6639V126.781H47.925Z" fill="url(#paint13_linear_3_142)"/>
<path d="M58.0192 126.857C57.9654 127.01 57.9115 127.164 57.8577 127.317C57.8038 127.47 57.7769 127.802 57.7769 128.312C57.7769 128.822 57.8038 129.18 57.8577 129.384C57.8577 129.435 57.8846 129.511 57.9384 129.613C57.9384 129.665 57.9654 129.716 58.0192 129.767C58.1269 129.971 58.3153 130.149 58.5845 130.303C58.7998 130.456 59.0959 130.532 59.4728 130.532C59.9573 130.532 60.3341 130.379 60.6033 130.073C60.9263 129.818 61.0878 129.46 61.0878 129.001V128.082H59.4728V128.771H60.4418V129.001C60.4418 129.256 60.3341 129.46 60.1188 129.613C59.9573 129.818 59.7419 129.92 59.4728 129.92C59.3112 129.92 59.1767 129.869 59.069 129.767C58.9075 129.716 58.7998 129.665 58.746 129.613C58.6383 129.511 58.5845 129.384 58.5845 129.231C58.5306 129.078 58.5037 128.771 58.5037 128.312C58.5037 127.904 58.5306 127.623 58.5845 127.47C58.5845 127.317 58.6383 127.189 58.746 127.087C58.7998 126.985 58.9075 126.908 59.069 126.857C59.1767 126.806 59.3112 126.781 59.4728 126.781C59.6881 126.781 59.8765 126.832 60.038 126.934C60.1995 127.087 60.3072 127.24 60.361 127.393H61.0878C61.034 127.036 60.8456 126.73 60.5225 126.474C60.2534 126.219 59.9034 126.092 59.4728 126.092C59.0959 126.092 58.7998 126.168 58.5845 126.321C58.3153 126.474 58.1269 126.653 58.0192 126.857Z" fill="url(#paint14_linear_3_142)"/>
<path fill-rule="evenodd" clip-rule="evenodd" d="M66.4175 126.321C66.6867 126.168 66.9828 126.092 67.3058 126.092C67.6827 126.092 68.0057 126.168 68.2749 126.321C68.4902 126.474 68.6517 126.653 68.7594 126.857C68.8671 127.01 68.9209 127.164 68.9209 127.317C68.9747 127.47 69.0016 127.802 69.0016 128.312C69.0016 128.822 68.9747 129.18 68.9209 129.384C68.9209 129.537 68.8671 129.664 68.7594 129.767C68.6517 129.971 68.4902 130.149 68.2749 130.303C68.0057 130.456 67.6827 130.532 67.3058 130.532C66.9828 130.532 66.6867 130.456 66.4175 130.303C66.1483 130.149 65.96 129.971 65.8523 129.767C65.8523 129.716 65.8253 129.665 65.7715 129.613C65.7715 129.511 65.7446 129.435 65.6908 129.384C65.6908 129.18 65.6908 128.822 65.6908 128.312C65.6908 127.802 65.6908 127.47 65.6908 127.317C65.7446 127.164 65.7984 127.01 65.8523 126.857C65.96 126.653 66.1483 126.474 66.4175 126.321ZM66.4175 128.312C66.4175 128.771 66.4175 129.078 66.4175 129.231C66.4714 129.384 66.5252 129.511 66.579 129.613C66.6867 129.665 66.7944 129.716 66.9021 129.767C67.0097 129.869 67.1443 129.92 67.3058 129.92C67.4673 129.92 67.6288 129.869 67.7903 129.767C67.898 129.716 67.9788 129.665 68.0326 129.613C68.1403 129.511 68.1941 129.384 68.1941 129.231C68.2479 129.078 68.2749 128.771 68.2749 128.312C68.2749 127.904 68.2479 127.623 68.1941 127.47C68.1941 127.317 68.1403 127.189 68.0326 127.087C67.9788 126.985 67.898 126.908 67.7903 126.857C67.6288 126.806 67.4673 126.781 67.3058 126.781C67.1443 126.781 67.0097 126.806 66.9021 126.857C66.7944 126.908 66.6867 126.985 66.579 127.087C66.5252 127.189 66.4714 127.317 66.4175 127.47C66.4175 127.623 66.4175 127.904 66.4175 128.312Z" fill="url(#paint15_linear_3_142)"/>
<path d="M73.6854 130.532H76.6733V129.92H74.4122V128.618H76.3503V128.006H74.4122V126.781H76.6733V126.168H73.6854V130.532Z" fill="url(#paint16_linear_3_142)"/>
<path d="M82.5683 129.92C82.0838 129.92 81.6531 129.767 81.2763 129.46L80.7917 129.996C81.3301 130.354 81.9223 130.532 82.5683 130.532C83.645 130.532 84.1834 130.124 84.1834 129.307C84.1834 129.001 84.1026 128.72 83.9411 128.465C83.7258 128.21 83.4027 128.057 82.9721 128.006C82.7567 128.006 82.5683 127.98 82.4068 127.929C82.1915 127.929 82.0299 127.878 81.9223 127.776C81.8146 127.674 81.7608 127.546 81.7608 127.393C81.7608 127.189 81.8415 127.036 82.0031 126.934C82.1646 126.832 82.3529 126.781 82.5683 126.781C82.9451 126.781 83.322 126.883 83.6989 127.087L84.1026 126.551C83.6719 126.245 83.1605 126.092 82.5683 126.092C82.0838 126.092 81.7069 126.219 81.4378 126.474C81.1686 126.679 81.034 126.985 81.034 127.393C81.034 127.699 81.1416 127.955 81.357 128.159C81.5723 128.414 81.8954 128.567 82.326 128.618C82.5414 128.669 82.7298 128.695 82.8913 128.695C83.322 128.746 83.5373 128.95 83.5373 129.307C83.5373 129.716 83.2143 129.92 82.5683 129.92Z" fill="url(#paint17_linear_3_142)"/>
<path d="M94.3583 126.168V130.532H95.0044V128.618H96.8617V130.532H97.5885V126.168H96.8617V128.006H95.0044V126.168H94.3583Z" fill="url(#paint18_linear_3_142)"/>
<path d="M105.422 129.92H103.16V128.618H105.099V128.006H103.16V126.781H105.422V126.168H102.434V130.532H105.422V129.92Z" fill="url(#paint19_linear_3_142)"/>
<path fill-rule="evenodd" clip-rule="evenodd" d="M110.671 130.532H109.944V126.168H111.801C112.178 126.168 112.474 126.245 112.689 126.398C113.012 126.653 113.174 126.985 113.174 127.393C113.174 127.955 112.878 128.337 112.286 128.542L113.335 130.532H112.528L111.559 128.618H110.671V130.532ZM110.671 128.082H111.72C111.99 128.082 112.178 128.006 112.286 127.853C112.447 127.75 112.528 127.597 112.528 127.393C112.528 127.189 112.447 127.036 112.286 126.934C112.178 126.832 111.99 126.781 111.72 126.781H110.671V128.082Z" fill="url(#paint20_linear_3_142)"/>
<path d="M120.765 126.781V126.168H117.858V130.532H120.765V129.92H118.504V128.618H120.442V128.006H118.504V126.781H120.765Z" fill="url(#paint21_linear_3_142)"/>
<path d="M80.4687 51.8278V66.5275H41.3032C40.2803 66.5275 39.2843 66.4254 38.3153 66.2212C38.2076 66.2212 38.073 66.1957 37.9115 66.1447C35.7312 65.6853 33.7123 64.8431 32.0165 63.6182C27.9788 60.862 25.3947 56.4215 25.3947 51.445V0.532166C33.3085 4.81956 38.3153 12.7819 38.3153 21.5863V45.6264C38.3153 50.3732 42.4337 54.2778 47.4404 54.2778H74.0891C76.5925 54.2778 78.8536 53.359 80.4687 51.8278Z" fill="url(#paint22_linear_3_142)"/>
<path d="M96.1349 0.532166V28.9362C93.3086 25.0316 88.9479 22.1989 83.8604 21.2801C83.645 21.2291 83.4297 21.2035 83.2144 21.2035C83.3759 12.5522 88.3826 4.743 96.1349 0.532166Z" fill="url(#paint23_linear_3_142)"/>
<path d="M96.1349 39.1953V90.0316C88.2211 85.8208 83.2143 77.7819 83.2143 69.054V44.9374C83.2143 40.1906 79.0959 36.3626 74.0891 36.3626H47.4404C44.9371 36.3626 42.676 37.2813 41.0609 38.8125V24.1129H80.2264C81.2493 24.1129 82.2453 24.1895 83.2143 24.3426C90.5629 25.7207 96.1349 31.8455 96.1349 39.1953Z" fill="url(#paint24_linear_3_142)"/>
<path d="M38.3153 69.4368C38.1538 78.0116 33.147 85.8973 25.3947 90.0316V61.6276C26.6867 63.3885 28.2211 64.9197 29.9977 66.1447C32.178 67.6759 34.6006 68.6712 37.1848 69.2071L37.2655 69.2836C37.427 69.2836 37.5616 69.3092 37.6693 69.3602C37.8846 69.3602 38.0999 69.3857 38.3153 69.4368Z" fill="url(#paint25_linear_3_142)"/>
<defs>
<linearGradient id="paint0_linear_3_142" x1="0.845581" y1="105.191" x2="8.19415" y2="105.191" gradientUnits="userSpaceOnUse">
<stop/>
<stop offset="0.328"/>
<stop offset="0.524"/>
<stop offset="0.73"/>
<stop offset="1"/>
</linearGradient>
<linearGradient id="paint1_linear_3_142" x1="18.9344" y1="105.191" x2="26.5253" y2="105.191" gradientUnits="userSpaceOnUse">
<stop/>
<stop offset="0.328"/>
<stop offset="0.524"/>
<stop offset="0.73"/>
<stop offset="1"/>
</linearGradient>
<linearGradient id="paint2_linear_3_142" x1="37.5078" y1="105.344" x2="47.8442" y2="105.344" gradientUnits="userSpaceOnUse">
<stop/>
<stop offset="0.328"/>
<stop offset="0.524"/>
<stop offset="0.73"/>
<stop offset="1"/>
</linearGradient>
<linearGradient id="paint3_linear_3_142" x1="58.9075" y1="105.344" x2="66.3368" y2="105.344" gradientUnits="userSpaceOnUse">
<stop/>
<stop offset="0.328"/>
<stop offset="0.524"/>
<stop offset="0.73"/>
<stop offset="1"/>
</linearGradient>
<linearGradient id="paint4_linear_3_142" x1="75.139" y1="105.344" x2="84.1834" y2="105.344" gradientUnits="userSpaceOnUse">
<stop/>
<stop offset="0.328"/>
<stop offset="0.524"/>
<stop offset="0.73"/>
<stop offset="1"/>
</linearGradient>
<linearGradient id="paint5_linear_3_142" x1="94.1968" y1="105.344" x2="102.191" y2="105.344" gradientUnits="userSpaceOnUse">
<stop/>
<stop offset="0.328"/>
<stop offset="0.524"/>
<stop offset="0.73"/>
<stop offset="1"/>
</linearGradient>
<linearGradient id="paint6_linear_3_142" x1="112.205" y1="105.344" x2="120.684" y2="105.344" gradientUnits="userSpaceOnUse">
<stop/>
<stop offset="0.328"/>
<stop offset="0.524"/>
<stop offset="0.73"/>
<stop offset="1"/>
</linearGradient>
<linearGradient id="paint7_linear_3_142" x1="0.764801" y1="126.168" x2="3.99495" y2="126.168" gradientUnits="userSpaceOnUse">
<stop/>
<stop offset="0.328"/>
<stop offset="0.524"/>
<stop offset="0.73"/>
<stop offset="1"/>
</linearGradient>
<linearGradient id="paint8_linear_3_142" x1="7.46735" y1="126.168" x2="11.4243" y2="126.168" gradientUnits="userSpaceOnUse">
<stop/>
<stop offset="0.328"/>
<stop offset="0.524"/>
<stop offset="0.73"/>
<stop offset="1"/>
</linearGradient>
<linearGradient id="paint9_linear_3_142" x1="15.5427" y1="126.092" x2="18.8537" y2="126.092" gradientUnits="userSpaceOnUse">
<stop/>
<stop offset="0.328"/>
<stop offset="0.524"/>
<stop offset="0.73"/>
<stop offset="1"/>
</linearGradient>
<linearGradient id="paint10_linear_3_142" x1="23.5374" y1="126.168" x2="26.5252" y2="126.168" gradientUnits="userSpaceOnUse">
<stop/>
<stop offset="0.328"/>
<stop offset="0.524"/>
<stop offset="0.73"/>
<stop offset="1"/>
</linearGradient>
<linearGradient id="paint11_linear_3_142" x1="31.0474" y1="126.168" x2="31.7742" y2="126.168" gradientUnits="userSpaceOnUse">
<stop/>
<stop offset="0.328"/>
<stop offset="0.524"/>
<stop offset="0.73"/>
<stop offset="1"/>
</linearGradient>
<linearGradient id="paint12_linear_3_142" x1="36.6195" y1="126.168" x2="40.0919" y2="126.168" gradientUnits="userSpaceOnUse">
<stop/>
<stop offset="0.328"/>
<stop offset="0.524"/>
<stop offset="0.73"/>
<stop offset="1"/>
</linearGradient>
<linearGradient id="paint13_linear_3_142" x1="45.0178" y1="126.168" x2="47.925" y2="126.168" gradientUnits="userSpaceOnUse">
<stop/>
<stop offset="0.328"/>
<stop offset="0.524"/>
<stop offset="0.73"/>
<stop offset="1"/>
</linearGradient>
<linearGradient id="paint14_linear_3_142" x1="57.7769" y1="126.092" x2="61.0878" y2="126.092" gradientUnits="userSpaceOnUse">
<stop/>
<stop offset="0.328"/>
<stop offset="0.524"/>
<stop offset="0.73"/>
<stop offset="1"/>
</linearGradient>
<linearGradient id="paint15_linear_3_142" x1="65.6908" y1="126.092" x2="69.0016" y2="126.092" gradientUnits="userSpaceOnUse">
<stop/>
<stop offset="0.328"/>
<stop offset="0.524"/>
<stop offset="0.73"/>
<stop offset="1"/>
</linearGradient>
<linearGradient id="paint16_linear_3_142" x1="73.6854" y1="126.168" x2="76.6733" y2="126.168" gradientUnits="userSpaceOnUse">
<stop/>
<stop offset="0.328"/>
<stop offset="0.524"/>
<stop offset="0.73"/>
<stop offset="1"/>
</linearGradient>
<linearGradient id="paint17_linear_3_142" x1="80.7917" y1="126.092" x2="84.1834" y2="126.092" gradientUnits="userSpaceOnUse">
<stop/>
<stop offset="0.328"/>
<stop offset="0.524"/>
<stop offset="0.73"/>
<stop offset="1"/>
</linearGradient>
<linearGradient id="paint18_linear_3_142" x1="94.3583" y1="126.168" x2="97.5885" y2="126.168" gradientUnits="userSpaceOnUse">
<stop/>
<stop offset="0.328"/>
<stop offset="0.524"/>
<stop offset="0.73"/>
<stop offset="1"/>
</linearGradient>
<linearGradient id="paint19_linear_3_142" x1="102.434" y1="126.168" x2="105.422" y2="126.168" gradientUnits="userSpaceOnUse">
<stop/>
<stop offset="0.328"/>
<stop offset="0.524"/>
<stop offset="0.73"/>
<stop offset="1"/>
</linearGradient>
<linearGradient id="paint20_linear_3_142" x1="109.944" y1="126.168" x2="113.335" y2="126.168" gradientUnits="userSpaceOnUse">
<stop/>
<stop offset="0.328"/>
<stop offset="0.524"/>
<stop offset="0.73"/>
<stop offset="1"/>
</linearGradient>
<linearGradient id="paint21_linear_3_142" x1="117.858" y1="126.168" x2="120.765" y2="126.168" gradientUnits="userSpaceOnUse">
<stop/>
<stop offset="0.328"/>
<stop offset="0.524"/>
<stop offset="0.73"/>
<stop offset="1"/>
</linearGradient>
<linearGradient id="paint22_linear_3_142" x1="25.3947" y1="0.532166" x2="80.4687" y2="0.532166" gradientUnits="userSpaceOnUse">
<stop/>
<stop offset="0.328"/>
<stop offset="0.524"/>
<stop offset="0.73"/>
<stop offset="1"/>
</linearGradient>
<linearGradient id="paint23_linear_3_142" x1="83.2144" y1="0.532166" x2="96.1349" y2="0.532166" gradientUnits="userSpaceOnUse">
<stop/>
<stop offset="0.328"/>
<stop offset="0.524"/>
<stop offset="0.73"/>
<stop offset="1"/>
</linearGradient>
<linearGradient id="paint24_linear_3_142" x1="41.0609" y1="24.1129" x2="96.1349" y2="24.1129" gradientUnits="userSpaceOnUse">
<stop/>
<stop offset="0.328"/>
<stop offset="0.524"/>
<stop offset="0.73"/>
<stop offset="1"/>
</linearGradient>
<linearGradient id="paint25_linear_3_142" x1="25.3947" y1="61.6276" x2="38.3153" y2="61.6276" gradientUnits="userSpaceOnUse">
<stop/>
<stop offset="0.328"/>
<stop offset="0.524"/>
<stop offset="0.73"/>
<stop offset="1"/>
</linearGradient>
</defs>
</svg>
