<svg width="121" height="131" viewBox="0 0 121 131" fill="none" xmlns="http://www.w3.org/2000/svg">
<path fill-rule="evenodd" clip-rule="evenodd" d="M22.628 37.4344C17.613 37.4344 12.5981 35.7501 8.74737 32.5345L20.2996 22.6582C30.5086 13.9303 43.4936 7.65234 58.9862 4.05398L73.8519 0.532166L36.419 32.5345C32.6578 35.7501 27.6429 37.4344 22.628 37.4344ZM16.8966 31.922C18.6877 32.6111 20.5683 32.9173 22.628 32.9173C26.3892 32.9173 30.0608 31.6158 32.7474 29.319L55.9414 9.48977C43.3145 13.0116 32.5683 18.5239 23.9712 25.8738L16.8966 31.922Z" fill="url(#paint0_linear_3_33)"/>
<path fill-rule="evenodd" clip-rule="evenodd" d="M9.55333 47.9998L5.52348 35.2907L42.8668 67.2931C46.7175 70.5086 48.6877 74.796 48.6877 79.16C48.6877 83.4474 46.7175 87.7348 42.8668 90.9504L31.4041 81.1506C21.1056 72.3461 13.8518 61.2448 9.55333 47.9998ZM16.0011 50.6029C20.1205 61.3979 26.4787 70.5852 35.0757 77.935L42.2399 83.9833C44.4787 79.5428 43.4936 74.107 39.1951 70.4321L16.0011 50.6029Z" fill="url(#paint1_linear_3_33)"/>
<path fill-rule="evenodd" clip-rule="evenodd" d="M104.837 58.1823C107.165 59.0245 109.404 60.2495 111.374 61.8573L99.822 71.7336C89.6131 80.4615 76.5384 86.7395 61.0459 90.3378L46.2697 93.7831L83.613 61.8573C87.4638 58.5652 92.4787 56.9574 97.4936 56.9574C100.001 56.9574 102.509 57.3402 104.837 58.1823ZM103.225 62.4698C101.434 61.7807 99.4638 61.4745 97.4936 61.4745C93.6429 61.4745 90.0608 62.6994 87.3742 65.0728L64.1802 84.8255C76.8071 81.3803 87.4638 75.8679 96.0608 68.518L103.225 62.4698Z" fill="url(#paint2_linear_3_33)"/>
<path fill-rule="evenodd" clip-rule="evenodd" d="M77.1653 3.36493L88.7175 13.2413C98.9265 21.9692 106.27 33.147 110.479 46.3154L114.509 59.0245L77.1653 27.0987C69.5533 20.5145 69.5533 9.94915 77.1653 3.36493ZM80.9265 23.8832L104.12 43.7124C100.001 32.9174 93.5533 23.8066 84.9563 16.4568L77.8817 10.3319C75.6429 14.849 76.628 20.2848 80.9265 23.8832Z" fill="url(#paint3_linear_3_33)"/>
<path d="M1.31454 120.886C1.67275 121.141 2.09065 121.319 2.56827 121.421C2.98618 121.524 3.40408 121.575 3.82199 121.575C4.35931 121.575 4.83692 121.473 5.25483 121.268C5.73245 121.115 6.12049 120.886 6.419 120.579C6.77721 120.273 7.04586 119.941 7.22497 119.584C7.40407 119.227 7.49364 118.818 7.49364 118.359V117.517H5.16528V118.206C5.16528 118.461 5.13542 118.691 5.07572 118.895C4.95631 119.048 4.83692 119.176 4.71751 119.278C4.59811 119.38 4.44886 119.456 4.26975 119.507C4.09065 119.559 3.91154 119.584 3.73243 119.584C3.25482 119.584 2.89663 119.456 2.65782 119.201C2.47872 118.946 2.38915 118.614 2.38915 118.206V111.239C2.38915 110.78 2.47872 110.397 2.65782 110.091C2.83693 109.784 3.22498 109.631 3.82199 109.631C4.2399 109.631 4.56827 109.784 4.80707 110.091C5.04588 110.346 5.16528 110.677 5.16528 111.086V111.698H7.49364V110.933C7.49364 110.473 7.40407 110.039 7.22497 109.631C7.04586 109.223 6.77721 108.866 6.419 108.559C5.76228 107.998 4.89662 107.717 3.82199 107.717C3.28468 107.717 2.77721 107.794 2.29959 107.947C1.82198 108.1 1.43393 108.304 1.13542 108.559C0.777216 108.866 0.508565 109.197 0.32946 109.555C0.150356 109.963 0.0607872 110.397 0.0607872 110.856V118.359C0.0607872 118.972 0.180212 119.482 0.419018 119.89C0.657824 120.299 0.956331 120.63 1.31454 120.886Z" fill="url(#paint4_linear_3_33)"/>
<path fill-rule="evenodd" clip-rule="evenodd" d="M25.8518 118.206C25.8518 118.767 25.7324 119.252 25.4936 119.661C25.2548 120.069 24.9563 120.426 24.5981 120.732C24.2399 120.988 23.822 121.192 23.3444 121.345C22.9265 121.498 22.4787 121.575 22.0011 121.575C21.5235 121.575 21.0757 121.498 20.6578 121.345C20.1802 121.192 19.7623 120.988 19.4041 120.732C19.0459 120.426 18.7474 120.069 18.5086 119.661C18.2697 119.252 18.1503 118.767 18.1503 118.206V111.009C18.1503 110.448 18.2697 109.963 18.5086 109.555C18.7474 109.146 19.0459 108.789 19.4041 108.483C19.7623 108.228 20.1802 108.023 20.6578 107.87C21.0757 107.768 21.5235 107.717 22.0011 107.717C22.4787 107.717 22.9265 107.768 23.3444 107.87C23.822 108.023 24.2399 108.228 24.5981 108.483C24.9563 108.789 25.2548 109.146 25.4936 109.555C25.7324 109.963 25.8518 110.448 25.8518 111.009V118.206ZM23.5235 111.009C23.5235 110.55 23.3742 110.193 23.0757 109.937C22.7772 109.733 22.419 109.631 22.0011 109.631C21.5832 109.631 21.225 109.733 20.9265 109.937C20.628 110.193 20.4787 110.55 20.4787 111.009V118.206C20.4787 118.665 20.628 119.023 20.9265 119.278C21.225 119.482 21.5832 119.584 22.0011 119.584C22.419 119.584 22.7772 119.482 23.0757 119.278C23.3742 119.023 23.5235 118.665 23.5235 118.206V111.009Z" fill="url(#paint5_linear_3_33)"/>
<path d="M41.9713 114.99L39.016 107.794H36.7772V121.421H39.1056V113.153L41.3444 118.972H42.5086L44.7474 113.153H44.8369V121.421H47.0757V107.794H44.9265L41.9713 114.99Z" fill="url(#paint6_linear_3_33)"/>
<path fill-rule="evenodd" clip-rule="evenodd" d="M65.4339 110.014C65.5533 110.473 65.613 111.111 65.613 111.928C65.613 112.54 65.5832 113.076 65.5235 113.536C65.4041 113.944 65.225 114.327 64.9862 114.684C64.6877 115.144 64.2697 115.501 63.7324 115.756C63.1951 116.011 62.5086 116.139 61.6727 116.139H60.5085V121.421H58.1802V107.794H61.6727C62.2698 107.794 62.8071 107.87 63.2847 108.023C63.7623 108.176 64.21 108.432 64.628 108.789C64.9862 109.146 65.2548 109.555 65.4339 110.014ZM63.4638 112.005C63.4638 111.647 63.4638 111.341 63.4638 111.086C63.4638 110.78 63.4041 110.524 63.2847 110.32C63.1653 110.116 62.9862 109.937 62.7474 109.784C62.5085 109.682 62.1504 109.631 61.6727 109.631H60.5085V114.301H61.5832C62.0608 114.301 62.419 114.225 62.6578 114.072C62.8966 113.97 63.0757 113.816 63.1951 113.612C63.3145 113.408 63.4041 113.178 63.4638 112.923C63.4638 112.617 63.4638 112.311 63.4638 112.005Z" fill="url(#paint7_linear_3_33)"/>
<path fill-rule="evenodd" clip-rule="evenodd" d="M79.8518 107.794L83.4339 121.421H81.1951L80.4787 118.512H77.3444L76.7175 121.421H74.3891L77.9712 107.794H79.8518ZM80.031 116.675L78.9563 111.698H78.8668L77.7921 116.675H80.031Z" fill="url(#paint8_linear_3_33)"/>
<path d="M101.434 121.421V107.794H99.1056V115.986L95.613 107.794H93.4638V121.421H95.7026V113.229H95.7921L99.2847 121.421H101.434Z" fill="url(#paint9_linear_3_33)"/>
<path d="M111.464 107.794L114.598 115.679V121.421H116.837V115.679L119.971 107.794H117.553L115.762 113.229H115.673L113.882 107.794H111.464Z" fill="url(#paint10_linear_3_33)"/>
<path d="M1.31454 130.532H2.03095V127.087H3.28467V126.551H0.0607872V127.087H1.31454V130.532Z" fill="url(#paint11_linear_3_33)"/>
<path fill-rule="evenodd" clip-rule="evenodd" d="M7.76229 129.613L7.40408 130.532H6.68768L8.38916 126.551H9.01601L10.628 130.532H9.91153L9.55333 129.613H7.76229ZM7.9414 129.078H9.28468L8.65781 127.393L7.9414 129.078Z" fill="url(#paint12_linear_3_33)"/>
<path d="M15.7324 127.393C15.7921 127.342 15.8817 127.291 16.0011 127.24C16.1205 127.189 16.2698 127.164 16.4489 127.164C16.6877 127.164 16.8668 127.215 16.9862 127.317C17.1653 127.419 17.2847 127.546 17.3444 127.699H18.0608C18.0011 127.393 17.822 127.112 17.5235 126.857C17.225 126.653 16.8668 126.551 16.4489 126.551C16.0907 126.551 15.7921 126.628 15.5533 126.781C15.2548 126.934 15.0757 127.087 15.016 127.24C14.8966 127.342 14.8369 127.47 14.8369 127.623C14.7772 127.776 14.7474 128.082 14.7474 128.542C14.7474 129.001 14.7772 129.307 14.8369 129.46C14.8369 129.562 14.8668 129.639 14.9265 129.69C14.9265 129.741 14.9563 129.792 15.016 129.843C15.0757 130.047 15.2548 130.2 15.5533 130.303C15.7921 130.456 16.0907 130.532 16.4489 130.532C16.9265 130.532 17.3145 130.405 17.613 130.149C17.9115 129.894 18.0608 129.562 18.0608 129.154V128.312H16.4489V128.924H17.3444V129.154C17.3444 129.358 17.2548 129.537 17.0757 129.69C16.8966 129.894 16.6877 129.996 16.4489 129.996C16.2698 129.996 16.1205 129.945 16.0011 129.843C15.8817 129.792 15.7921 129.741 15.7324 129.69C15.613 129.588 15.5533 129.46 15.5533 129.307C15.4936 129.205 15.4638 128.95 15.4638 128.542C15.4638 128.133 15.4936 127.878 15.5533 127.776C15.5533 127.623 15.613 127.495 15.7324 127.393Z" fill="url(#paint13_linear_3_33)"/>
<path d="M22.8071 126.551V130.532H25.7623V129.996H23.5235V126.551H22.8071Z" fill="url(#paint14_linear_3_33)"/>
<path d="M30.3295 126.551V130.532H31.0459V126.551H30.3295Z" fill="url(#paint15_linear_3_33)"/>
<path d="M35.8817 126.551V130.532H36.5981V127.699L38.7474 130.532H39.3742V126.551H38.6578V129.384L36.5981 126.551H35.8817Z" fill="url(#paint16_linear_3_33)"/>
<path d="M47.1653 127.164V126.551H44.2101V130.532H47.1653V129.996H44.9265V128.771H46.8966V128.235H44.9265V127.164H47.1653Z" fill="url(#paint17_linear_3_33)"/>
<path d="M57.2847 127.24C57.225 127.342 57.1653 127.47 57.1056 127.623C57.1056 127.776 57.1056 128.082 57.1056 128.542C57.1056 129.001 57.1056 129.307 57.1056 129.46C57.1056 129.562 57.1354 129.639 57.1951 129.69C57.1951 129.741 57.225 129.792 57.2847 129.843C57.4041 130.047 57.5832 130.2 57.822 130.303C58.0608 130.456 58.3593 130.532 58.7175 130.532C59.1951 130.532 59.5832 130.405 59.8817 130.149C60.1802 129.894 60.3593 129.562 60.419 129.154V128.312H58.7175V128.924H59.7026V129.154C59.7026 129.358 59.613 129.537 59.4339 129.69C59.2548 129.894 59.016 129.996 58.7175 129.996C58.5384 129.996 58.3891 129.945 58.2697 129.843C58.1503 129.792 58.0608 129.741 58.0011 129.69C57.9414 129.588 57.8817 129.46 57.822 129.307C57.822 129.205 57.822 128.95 57.822 128.542C57.822 128.133 57.822 127.878 57.822 127.776C57.8817 127.623 57.9414 127.495 58.0011 127.393C58.0608 127.342 58.1503 127.291 58.2697 127.24C58.3891 127.189 58.5384 127.164 58.7175 127.164C58.9563 127.164 59.1653 127.215 59.3444 127.317C59.4638 127.419 59.5533 127.546 59.613 127.699H60.3295C60.2698 127.393 60.0906 127.112 59.7921 126.857C59.5533 126.653 59.1951 126.551 58.7175 126.551C58.3593 126.551 58.0608 126.628 57.822 126.781C57.5832 126.934 57.4041 127.087 57.2847 127.24Z" fill="url(#paint18_linear_3_33)"/>
<path fill-rule="evenodd" clip-rule="evenodd" d="M65.7026 126.781C65.9414 126.628 66.2399 126.551 66.5981 126.551C66.9563 126.551 67.2548 126.628 67.4936 126.781C67.7324 126.934 67.9116 127.087 68.031 127.24C68.0907 127.342 68.1503 127.47 68.21 127.623C68.21 127.776 68.21 128.082 68.21 128.542C68.21 129.001 68.21 129.307 68.21 129.46C68.1503 129.613 68.0907 129.741 68.031 129.843C67.9116 130.047 67.7324 130.2 67.4936 130.303C67.2548 130.456 66.9563 130.532 66.5981 130.532C66.2399 130.532 65.9414 130.456 65.7026 130.303C65.4638 130.2 65.2847 130.047 65.1653 129.843C65.1056 129.792 65.0757 129.741 65.0757 129.69C65.016 129.639 64.9862 129.562 64.9862 129.46C64.9862 129.307 64.9862 129.001 64.9862 128.542C64.9862 128.082 64.9862 127.776 64.9862 127.623C65.0459 127.47 65.1056 127.342 65.1653 127.24C65.2847 127.087 65.4638 126.934 65.7026 126.781ZM65.613 128.542C65.613 128.95 65.6429 129.205 65.7026 129.307C65.7026 129.46 65.7623 129.588 65.8817 129.69C65.9414 129.741 66.031 129.792 66.1504 129.843C66.2698 129.945 66.419 129.996 66.5981 129.996C66.7772 129.996 66.9265 129.945 67.0459 129.843C67.1653 129.792 67.2548 129.741 67.3145 129.69C67.3742 129.588 67.4339 129.46 67.4936 129.307C67.5533 129.205 67.5832 128.95 67.5832 128.542C67.5832 128.133 67.5533 127.878 67.4936 127.776C67.4339 127.623 67.3742 127.495 67.3145 127.393C67.2548 127.342 67.1653 127.291 67.0459 127.24C66.9265 127.189 66.7772 127.164 66.5981 127.164C66.419 127.164 66.2698 127.189 66.1504 127.24C66.031 127.291 65.9414 127.342 65.8817 127.393C65.7623 127.495 65.7026 127.623 65.7026 127.776C65.6429 127.878 65.613 128.133 65.613 128.542Z" fill="url(#paint19_linear_3_33)"/>
<path d="M72.9563 130.532H75.9115V129.996H73.6727V128.771H75.5533V128.235H73.6727V127.164H75.9115V126.551H72.9563V130.532Z" fill="url(#paint20_linear_3_33)"/>
<path d="M81.822 129.996C81.3444 129.945 80.9265 129.792 80.5683 129.537L80.1205 129.996C80.5981 130.354 81.1653 130.532 81.822 130.532C82.8966 130.532 83.4638 130.149 83.5235 129.384C83.5235 129.129 83.4041 128.899 83.1653 128.695C82.9862 128.44 82.6578 128.312 82.1802 128.312C82.0011 128.261 81.8518 128.235 81.7324 128.235C81.4936 128.184 81.3145 128.108 81.1951 128.006C81.0757 127.904 81.016 127.802 81.016 127.699C81.016 127.495 81.1056 127.342 81.2847 127.24C81.4041 127.189 81.5832 127.164 81.822 127.164C82.2399 127.164 82.628 127.266 82.9862 127.47L83.3444 126.934C82.9265 126.679 82.419 126.551 81.822 126.551C81.3444 126.551 80.9862 126.653 80.7474 126.857C80.4488 127.061 80.2996 127.342 80.2996 127.699C80.2996 128.006 80.419 128.261 80.6578 128.465C80.8369 128.618 81.1354 128.72 81.5533 128.771C81.7921 128.822 82.0011 128.848 82.1802 128.848C82.5981 128.95 82.8071 129.129 82.8071 129.384C82.8071 129.741 82.4787 129.945 81.822 129.996Z" fill="url(#paint21_linear_3_33)"/>
<path d="M96.7772 130.532V126.551H96.1504V128.235H94.2698V126.551H93.5533V130.532H94.2698V128.771H96.1504V130.532H96.7772Z" fill="url(#paint22_linear_3_33)"/>
<path d="M104.658 127.164V126.551H101.703V130.532H104.658V129.996H102.419V128.771H104.3V128.235H102.419V127.164H104.658Z" fill="url(#paint23_linear_3_33)"/>
<path fill-rule="evenodd" clip-rule="evenodd" d="M111.553 128.771L112.628 130.532H111.732L110.837 128.848H109.941V130.532H109.225V126.551H111.016C111.434 126.551 111.762 126.653 112.001 126.857C112.3 127.061 112.449 127.342 112.449 127.699C112.449 128.21 112.15 128.567 111.553 128.771ZM111.732 127.699C111.732 127.495 111.673 127.342 111.553 127.24C111.434 127.138 111.255 127.087 111.016 127.087H109.941V128.312H111.016C111.255 128.312 111.434 128.235 111.553 128.082C111.673 127.98 111.732 127.853 111.732 127.699Z" fill="url(#paint24_linear_3_33)"/>
<path d="M120.061 127.164V126.551H117.106V130.532H120.061V129.996H117.822V128.771H119.703V128.235H117.822V127.164H120.061Z" fill="url(#paint25_linear_3_33)"/>
<defs>
<linearGradient id="paint0_linear_3_33" x1="8.74737" y1="0.532166" x2="73.8519" y2="0.532166" gradientUnits="userSpaceOnUse">
<stop/>
<stop offset="0.328"/>
<stop offset="0.524"/>
<stop offset="0.73"/>
<stop offset="1"/>
</linearGradient>
<linearGradient id="paint1_linear_3_33" x1="5.52348" y1="35.2907" x2="48.6877" y2="35.2907" gradientUnits="userSpaceOnUse">
<stop/>
<stop offset="0.328"/>
<stop offset="0.524"/>
<stop offset="0.73"/>
<stop offset="1"/>
</linearGradient>
<linearGradient id="paint2_linear_3_33" x1="46.2697" y1="56.9574" x2="111.374" y2="56.9574" gradientUnits="userSpaceOnUse">
<stop/>
<stop offset="0.328"/>
<stop offset="0.524"/>
<stop offset="0.73"/>
<stop offset="1"/>
</linearGradient>
<linearGradient id="paint3_linear_3_33" x1="71.4339" y1="3.36493" x2="114.509" y2="3.36493" gradientUnits="userSpaceOnUse">
<stop/>
<stop offset="0.328"/>
<stop offset="0.524"/>
<stop offset="0.73"/>
<stop offset="1"/>
</linearGradient>
<linearGradient id="paint4_linear_3_33" x1="0.0607872" y1="107.717" x2="7.49364" y2="107.717" gradientUnits="userSpaceOnUse">
<stop/>
<stop offset="0.328"/>
<stop offset="0.524"/>
<stop offset="0.73"/>
<stop offset="1"/>
</linearGradient>
<linearGradient id="paint5_linear_3_33" x1="18.1503" y1="107.717" x2="25.8518" y2="107.717" gradientUnits="userSpaceOnUse">
<stop/>
<stop offset="0.328"/>
<stop offset="0.524"/>
<stop offset="0.73"/>
<stop offset="1"/>
</linearGradient>
<linearGradient id="paint6_linear_3_33" x1="36.7772" y1="107.794" x2="47.0757" y2="107.794" gradientUnits="userSpaceOnUse">
<stop/>
<stop offset="0.328"/>
<stop offset="0.524"/>
<stop offset="0.73"/>
<stop offset="1"/>
</linearGradient>
<linearGradient id="paint7_linear_3_33" x1="58.1802" y1="107.794" x2="65.613" y2="107.794" gradientUnits="userSpaceOnUse">
<stop/>
<stop offset="0.328"/>
<stop offset="0.524"/>
<stop offset="0.73"/>
<stop offset="1"/>
</linearGradient>
<linearGradient id="paint8_linear_3_33" x1="74.3891" y1="107.794" x2="83.4339" y2="107.794" gradientUnits="userSpaceOnUse">
<stop/>
<stop offset="0.328"/>
<stop offset="0.524"/>
<stop offset="0.73"/>
<stop offset="1"/>
</linearGradient>
<linearGradient id="paint9_linear_3_33" x1="93.4638" y1="107.794" x2="101.434" y2="107.794" gradientUnits="userSpaceOnUse">
<stop/>
<stop offset="0.328"/>
<stop offset="0.524"/>
<stop offset="0.73"/>
<stop offset="1"/>
</linearGradient>
<linearGradient id="paint10_linear_3_33" x1="111.464" y1="107.794" x2="119.971" y2="107.794" gradientUnits="userSpaceOnUse">
<stop/>
<stop offset="0.328"/>
<stop offset="0.524"/>
<stop offset="0.73"/>
<stop offset="1"/>
</linearGradient>
<linearGradient id="paint11_linear_3_33" x1="0.0607872" y1="126.551" x2="3.28467" y2="126.551" gradientUnits="userSpaceOnUse">
<stop/>
<stop offset="0.328"/>
<stop offset="0.524"/>
<stop offset="0.73"/>
<stop offset="1"/>
</linearGradient>
<linearGradient id="paint12_linear_3_33" x1="6.68768" y1="126.551" x2="10.628" y2="126.551" gradientUnits="userSpaceOnUse">
<stop/>
<stop offset="0.328"/>
<stop offset="0.524"/>
<stop offset="0.73"/>
<stop offset="1"/>
</linearGradient>
<linearGradient id="paint13_linear_3_33" x1="14.7474" y1="126.551" x2="18.0608" y2="126.551" gradientUnits="userSpaceOnUse">
<stop/>
<stop offset="0.328"/>
<stop offset="0.524"/>
<stop offset="0.73"/>
<stop offset="1"/>
</linearGradient>
<linearGradient id="paint14_linear_3_33" x1="22.8071" y1="126.551" x2="25.7623" y2="126.551" gradientUnits="userSpaceOnUse">
<stop/>
<stop offset="0.328"/>
<stop offset="0.524"/>
<stop offset="0.73"/>
<stop offset="1"/>
</linearGradient>
<linearGradient id="paint15_linear_3_33" x1="30.3295" y1="126.551" x2="31.0459" y2="126.551" gradientUnits="userSpaceOnUse">
<stop/>
<stop offset="0.328"/>
<stop offset="0.524"/>
<stop offset="0.73"/>
<stop offset="1"/>
</linearGradient>
<linearGradient id="paint16_linear_3_33" x1="35.8817" y1="126.551" x2="39.3742" y2="126.551" gradientUnits="userSpaceOnUse">
<stop/>
<stop offset="0.328"/>
<stop offset="0.524"/>
<stop offset="0.73"/>
<stop offset="1"/>
</linearGradient>
<linearGradient id="paint17_linear_3_33" x1="44.2101" y1="126.551" x2="47.1653" y2="126.551" gradientUnits="userSpaceOnUse">
<stop/>
<stop offset="0.328"/>
<stop offset="0.524"/>
<stop offset="0.73"/>
<stop offset="1"/>
</linearGradient>
<linearGradient id="paint18_linear_3_33" x1="57.1056" y1="126.551" x2="60.419" y2="126.551" gradientUnits="userSpaceOnUse">
<stop/>
<stop offset="0.328"/>
<stop offset="0.524"/>
<stop offset="0.73"/>
<stop offset="1"/>
</linearGradient>
<linearGradient id="paint19_linear_3_33" x1="64.9862" y1="126.551" x2="68.21" y2="126.551" gradientUnits="userSpaceOnUse">
<stop/>
<stop offset="0.328"/>
<stop offset="0.524"/>
<stop offset="0.73"/>
<stop offset="1"/>
</linearGradient>
<linearGradient id="paint20_linear_3_33" x1="72.9563" y1="126.551" x2="75.9115" y2="126.551" gradientUnits="userSpaceOnUse">
<stop/>
<stop offset="0.328"/>
<stop offset="0.524"/>
<stop offset="0.73"/>
<stop offset="1"/>
</linearGradient>
<linearGradient id="paint21_linear_3_33" x1="80.1205" y1="126.551" x2="83.5235" y2="126.551" gradientUnits="userSpaceOnUse">
<stop/>
<stop offset="0.328"/>
<stop offset="0.524"/>
<stop offset="0.73"/>
<stop offset="1"/>
</linearGradient>
<linearGradient id="paint22_linear_3_33" x1="93.5533" y1="126.551" x2="96.7772" y2="126.551" gradientUnits="userSpaceOnUse">
<stop/>
<stop offset="0.328"/>
<stop offset="0.524"/>
<stop offset="0.73"/>
<stop offset="1"/>
</linearGradient>
<linearGradient id="paint23_linear_3_33" x1="101.703" y1="126.551" x2="104.658" y2="126.551" gradientUnits="userSpaceOnUse">
<stop/>
<stop offset="0.328"/>
<stop offset="0.524"/>
<stop offset="0.73"/>
<stop offset="1"/>
</linearGradient>
<linearGradient id="paint24_linear_3_33" x1="109.225" y1="126.551" x2="112.628" y2="126.551" gradientUnits="userSpaceOnUse">
<stop/>
<stop offset="0.328"/>
<stop offset="0.524"/>
<stop offset="0.73"/>
<stop offset="1"/>
</linearGradient>
<linearGradient id="paint25_linear_3_33" x1="117.106" y1="126.551" x2="120.061" y2="126.551" gradientUnits="userSpaceOnUse">
<stop/>
<stop offset="0.328"/>
<stop offset="0.524"/>
<stop offset="0.73"/>
<stop offset="1"/>
</linearGradient>
</defs>
</svg>
