<svg width="121" height="131" viewBox="0 0 121 131" fill="none" xmlns="http://www.w3.org/2000/svg">
<path d="M40.523 77.3287L48.9333 81.7788L59.1897 76.2872L50.7794 71.8371V6.03225L41.0359 0.824677L40.2153 1.29809L1.34355 21.939V32.9223L40.523 11.9973V77.3287Z" fill="url(#paint0_linear_3_287)"/>
<path d="M70.4717 6.03225V75.0563L41.0359 90.7737L11.6 75.0563V32.1648L1.34355 37.6565V77.3287L41.0359 98.4431L80.7282 77.3287V11.9973L119.908 32.9223V21.939L80.2153 0.824677L70.4717 6.03225Z" fill="url(#paint1_linear_3_287)"/>
<path d="M75.3948 84.9033L65.1384 90.395L80.2153 98.4431L119.908 77.3287V37.6564L109.651 32.1648V71.837L80.2153 87.5545L75.3948 84.9033Z" fill="url(#paint2_linear_3_287)"/>
<path d="M27.6 127.795H28.7282V130.825H29.5487V127.795H30.7795V127.037H27.6V127.795Z" fill="url(#paint3_linear_3_287)"/>
<path fill-rule="evenodd" clip-rule="evenodd" d="M36.3179 127.037L37.7538 130.825H36.9333L36.523 129.783H35.1897L34.7795 130.825H33.8564L35.3948 127.037H36.3179ZM36.2154 129.026L35.9077 128.174L35.4974 129.026H36.2154Z" fill="url(#paint4_linear_3_287)"/>
<path d="M44.4205 128.836H43.6H43.1897V129.594H44.2154C43.9077 129.878 43.6 130.067 43.1897 130.067C42.4718 130.067 41.9589 129.594 41.9589 128.931C41.9589 128.268 42.4718 127.795 43.1897 127.795C43.4974 127.795 43.8051 127.89 44.0102 128.079L44.6256 127.511C44.2154 127.227 43.7025 127.037 43.1897 127.037C42.0615 127.037 41.1384 127.89 41.1384 128.931C41.1384 129.973 42.0615 130.825 43.1897 130.825C44.3179 130.825 45.241 129.973 45.241 128.931C45.241 128.931 45.241 128.899 45.241 128.836H44.4205Z" fill="url(#paint5_linear_3_287)"/>
<path d="M50.6769 127.037H49.8564V130.825H52.2153V130.067H50.6769V127.037Z" fill="url(#paint6_linear_3_287)"/>
<path d="M55.9077 130.825H56.7282V127.037H55.9077V130.825Z" fill="url(#paint7_linear_3_287)"/>
<path d="M63.0871 129.594L61.3436 127.037H60.4205V130.825H61.241V128.268L62.882 130.825H63.9077V127.037H63.0871V129.594Z" fill="url(#paint8_linear_3_287)"/>
<path d="M67.5999 130.825H70.0615V130.067H68.4205V129.31H70.0615V128.552H68.4205V127.795H70.0615V127.037H67.5999V130.825Z" fill="url(#paint9_linear_3_287)"/>
<path d="M78.5743 128.552H77.0359V127.037H76.2154V130.825H77.0359V129.31H78.5743V130.825H79.3948V127.037H78.5743V128.552Z" fill="url(#paint10_linear_3_287)"/>
<path d="M83.0871 130.825H85.6512V130.067H83.9077V129.31H85.6512V128.552H83.9077V127.795H85.6512V127.037H83.0871V130.825Z" fill="url(#paint11_linear_3_287)"/>
<path fill-rule="evenodd" clip-rule="evenodd" d="M91.1897 129.215L92.0102 130.825H91.0872L90.2666 129.31H90.1641V130.825H89.3436V127.037H90.5743C91.2923 127.037 91.8051 127.511 91.8051 128.174C91.8051 128.647 91.4974 129.026 91.1897 129.215ZM90.9846 128.174C90.9846 127.984 90.7795 127.795 90.5743 127.795H90.1641V128.552H90.5743C90.7795 128.552 90.9846 128.363 90.9846 128.174Z" fill="url(#paint12_linear_3_287)"/>
<path d="M95.6 130.825H98.0615V130.067H96.4205V129.31H98.0615V128.552H96.4205V127.795H98.0615V127.037H95.6V130.825Z" fill="url(#paint13_linear_3_287)"/>
<path d="M6.98459 113.119C8.01023 113.119 8.93331 113.403 9.54869 114.066L11.3948 112.361C10.2666 111.32 8.72818 110.752 6.98459 110.752C3.49741 110.752 0.62561 113.403 0.62561 116.622C0.62561 119.841 3.49741 122.493 6.98459 122.493C8.72818 122.493 10.2666 121.924 11.3948 120.883L9.54869 119.179C8.93331 119.841 8.01023 120.125 6.98459 120.125C4.83074 120.125 3.18971 118.611 3.18971 116.622C3.18971 114.634 4.83074 113.119 6.98459 113.119Z" fill="url(#paint14_linear_3_287)"/>
<path fill-rule="evenodd" clip-rule="evenodd" d="M31.2923 116.622C31.2923 119.841 28.4205 122.493 24.8307 122.493C21.3435 122.493 18.4718 119.841 18.4718 116.622C18.4718 113.403 21.3435 110.752 24.8307 110.752C28.4205 110.752 31.2923 113.403 31.2923 116.622ZM28.7282 116.622C28.7282 114.634 26.9846 113.119 24.8307 113.119C22.7794 113.119 21.0359 114.634 21.0359 116.622C21.0359 118.611 22.7794 120.125 24.8307 120.125C26.9846 120.125 28.7282 118.611 28.7282 116.622Z" fill="url(#paint15_linear_3_287)"/>
<path d="M52.1128 122.493V110.752H49.3436L45.6512 119.368L41.9589 110.752H39.1897V122.493H41.7538V116.622L44.3179 122.493H46.9846L49.5487 116.622V122.493H52.1128Z" fill="url(#paint16_linear_3_287)"/>
<path fill-rule="evenodd" clip-rule="evenodd" d="M67.4974 114.255C67.4974 116.243 65.7538 117.758 63.6 117.758H62.5743V122.493H60.0102V110.752H63.6C65.7538 110.752 67.4974 112.267 67.4974 114.255ZM64.9333 114.255C64.9333 113.592 64.3179 113.119 63.6 113.119H62.5743V115.486H63.6C64.3179 115.486 64.9333 114.918 64.9333 114.255Z" fill="url(#paint17_linear_3_287)"/>
<path fill-rule="evenodd" clip-rule="evenodd" d="M81.0359 110.752L85.6513 122.493H82.882L81.6513 119.179H77.6513L76.4205 122.493H73.6513L78.2666 110.752H81.0359ZM80.7282 116.812L79.7025 114.16L78.6769 116.812H80.7282Z" fill="url(#paint18_linear_3_287)"/>
<path d="M101.344 118.611L96.2154 110.752H93.241V122.493H95.8051V114.634L100.933 122.493H103.805V110.752H101.344V118.611Z" fill="url(#paint19_linear_3_287)"/>
<path d="M116.01 113.971L114.267 110.752H111.395L114.779 116.906V122.493H117.344V116.906L120.626 110.752H117.754L116.01 113.971Z" fill="url(#paint20_linear_3_287)"/>
<defs>
<linearGradient id="paint0_linear_3_287" x1="1.34355" y1="0.824677" x2="59.1897" y2="0.824677" gradientUnits="userSpaceOnUse">
<stop/>
<stop offset="0.328"/>
<stop offset="0.524"/>
<stop offset="0.73"/>
<stop offset="1"/>
</linearGradient>
<linearGradient id="paint1_linear_3_287" x1="1.34355" y1="0.824677" x2="119.908" y2="0.824677" gradientUnits="userSpaceOnUse">
<stop/>
<stop offset="0.328"/>
<stop offset="0.524"/>
<stop offset="0.73"/>
<stop offset="1"/>
</linearGradient>
<linearGradient id="paint2_linear_3_287" x1="65.1384" y1="32.1648" x2="119.908" y2="32.1648" gradientUnits="userSpaceOnUse">
<stop/>
<stop offset="0.328"/>
<stop offset="0.524"/>
<stop offset="0.73"/>
<stop offset="1"/>
</linearGradient>
<linearGradient id="paint3_linear_3_287" x1="26.4718" y1="149.004" x2="26.4718" y2="41.9172" gradientUnits="userSpaceOnUse">
<stop/>
<stop offset="0.328"/>
<stop offset="0.524"/>
<stop offset="0.73"/>
<stop offset="1"/>
</linearGradient>
<linearGradient id="paint4_linear_3_287" x1="33.6513" y1="152.034" x2="33.6513" y2="58.6761" gradientUnits="userSpaceOnUse">
<stop/>
<stop offset="0.328"/>
<stop offset="0.524"/>
<stop offset="0.73"/>
<stop offset="1"/>
</linearGradient>
<linearGradient id="paint5_linear_3_287" x1="41.1384" y1="157.241" x2="41.1384" y2="71.6477" gradientUnits="userSpaceOnUse">
<stop/>
<stop offset="0.328"/>
<stop offset="0.524"/>
<stop offset="0.73"/>
<stop offset="1"/>
</linearGradient>
<linearGradient id="paint6_linear_3_287" x1="47.2923" y1="187.919" x2="47.2923" y2="46.2726" gradientUnits="userSpaceOnUse">
<stop/>
<stop offset="0.328"/>
<stop offset="0.524"/>
<stop offset="0.73"/>
<stop offset="1"/>
</linearGradient>
<linearGradient id="paint7_linear_3_287" x1="45.8564" y1="218.691" x2="45.8564" y2="30.5552" gradientUnits="userSpaceOnUse">
<stop/>
<stop offset="0.328"/>
<stop offset="0.524"/>
<stop offset="0.73"/>
<stop offset="1"/>
</linearGradient>
<linearGradient id="paint8_linear_3_287" x1="59.6" y1="171.822" x2="59.6" y2="92.1939" gradientUnits="userSpaceOnUse">
<stop/>
<stop offset="0.328"/>
<stop offset="0.524"/>
<stop offset="0.73"/>
<stop offset="1"/>
</linearGradient>
<linearGradient id="paint9_linear_3_287" x1="65.3435" y1="190.286" x2="65.3435" y2="89.6375" gradientUnits="userSpaceOnUse">
<stop/>
<stop offset="0.328"/>
<stop offset="0.524"/>
<stop offset="0.73"/>
<stop offset="1"/>
</linearGradient>
<linearGradient id="paint10_linear_3_287" x1="75.0872" y1="188.203" x2="75.0872" y2="103.177" gradientUnits="userSpaceOnUse">
<stop/>
<stop offset="0.328"/>
<stop offset="0.524"/>
<stop offset="0.73"/>
<stop offset="1"/>
</linearGradient>
<linearGradient id="paint11_linear_3_287" x1="80.9333" y1="206.003" x2="80.9333" y2="105.355" gradientUnits="userSpaceOnUse">
<stop/>
<stop offset="0.328"/>
<stop offset="0.524"/>
<stop offset="0.73"/>
<stop offset="1"/>
</linearGradient>
<linearGradient id="paint12_linear_3_287" x1="87.3949" y1="220.111" x2="87.3949" y2="110.278" gradientUnits="userSpaceOnUse">
<stop/>
<stop offset="0.328"/>
<stop offset="0.524"/>
<stop offset="0.73"/>
<stop offset="1"/>
</linearGradient>
<linearGradient id="paint13_linear_3_287" x1="93.3435" y1="219.259" x2="93.3435" y2="118.611" gradientUnits="userSpaceOnUse">
<stop/>
<stop offset="0.328"/>
<stop offset="0.524"/>
<stop offset="0.73"/>
<stop offset="1"/>
</linearGradient>
<linearGradient id="paint14_linear_3_287" x1="-1.52823" y1="114.823" x2="-1.52823" y2="23.6436" gradientUnits="userSpaceOnUse">
<stop/>
<stop offset="0.328"/>
<stop offset="0.524"/>
<stop offset="0.73"/>
<stop offset="1"/>
</linearGradient>
<linearGradient id="paint15_linear_3_287" x1="18.4718" y1="131.393" x2="18.4718" y2="46.9356" gradientUnits="userSpaceOnUse">
<stop/>
<stop offset="0.328"/>
<stop offset="0.524"/>
<stop offset="0.73"/>
<stop offset="1"/>
</linearGradient>
<linearGradient id="paint16_linear_3_287" x1="39.3948" y1="143.512" x2="39.3948" y2="75.2458" gradientUnits="userSpaceOnUse">
<stop/>
<stop offset="0.328"/>
<stop offset="0.524"/>
<stop offset="0.73"/>
<stop offset="1"/>
</linearGradient>
<linearGradient id="paint17_linear_3_287" x1="52.7282" y1="182.048" x2="52.7282" y2="69.3755" gradientUnits="userSpaceOnUse">
<stop/>
<stop offset="0.328"/>
<stop offset="0.524"/>
<stop offset="0.73"/>
<stop offset="1"/>
</linearGradient>
<linearGradient id="paint18_linear_3_287" x1="72.8307" y1="185.362" x2="72.8307" y2="91.91" gradientUnits="userSpaceOnUse">
<stop/>
<stop offset="0.328"/>
<stop offset="0.524"/>
<stop offset="0.73"/>
<stop offset="1"/>
</linearGradient>
<linearGradient id="paint19_linear_3_287" x1="90.882" y1="192.463" x2="90.882" y2="112.93" gradientUnits="userSpaceOnUse">
<stop/>
<stop offset="0.328"/>
<stop offset="0.524"/>
<stop offset="0.73"/>
<stop offset="1"/>
</linearGradient>
<linearGradient id="paint20_linear_3_287" x1="107.19" y1="255.806" x2="107.19" y2="135.369" gradientUnits="userSpaceOnUse">
<stop/>
<stop offset="0.328"/>
<stop offset="0.524"/>
<stop offset="0.73"/>
<stop offset="1"/>
</linearGradient>
</defs>
</svg>
