<svg width="121" height="131" viewBox="0 0 121 131" fill="none" xmlns="http://www.w3.org/2000/svg">
<path d="M2.41181 130.659H3.22022V126.255H4.65732V125.578H0.884857V126.255H2.41181V130.659Z" fill="url(#paint0_linear_3_412)"/>
<path fill-rule="evenodd" clip-rule="evenodd" d="M15.3459 130.659H14.5375L14.0884 129.474H12.1123L11.6632 130.659H10.8549L12.7411 125.578H13.4596L15.3459 130.659ZM13.8189 128.881L13.1004 126.679L12.292 128.881H13.8189Z" fill="url(#paint1_linear_3_412)"/>
<path d="M23.4298 126.679C23.5495 126.566 23.6692 126.481 23.789 126.425C23.9088 126.368 24.0585 126.34 24.2381 126.34C24.5375 126.34 24.777 126.396 24.9567 126.509C25.1363 126.679 25.2561 126.848 25.316 127.018H26.1244C26.0645 126.622 25.8549 126.284 25.4956 126.001C25.1962 125.719 24.777 125.578 24.2381 125.578C23.8189 125.578 23.4896 125.662 23.2501 125.832C22.9507 126.001 22.7411 126.199 22.6213 126.425C22.5615 126.594 22.5016 126.763 22.4417 126.933C22.3818 127.159 22.3519 127.554 22.3519 128.118C22.3519 128.683 22.3818 129.078 22.4417 129.304C22.4417 129.417 22.4717 129.502 22.5315 129.558C22.5315 129.615 22.5615 129.671 22.6213 129.728C22.7411 130.01 22.9507 130.236 23.2501 130.405C23.4896 130.575 23.8189 130.659 24.2381 130.659C24.8369 130.659 25.316 130.49 25.6753 130.151C25.9747 129.812 26.1543 129.389 26.2142 128.881V127.864H24.328V128.542H25.4058V128.881C25.4058 129.163 25.286 129.417 25.0465 129.643C24.8669 129.812 24.5974 129.897 24.2381 129.897C24.0585 129.897 23.9088 129.869 23.789 129.812C23.6692 129.756 23.5495 129.671 23.4298 129.558C23.3699 129.445 23.31 129.304 23.2501 129.135C23.1902 128.965 23.1602 128.627 23.1602 128.118C23.1602 127.61 23.1902 127.272 23.2501 127.102C23.31 126.933 23.3699 126.792 23.4298 126.679Z" fill="url(#paint2_linear_3_412)"/>
<path d="M36.274 125.578V130.659H39.6872V129.897H37.0824V125.578H36.274Z" fill="url(#paint3_linear_3_412)"/>
<path d="M47.9507 130.659V125.578H47.1423V130.659H47.9507Z" fill="url(#paint4_linear_3_412)"/>
<path d="M55.8549 125.578V130.659H56.6633V127.018L58.9986 130.659H59.807V125.578H58.9986V129.135L56.5734 125.578H55.8549Z" fill="url(#paint5_linear_3_412)"/>
<path d="M71.0345 126.34V125.578H67.7112V130.659H71.0345V129.897H68.4297V128.457H70.6752V127.78H68.4297V126.34H71.0345Z" fill="url(#paint6_linear_3_412)"/>
<path d="M87.3818 130.659V125.578H86.5734V127.78H84.4177V125.578H83.6094V130.659H84.4177V128.457H86.5734V130.659H87.3818Z" fill="url(#paint7_linear_3_412)"/>
<path d="M98.6093 126.34V125.578H95.1962V130.659H98.6093V129.897H96.0046V128.457H98.2501V127.78H96.0046V126.34H98.6093Z" fill="url(#paint8_linear_3_412)"/>
<path fill-rule="evenodd" clip-rule="evenodd" d="M110.017 130.659H109.029L107.951 128.457H106.873V130.659H106.064V125.578H108.22C108.639 125.578 108.999 125.691 109.298 125.917C109.597 126.199 109.777 126.566 109.837 127.018C109.777 127.695 109.418 128.147 108.759 128.373L110.017 130.659ZM108.13 127.864C108.43 127.864 108.669 127.78 108.849 127.61C108.969 127.441 109.029 127.272 109.029 127.102C109.029 126.82 108.939 126.622 108.759 126.509C108.639 126.396 108.46 126.34 108.22 126.34H106.963V127.864H108.13Z" fill="url(#paint9_linear_3_412)"/>
<path d="M120.795 126.34V125.578H117.382V130.659H120.795V129.897H118.19V128.457H120.436V127.78H118.19V126.34H120.795Z" fill="url(#paint10_linear_3_412)"/>
<path d="M6.54353 119.649C7.80101 119.649 8.87889 119.367 9.77709 118.803C10.7352 118.181 11.4238 117.335 11.8429 116.262H8.60944C8.19028 116.996 7.53158 117.363 6.63338 117.363C5.6753 117.363 4.95671 117.109 4.47767 116.601C3.93875 116.036 3.66932 115.302 3.66932 114.399C3.66932 113.495 3.93875 112.761 4.47767 112.197C4.95671 111.689 5.6753 111.434 6.63338 111.434C7.53158 111.434 8.19028 111.801 8.60944 112.535H11.8429C11.4238 111.463 10.7352 110.616 9.77709 109.995C8.87889 109.374 7.80101 109.063 6.54353 109.063C4.98664 109.063 3.66931 109.571 2.59147 110.588C1.45374 111.604 0.884857 112.874 0.884857 114.399C0.884857 115.923 1.45374 117.193 2.59147 118.21C3.66931 119.17 4.98664 119.649 6.54353 119.649Z" fill="url(#paint11_linear_3_412)"/>
<path fill-rule="evenodd" clip-rule="evenodd" d="M28.7291 118.21C27.6513 119.226 26.334 119.734 24.7771 119.734C23.2202 119.734 21.8729 119.226 20.7352 118.21C19.6573 117.193 19.1183 115.923 19.1183 114.399C19.1183 112.874 19.6573 111.604 20.7352 110.588C21.8729 109.571 23.2202 109.063 24.7771 109.063C26.334 109.063 27.6513 109.571 28.7291 110.588C29.807 111.604 30.3459 112.874 30.3459 114.399C30.3459 115.923 29.807 117.193 28.7291 118.21ZM27.6513 114.399C27.6513 113.495 27.3819 112.761 26.8429 112.197C26.3639 111.689 25.6753 111.434 24.7771 111.434C23.8789 111.434 23.1603 111.689 22.6214 112.197C22.1423 112.761 21.9028 113.495 21.9028 114.399C21.9028 115.302 22.1423 116.036 22.6214 116.601C23.1603 117.109 23.8789 117.363 24.7771 117.363C25.6753 117.363 26.3639 117.109 26.8429 116.601C27.3819 116.036 27.6513 115.302 27.6513 114.399Z" fill="url(#paint12_linear_3_412)"/>
<path d="M50.825 109.232H47.771L44.6273 116.346L41.4836 109.232H38.3399V119.565H41.0345V113.721L43.6393 119.565H45.6153L48.1303 113.721V119.565H50.825V109.232Z" fill="url(#paint13_linear_3_412)"/>
<path fill-rule="evenodd" clip-rule="evenodd" d="M62.1423 119.565H59.4477V109.232H63.759C65.0165 109.232 66.0045 109.543 66.7231 110.164C67.4416 110.785 67.8009 111.547 67.8009 112.451C67.8009 113.128 67.5315 113.778 66.9926 114.399C66.6932 114.737 66.274 115.02 65.7351 115.246C65.1962 115.471 64.5375 115.584 63.759 115.584H62.1423V119.565ZM62.1423 113.636H63.759C64.1782 113.636 64.5076 113.523 64.7471 113.298C64.9866 113.072 65.1063 112.761 65.1063 112.366C65.1063 112.027 64.9866 111.717 64.7471 111.434C64.5076 111.209 64.1782 111.096 63.759 111.096H62.1423V113.636Z" fill="url(#paint14_linear_3_412)"/>
<path fill-rule="evenodd" clip-rule="evenodd" d="M81.7231 109.232L85.4956 119.565H82.6213L81.9926 117.871H78.1303L77.5016 119.565H74.6273L78.4896 109.232H81.7231ZM81.3639 115.923L80.0166 112.281L78.7591 115.923H81.3639Z" fill="url(#paint15_linear_3_412)"/>
<path d="M102.921 119.565V109.232H100.226V115.754L95.7351 109.232H93.0405V119.565H95.7351V113.044L100.226 119.565H102.921Z" fill="url(#paint16_linear_3_412)"/>
<path d="M114.418 116.262V119.565H117.022V116.262L120.885 109.232H117.831L115.765 113.89L113.609 109.232H110.555L114.418 116.262Z" fill="url(#paint17_linear_3_412)"/>
<path fill-rule="evenodd" clip-rule="evenodd" d="M110.825 53.9296C110.825 76.4572 91.4237 94.7504 67.5315 94.7504C43.9088 94.7504 24.6872 76.8807 24.3279 54.6918C26.6633 56.3009 29.268 57.5713 32.1423 58.5029C32.1423 58.7287 32.1722 58.9828 32.2321 59.2651C32.292 59.4909 32.3519 59.745 32.4118 60.0273C32.5315 60.7613 32.6812 61.4952 32.8609 62.2292C32.9208 62.5115 33.0106 62.7656 33.1303 62.9914C33.1902 63.2173 33.2501 63.4431 33.31 63.669C33.31 63.7254 33.31 63.7537 33.31 63.7537C33.4297 63.9795 33.5195 64.2054 33.5794 64.4312C33.6393 64.657 33.7291 64.8829 33.8489 65.1087C33.9088 65.2781 33.9686 65.4475 34.0285 65.6169C34.0884 65.7862 34.1483 65.9556 34.2082 66.125C34.2681 66.2379 34.3279 66.3791 34.3878 66.5485C34.3878 66.6049 34.3878 66.6331 34.3878 66.6331C34.5075 66.859 34.5974 67.0848 34.6573 67.3107C35.1363 68.214 35.6153 69.1174 36.0944 70.0208C36.3938 70.4724 36.6932 70.9241 36.9926 71.3758C37.1722 71.6581 37.3518 71.9404 37.5315 72.2227C37.6512 72.4486 37.771 72.6462 37.8908 72.8156C38.0704 72.9849 38.2201 73.1825 38.3399 73.4084C38.3998 73.4648 38.4297 73.5213 38.4297 73.5778C38.5495 73.6907 38.6692 73.8318 38.789 74.0012C39.0285 74.2835 39.2381 74.5376 39.4177 74.7634C39.777 75.2151 40.1363 75.6386 40.4956 76.0338C40.7351 76.2596 40.9447 76.4572 41.1243 76.6266C41.4836 77.0218 41.8728 77.4171 42.292 77.8123C42.4717 77.9817 42.6812 78.1793 42.9207 78.4051C43.1003 78.5745 43.3099 78.7439 43.5495 78.9133C43.7291 79.0826 43.9088 79.252 44.0884 79.4214C44.3878 79.6473 44.6872 79.8731 44.9866 80.0989C45.1663 80.2119 45.3459 80.353 45.5255 80.5224C45.7052 80.6918 45.9148 80.8612 46.1543 81.0305C46.3938 81.1435 46.6333 81.2846 46.8728 81.454C47.1123 81.6234 47.3519 81.7928 47.5914 81.9621C47.5914 81.9621 47.6213 81.9621 47.6812 81.9621C48.1004 82.2444 48.5495 82.5267 49.0285 82.809C49.2681 82.9784 49.5076 83.1196 49.7471 83.2325C50.0465 83.3454 50.3159 83.4866 50.5554 83.6559C50.795 83.7689 51.0345 83.8818 51.274 83.9947C51.5734 84.1641 51.8728 84.3052 52.1722 84.4182C52.4118 84.5311 52.6513 84.6158 52.8908 84.6722C53.0704 84.7851 53.28 84.8981 53.5196 85.011C53.819 85.1239 54.1483 85.2368 54.5076 85.3498C54.7471 85.4627 55.0166 85.5756 55.316 85.6885C55.5555 85.745 55.795 85.8297 56.0345 85.9426C57.4118 86.3378 58.789 86.6766 60.1662 86.9589C60.4057 87.0153 60.6752 87.0718 60.9746 87.1282C61.1543 87.1282 61.3339 87.1565 61.5135 87.2129C61.6932 87.2694 61.9028 87.2976 62.1423 87.2976C62.3818 87.3541 62.5914 87.3823 62.771 87.3823C62.9507 87.4388 63.1004 87.467 63.2201 87.467C63.4597 87.467 63.6992 87.4952 63.9387 87.5517C64.2381 87.5517 64.5076 87.5799 64.7471 87.6364H64.8369C65.1363 87.6364 65.4357 87.6364 65.7351 87.6364C66.0345 87.6929 66.3339 87.7211 66.6333 87.7211C66.9327 87.7211 67.2321 87.7211 67.5315 87.7211C87.292 87.7211 103.37 72.5615 103.37 53.9296C103.37 53.6473 103.37 53.365 103.37 53.0827C103.31 52.8003 103.28 52.518 103.28 52.2357C103.28 51.9534 103.28 51.6711 103.28 51.3888C103.22 51.163 103.19 50.9372 103.19 50.7113C103.19 50.5984 103.16 50.4572 103.1 50.2879C103.1 50.1185 103.1 49.9491 103.1 49.7797C103.04 49.7233 103.011 49.6386 103.011 49.5257C103.011 49.2998 102.981 49.1022 102.921 48.9328C102.921 48.707 102.891 48.4811 102.831 48.2553C102.831 48.1424 102.801 48.0012 102.741 47.8318C102.741 47.7189 102.711 47.606 102.651 47.4931C102.651 47.3237 102.621 47.1543 102.561 46.9849C102.382 46.1945 102.202 45.4323 102.023 44.6983C101.903 44.4725 101.813 44.2466 101.753 44.0208C101.753 43.9643 101.753 43.9361 101.753 43.9361C101.633 43.6538 101.543 43.3997 101.484 43.1739C101.304 42.7222 101.124 42.2705 100.945 41.8188C100.885 41.6494 100.825 41.4801 100.765 41.3107C100.645 41.0848 100.555 40.8872 100.496 40.7178C100.376 40.492 100.256 40.2944 100.136 40.125C100.076 39.8992 99.9866 39.6733 99.8668 39.4475C99.6273 38.9393 99.3578 38.4312 99.0584 37.923C98.8788 37.6972 98.7291 37.4431 98.6093 37.1608C98.4297 36.935 98.28 36.7091 98.1602 36.4833C97.8608 36.0316 97.5614 35.5799 97.262 35.1283C97.0824 34.9024 96.9028 34.6766 96.7231 34.4507C96.5435 34.2249 96.3639 33.9991 96.1842 33.7732C96.0046 33.5474 95.8249 33.3215 95.6453 33.0957C95.5255 32.9263 95.3758 32.7569 95.1962 32.5875C94.9566 32.3052 94.7171 32.0512 94.4776 31.8253C94.3578 31.6559 94.2081 31.4866 94.0285 31.3172C93.8489 31.0913 93.6692 30.8937 93.4896 30.7244C91.7531 29.0305 89.8369 27.5061 87.7411 26.1511C87.5614 26.0381 87.3818 25.9252 87.2022 25.8123C87.0225 25.6994 86.8429 25.5865 86.6632 25.4735C86.6033 25.4171 86.5135 25.3606 86.3938 25.3042C86.2141 25.1912 86.0345 25.0783 85.8549 24.9654C85.4357 24.7396 85.0165 24.5137 84.5974 24.2879C84.3578 24.1749 84.1183 24.062 83.8788 23.9491C82.801 23.3845 81.6633 22.9046 80.4657 22.5094C80.286 22.4529 80.1063 22.3964 79.9267 22.34C79.7471 22.2271 79.5375 22.1424 79.2979 22.0859C79.1183 22.0295 78.9088 21.973 78.6692 21.9165C78.4896 21.8601 78.28 21.8036 78.0405 21.7471C77.801 21.6342 77.5615 21.5495 77.3219 21.4931C77.0824 21.4366 76.8429 21.3802 76.6033 21.3237C76.5435 21.3237 76.4836 21.3237 76.4237 21.3237C76.2441 21.2672 76.0644 21.2108 75.8848 21.1543C74.6872 20.872 73.4597 20.6744 72.2022 20.5615C71.304 17.8514 69.8668 15.3954 68.2501 13.1934C91.783 13.5322 110.825 31.6559 110.825 53.9296ZM25.1363 46.0533C28.4596 29.8774 41.9327 17.1739 59.0884 13.9556C61.0644 15.8188 62.771 18.0208 64.0285 20.3921C63.5494 20.4486 63.0704 20.505 62.5914 20.5615C62.3519 20.5615 62.1423 20.5897 61.9626 20.6462C61.783 20.6462 61.6034 20.6744 61.4237 20.7309C61.1842 20.7873 60.9147 20.8438 60.6153 20.9002C60.4956 20.9002 60.3758 20.9285 60.2561 20.9849C60.1363 20.9849 60.0465 20.9849 59.9866 20.9849C59.8069 21.0414 59.5974 21.0979 59.3579 21.1543C59.1184 21.2108 58.8788 21.2672 58.6393 21.3237C58.3399 21.3802 58.0405 21.4366 57.7411 21.4931C57.5015 21.606 57.2321 21.6907 56.9327 21.7471C56.6932 21.8036 56.4537 21.8883 56.2142 22.0012C56.0944 22.0012 56.0045 22.0295 55.9447 22.0859C55.7051 22.1424 55.4956 22.1988 55.316 22.2553C55.0764 22.3682 54.8369 22.4529 54.5974 22.5094C54.2381 22.6787 53.8788 22.8199 53.5196 22.9328C53.0405 23.1587 52.5614 23.3563 52.0824 23.5257C51.783 23.695 51.5136 23.8362 51.274 23.9491C51.0345 24.062 50.795 24.1749 50.5554 24.2879C50.256 24.4572 49.9866 24.5984 49.7471 24.7113C49.5674 24.8242 49.3878 24.9372 49.2081 25.0501C49.0285 25.1065 48.8788 25.1912 48.759 25.3042C48.5794 25.4171 48.3998 25.5018 48.2201 25.5582C47.9806 25.7276 47.771 25.8688 47.5914 25.9817C46.8129 26.4898 46.0644 26.998 45.3459 27.5061C45.1662 27.6755 44.9866 27.8166 44.807 27.9296C44.5076 28.1554 44.2082 28.4095 43.9088 28.6918C43.7291 28.8612 43.5495 29.0023 43.3698 29.1152C43.1303 29.3411 42.8908 29.5669 42.6513 29.7928C42.5315 29.9057 42.3818 30.0186 42.2022 30.1315C41.8429 30.4703 41.5136 30.8373 41.2142 31.2325C41.0345 31.3454 40.8548 31.5148 40.6752 31.7406C40.3159 32.1359 39.9567 32.5311 39.5974 32.9263C39.4776 33.0957 39.3579 33.2368 39.2381 33.3498C39.0585 33.5756 38.9088 33.7732 38.789 33.9426C38.31 34.5072 37.8908 35.1 37.5315 35.7211C37.4117 35.8905 37.292 36.0316 37.1722 36.1445C37.1124 36.3139 37.0225 36.4833 36.9028 36.6527C36.783 36.8221 36.6632 36.9915 36.5435 37.1608C36.4237 37.3867 36.3039 37.6125 36.1842 37.8384C36.1243 37.8948 36.0944 37.9513 36.0944 38.0077C35.9746 38.1207 35.8848 38.2618 35.8249 38.4312C35.7651 38.5441 35.6752 38.6853 35.5555 38.8546C35.4956 39.024 35.4057 39.2216 35.286 39.4475C35.0465 39.8992 34.8369 40.3508 34.6573 40.8025C34.4776 41.1977 34.298 41.593 34.1183 41.9882C34.0584 42.1011 34.0285 42.214 34.0285 42.327C33.9088 42.4963 33.819 42.6657 33.7591 42.8351C33.6992 43.0609 33.6393 43.2586 33.5794 43.4279C33.5195 43.5409 33.4896 43.6255 33.4896 43.682C33.4297 43.8514 33.3699 44.0208 33.31 44.1901C33.2501 44.4724 33.1902 44.7265 33.1303 44.9524C32.8309 45.8557 32.5914 46.8156 32.4118 47.8318C32.3519 48.0577 32.292 48.2835 32.2321 48.5094C32.2321 48.7917 32.2021 49.0457 32.1423 49.2716C32.0824 49.4974 32.0525 49.7515 32.0525 50.0338C31.9926 50.2596 31.9627 50.5137 31.9627 50.796C29.3579 49.6103 27.1123 48.0012 25.1363 46.0533Z" fill="url(#paint18_linear_3_412)"/>
<path d="M73.4596 24.8807C71.5435 24.5419 69.5674 24.3726 67.5315 24.3726C66.9327 24.3726 66.3339 24.4008 65.7351 24.4573C66.274 26.3769 66.5435 28.353 66.5435 30.3856C66.5435 42.9198 55.765 53.0827 42.4716 53.0827C40.3159 53.0827 38.2501 52.8286 36.274 52.3204C36.2142 52.8286 36.1842 53.365 36.1842 53.9296C36.1842 55.9057 36.3938 57.7971 36.8129 59.6038C38.6692 59.9426 40.5555 60.112 42.4716 60.112C59.8968 60.112 73.9986 46.8156 73.9986 30.3856C73.9986 28.5224 73.8189 26.6874 73.4596 24.8807ZM42.4716 0.65921C25.0465 0.65921 10.9447 13.9556 10.9447 30.3856C10.9447 38.5159 14.3579 45.884 20.0165 51.2195C20.1962 48.0012 20.7351 44.783 21.6333 41.7341C19.6573 38.4312 18.3998 34.5354 18.3998 30.3856C18.3998 17.8514 29.268 7.68852 42.4716 7.68852C46.8728 7.68852 50.9148 8.7895 54.5076 10.7374C57.7411 9.83401 61.0644 9.29765 64.4776 9.12827C58.8189 3.87745 51.0944 0.65921 42.4716 0.65921Z" fill="url(#paint19_linear_3_412)"/>
<defs>
<linearGradient id="paint0_linear_3_412" x1="-1.00137" y1="148.952" x2="-1.00137" y2="-27.5428" gradientUnits="userSpaceOnUse">
<stop/>
<stop offset="0.328"/>
<stop offset="0.524"/>
<stop offset="0.73"/>
<stop offset="1"/>
</linearGradient>
<linearGradient id="paint1_linear_3_412" x1="9.95668" y1="156.236" x2="9.95668" y2="6.92631" gradientUnits="userSpaceOnUse">
<stop/>
<stop offset="0.328"/>
<stop offset="0.524"/>
<stop offset="0.73"/>
<stop offset="1"/>
</linearGradient>
<linearGradient id="paint2_linear_3_412" x1="20.4657" y1="174.105" x2="20.4657" y2="6.33347" gradientUnits="userSpaceOnUse">
<stop/>
<stop offset="0.328"/>
<stop offset="0.524"/>
<stop offset="0.73"/>
<stop offset="1"/>
</linearGradient>
<linearGradient id="paint3_linear_3_412" x1="33.7591" y1="201.545" x2="33.7591" y2="9.12826" gradientUnits="userSpaceOnUse">
<stop/>
<stop offset="0.328"/>
<stop offset="0.524"/>
<stop offset="0.73"/>
<stop offset="1"/>
</linearGradient>
<linearGradient id="paint4_linear_3_412" x1="29.9861" y1="310.796" x2="29.9861" y2="-90.2138" gradientUnits="userSpaceOnUse">
<stop/>
<stop offset="0.328"/>
<stop offset="0.524"/>
<stop offset="0.73"/>
<stop offset="1"/>
</linearGradient>
<linearGradient id="paint5_linear_3_412" x1="54.2381" y1="202.053" x2="54.2381" y2="62.9068" gradientUnits="userSpaceOnUse">
<stop/>
<stop offset="0.328"/>
<stop offset="0.524"/>
<stop offset="0.73"/>
<stop offset="1"/>
</linearGradient>
<linearGradient id="paint6_linear_3_412" x1="65.1962" y1="225.851" x2="65.1962" y2="67.4801" gradientUnits="userSpaceOnUse">
<stop/>
<stop offset="0.328"/>
<stop offset="0.524"/>
<stop offset="0.73"/>
<stop offset="1"/>
</linearGradient>
<linearGradient id="paint7_linear_3_412" x1="81.6333" y1="235.252" x2="81.6333" y2="87.8905" gradientUnits="userSpaceOnUse">
<stop/>
<stop offset="0.328"/>
<stop offset="0.524"/>
<stop offset="0.73"/>
<stop offset="1"/>
</linearGradient>
<linearGradient id="paint8_linear_3_412" x1="92.771" y1="256.594" x2="92.771" y2="98.3074" gradientUnits="userSpaceOnUse">
<stop/>
<stop offset="0.328"/>
<stop offset="0.524"/>
<stop offset="0.73"/>
<stop offset="1"/>
</linearGradient>
<linearGradient id="paint9_linear_3_412" x1="104.448" y1="267.434" x2="104.448" y2="111.35" gradientUnits="userSpaceOnUse">
<stop/>
<stop offset="0.328"/>
<stop offset="0.524"/>
<stop offset="0.73"/>
<stop offset="1"/>
</linearGradient>
<linearGradient id="paint10_linear_3_412" x1="114.957" y1="282.594" x2="114.957" y2="124.307" gradientUnits="userSpaceOnUse">
<stop/>
<stop offset="0.328"/>
<stop offset="0.524"/>
<stop offset="0.73"/>
<stop offset="1"/>
</linearGradient>
<linearGradient id="paint11_linear_3_412" x1="0.525575" y1="134.724" x2="0.525575" y2="7.9426" gradientUnits="userSpaceOnUse">
<stop/>
<stop offset="0.328"/>
<stop offset="0.524"/>
<stop offset="0.73"/>
<stop offset="1"/>
</linearGradient>
<linearGradient id="paint12_linear_3_412" x1="19.1183" y1="151.493" x2="19.1183" y2="26.0664" gradientUnits="userSpaceOnUse">
<stop/>
<stop offset="0.328"/>
<stop offset="0.524"/>
<stop offset="0.73"/>
<stop offset="1"/>
</linearGradient>
<linearGradient id="paint13_linear_3_412" x1="39.777" y1="157.845" x2="39.777" y2="59.6885" gradientUnits="userSpaceOnUse">
<stop/>
<stop offset="0.328"/>
<stop offset="0.524"/>
<stop offset="0.73"/>
<stop offset="1"/>
</linearGradient>
<linearGradient id="paint14_linear_3_412" x1="56.3938" y1="198.412" x2="56.3938" y2="53.8449" gradientUnits="userSpaceOnUse">
<stop/>
<stop offset="0.328"/>
<stop offset="0.524"/>
<stop offset="0.73"/>
<stop offset="1"/>
</linearGradient>
<linearGradient id="paint15_linear_3_412" x1="74.4477" y1="204.509" x2="74.4477" y2="75.441" gradientUnits="userSpaceOnUse">
<stop/>
<stop offset="0.328"/>
<stop offset="0.524"/>
<stop offset="0.73"/>
<stop offset="1"/>
</linearGradient>
<linearGradient id="paint16_linear_3_412" x1="91.783" y1="215.265" x2="91.783" y2="94.8351" gradientUnits="userSpaceOnUse">
<stop/>
<stop offset="0.328"/>
<stop offset="0.524"/>
<stop offset="0.73"/>
<stop offset="1"/>
</linearGradient>
<linearGradient id="paint17_linear_3_412" x1="109.837" y1="247.278" x2="109.837" y2="111.096" gradientUnits="userSpaceOnUse">
<stop/>
<stop offset="0.328"/>
<stop offset="0.524"/>
<stop offset="0.73"/>
<stop offset="1"/>
</linearGradient>
<linearGradient id="paint18_linear_3_412" x1="24.3279" y1="13.1934" x2="110.825" y2="13.1934" gradientUnits="userSpaceOnUse">
<stop/>
<stop offset="0.328"/>
<stop offset="0.524"/>
<stop offset="0.73"/>
<stop offset="1"/>
</linearGradient>
<linearGradient id="paint19_linear_3_412" x1="10.9447" y1="0.65921" x2="73.9986" y2="0.65921" gradientUnits="userSpaceOnUse">
<stop/>
<stop offset="0.328"/>
<stop offset="0.524"/>
<stop offset="0.73"/>
<stop offset="1"/>
</linearGradient>
</defs>
</svg>
