<svg width="121" height="131" viewBox="0 0 121 131" fill="none" xmlns="http://www.w3.org/2000/svg">
<path d="M85.8898 31.4511L70.1075 44.4511L76.1846 49.4282L91.9669 36.5025L85.8898 31.4511Z" fill="url(#paint0_linear_3_200)"/>
<path d="M53.9624 57.674L38.0894 70.5997L44.2571 75.5768L60.0395 62.6511L53.9624 57.674Z" fill="url(#paint1_linear_3_200)"/>
<path d="M66.1165 41.1825L81.9895 28.2568L75.8218 23.2797L60.0395 36.2054L66.1165 41.1825Z" fill="url(#paint2_linear_3_200)"/>
<path d="M49.9714 54.4054L43.8943 49.4283L28.112 62.3539L34.1891 67.4054L49.9714 54.4054Z" fill="url(#paint3_linear_3_200)"/>
<path d="M49.9714 44.4511L34.1891 31.4511L28.112 36.5025L43.8943 49.4282L49.9714 44.4511Z" fill="url(#paint4_linear_3_200)"/>
<path d="M53.9624 41.1825L60.0395 36.2054L44.2571 23.2797L38.0894 28.2568L53.9624 41.1825Z" fill="url(#paint5_linear_3_200)"/>
<path d="M70.1075 54.4054L85.8898 67.4054L91.9669 62.3539L76.1846 49.4283L70.1075 54.4054Z" fill="url(#paint6_linear_3_200)"/>
<path d="M81.9895 70.5997L66.1165 57.674L60.0395 62.6511L75.8218 75.5768L81.9895 70.5997Z" fill="url(#paint7_linear_3_200)"/>
<path d="M81.9896 80.6283L75.8218 75.5768L60.0395 88.5768L44.2571 75.5768L38.0894 80.6283L60.0395 98.5311L81.9896 80.6283Z" fill="url(#paint8_linear_3_200)"/>
<path d="M28.112 36.5025L21.9442 31.4511L0.0847626 49.4282L21.9442 67.4054L28.112 62.3539L12.239 49.4282L28.112 36.5025Z" fill="url(#paint9_linear_3_200)"/>
<path d="M98.1347 31.4511L91.9669 36.5025L107.84 49.4282L91.9669 62.3539L98.1347 67.4054L119.994 49.4282L98.1347 31.4511Z" fill="url(#paint10_linear_3_200)"/>
<path d="M75.8218 23.2797L81.9896 18.2283L60.0395 0.325378L38.0894 18.2283L44.2571 23.2797L60.0395 10.2797L75.8218 23.2797Z" fill="url(#paint11_linear_3_200)"/>
<path d="M9.69933 120.965C10.6064 120.371 11.3319 119.48 11.6948 118.365V118.217L9.79001 117.845L9.69933 117.92C9.51793 118.762 9.09462 119.405 8.42947 119.851C7.82478 120.247 7.03871 120.47 6.07121 120.52C5.34559 120.52 4.65016 120.346 3.985 120C3.31985 119.703 2.83612 119.232 2.53378 118.588C2.23143 117.944 2.08026 117.202 2.08026 116.36C2.08026 115.666 2.23143 115.023 2.53378 114.428C2.77565 113.784 3.19895 113.289 3.80364 112.943C4.4688 112.596 5.28508 112.423 6.25258 112.423C7.09914 112.373 7.79457 112.522 8.33879 112.868C8.88301 113.215 9.27604 113.735 9.51792 114.428L9.6086 114.503L11.5134 114.205L11.4227 114.057C11.0598 113.116 10.4552 112.373 9.6086 111.828C8.70157 111.283 7.58289 111.011 6.25258 111.011C5.10367 111.011 4.04547 111.234 3.07797 111.68C2.17094 112.076 1.44535 112.695 0.901134 113.537C0.356917 114.354 0.175522 115.245 0.175522 116.36C0.175522 117.35 0.387118 118.266 0.810398 119.108C1.26391 120 1.98955 120.668 2.80587 121.114C3.7129 121.609 4.8618 121.857 6.25258 121.857C7.58289 121.857 8.73183 121.56 9.69933 120.965Z" fill="url(#paint12_linear_3_200)"/>
<path fill-rule="evenodd" clip-rule="evenodd" d="M26.9329 121.188C25.9654 121.634 24.9072 121.857 23.7583 121.857C22.5489 121.857 21.4604 121.609 20.4929 121.114C19.5254 120.619 18.7999 119.975 18.3161 119.183C17.8324 118.341 17.5904 117.474 17.5904 116.583C17.5904 114.874 18.1347 113.463 19.3138 112.497C20.4627 111.506 21.9744 111.011 23.849 111.011C24.9979 111.011 26.0561 111.259 27.0236 111.754C27.9911 112.2 28.7469 112.843 29.2911 113.685C29.7749 114.478 30.0168 115.394 30.0168 116.434C30.0168 117.523 29.7447 118.464 29.2005 119.257C28.6562 120.148 27.9306 120.743 26.9329 121.188ZM26.8422 119.405C27.6282 118.712 28.0213 117.722 28.0213 116.434C28.0213 115.592 27.8701 114.874 27.5678 114.28C27.205 113.685 26.691 113.215 26.0259 112.868C25.3607 112.571 24.6351 112.423 23.849 112.423C22.6698 112.423 21.6721 112.72 20.765 113.314C19.9487 113.983 19.4952 115.097 19.4952 116.583C19.5557 117.771 19.979 118.737 20.765 119.48C21.5511 120.123 22.5489 120.47 23.7583 120.52C25.0281 120.52 26.0258 120.148 26.8422 119.405Z" fill="url(#paint13_linear_3_200)"/>
<path d="M49.0644 111.383H47.2503V121.857H49.0644V111.383Z" fill="url(#paint14_linear_3_200)"/>
<path d="M43.713 121.857L46.5247 115.171V111.457L43.5315 118.588C43.2897 119.133 43.1082 119.579 42.9873 119.925L42.4431 118.737L39.3592 111.383H39.1778V115.171L41.9896 121.857H43.713Z" fill="url(#paint15_linear_3_200)"/>
<path d="M38.5429 111.383H36.6381V121.857H38.5429V111.383Z" fill="url(#paint16_linear_3_200)"/>
<path d="M64.5746 116.731C65.3003 116.087 65.663 115.32 65.663 114.428C65.663 113.933 65.5421 113.463 65.3002 113.017C65.0281 112.571 64.6653 112.2 64.2118 111.977C63.7885 111.729 63.2443 111.556 62.5792 111.457C62.1559 111.407 61.4907 111.383 60.5837 111.383H58.3161V112.794H60.7651C61.4907 112.794 62.0047 112.819 62.3071 112.868C62.7303 112.967 63.0629 113.165 63.3048 113.463C63.5466 113.76 63.6676 114.106 63.6676 114.503C63.6676 115.047 63.4559 115.468 63.0327 115.765C62.6094 116.112 61.8535 116.285 60.7651 116.285H58.3161V117.697H60.7651C62.5792 117.697 63.849 117.325 64.5746 116.731Z" fill="url(#paint17_linear_3_200)"/>
<path d="M57.5905 111.383H55.6857V121.857H57.5905V111.383Z" fill="url(#paint18_linear_3_200)"/>
<path d="M79.2685 111.383H77.273L72.2844 121.857H74.2798L74.9147 120.594H74.824L76.2753 117.4L76.6381 116.805L77.6358 114.503C77.8777 113.958 78.0893 113.438 78.2708 112.943C78.4522 113.438 78.694 114.032 78.9964 114.725L80.2662 117.4H77.0009L76.4567 118.737H80.9012L82.4431 121.857H84.62L79.2685 111.383Z" fill="url(#paint19_linear_3_200)"/>
<path d="M99.4045 119.183V121.857H101.309V111.383H99.4045V119.257V119.183Z" fill="url(#paint20_linear_3_200)"/>
<path d="M90.9691 121.857H92.7832V111.383H90.9691V121.857Z" fill="url(#paint21_linear_3_200)"/>
<path d="M98.6789 118.365L93.4182 112.051V114.725L98.6789 121.04V118.365Z" fill="url(#paint22_linear_3_200)"/>
<path d="M117.817 111.383L115.278 114.428C114.794 115.072 114.371 115.642 114.008 116.137L112.919 117.4V121.857H114.824V117.4L120.085 111.383H117.817Z" fill="url(#paint23_linear_3_200)"/>
<path d="M112.829 114.503L110.289 111.383H107.931L112.556 116.954L113.554 115.543L112.829 114.503Z" fill="url(#paint24_linear_3_200)"/>
<path d="M2.08026 130.325V127.057H3.35013V126.537H0.175522V127.057H1.44533V130.325H2.08026Z" fill="url(#paint25_linear_3_200)"/>
<path fill-rule="evenodd" clip-rule="evenodd" d="M10.7877 130.325H9.97145L9.69935 129.508H7.88529L7.52246 130.325H6.79684L8.52017 126.537H9.06442L10.7877 130.325ZM9.51793 128.988L8.79232 127.28L8.15739 128.988H9.51793Z" fill="url(#paint26_linear_3_200)"/>
<path d="M15.7764 127.354C15.8973 127.255 16.0183 127.181 16.1392 127.131C16.2602 127.082 16.3811 127.057 16.5021 127.057C16.7439 127.057 16.9555 127.106 17.1369 127.205C17.2579 127.354 17.3486 127.503 17.4091 127.651H18.1347C18.0742 127.304 17.8928 127.032 17.5904 126.834C17.3486 126.636 16.9858 126.537 16.5021 126.537C16.1392 126.537 15.8369 126.586 15.595 126.685C15.3531 126.834 15.1717 127.007 15.0508 127.205C14.9903 127.304 14.9601 127.428 14.9601 127.577C14.8996 127.725 14.8694 127.998 14.8694 128.394C14.8694 128.84 14.8996 129.137 14.9601 129.285C14.9601 129.384 14.9601 129.459 14.9601 129.508C15.0206 129.558 15.0508 129.607 15.0508 129.657C15.1717 129.855 15.3531 130.003 15.595 130.103C15.8369 130.251 16.1392 130.325 16.5021 130.325C16.9858 130.325 17.3788 130.202 17.6812 129.954C17.9835 129.706 18.1347 129.384 18.1347 128.988V128.245H16.5021V128.765H17.4998V128.988C17.4998 129.236 17.4091 129.434 17.2277 129.583C17.0463 129.731 16.8044 129.805 16.5021 129.805C16.3811 129.805 16.2602 129.781 16.1392 129.731C16.0183 129.682 15.8973 129.607 15.7764 129.508C15.7159 129.409 15.6555 129.31 15.595 129.211C15.595 129.063 15.595 128.79 15.595 128.394C15.595 128.047 15.595 127.8 15.595 127.651C15.6555 127.552 15.7159 127.453 15.7764 127.354Z" fill="url(#paint27_linear_3_200)"/>
<path d="M22.8513 126.537V130.325H25.8445V129.805H23.5769V126.537H22.8513Z" fill="url(#paint28_linear_3_200)"/>
<path d="M31.1052 130.325V126.537H30.3796V130.325H31.1052Z" fill="url(#paint29_linear_3_200)"/>
<path d="M36.7288 127.651L38.815 130.325H39.4499V126.537H38.7243V129.211L36.6381 126.537H36.0032V130.325H36.7288V127.651Z" fill="url(#paint30_linear_3_200)"/>
<path d="M47.2503 127.057V126.537H44.3478V130.325H47.2503V129.805H45.0735V128.691H46.9782V128.171H45.0735V127.057H47.2503Z" fill="url(#paint31_linear_3_200)"/>
<path d="M57.2277 129.508C57.2881 129.558 57.3184 129.607 57.3184 129.657C57.4393 129.855 57.6207 130.003 57.8626 130.103C58.1045 130.251 58.4068 130.325 58.7696 130.325C59.2534 130.325 59.6464 130.202 59.9487 129.954C60.2511 129.706 60.4325 129.384 60.493 128.988V128.245H58.7696V128.765H59.7673V128.988C59.7673 129.236 59.6766 129.434 59.4952 129.583C59.3138 129.731 59.072 129.805 58.7696 129.805C58.6487 129.805 58.5277 129.781 58.4068 129.731C58.2858 129.682 58.1649 129.607 58.044 129.508C57.9835 129.409 57.9231 129.31 57.8626 129.211C57.8626 129.063 57.8626 128.79 57.8626 128.394C57.8626 128.047 57.8626 127.8 57.8626 127.651C57.9231 127.552 57.9835 127.453 58.044 127.354C58.1649 127.255 58.2858 127.181 58.4068 127.131C58.5277 127.082 58.6487 127.057 58.7696 127.057C59.0115 127.057 59.2231 127.106 59.4046 127.205C59.5255 127.354 59.6162 127.503 59.6766 127.651H60.4023C60.3418 127.304 60.1604 127.032 59.8581 126.834C59.6162 126.636 59.2534 126.537 58.7696 126.537C58.4068 126.537 58.1045 126.586 57.8626 126.685C57.6207 126.834 57.4393 127.007 57.3184 127.205C57.2579 127.304 57.2277 127.428 57.2277 127.577C57.1672 127.725 57.137 127.998 57.137 128.394C57.137 128.84 57.1672 129.137 57.2277 129.285C57.2277 129.384 57.2277 129.459 57.2277 129.508Z" fill="url(#paint32_linear_3_200)"/>
<path fill-rule="evenodd" clip-rule="evenodd" d="M65.0281 129.285C65.0281 129.137 65.0281 128.84 65.0281 128.394C65.0281 127.998 65.0281 127.725 65.0281 127.577C65.0886 127.428 65.149 127.304 65.2095 127.205C65.3304 127.007 65.5119 126.834 65.7537 126.685C65.9956 126.586 66.298 126.537 66.6608 126.537C67.0236 126.537 67.3259 126.586 67.5678 126.685C67.8097 126.834 67.9911 127.007 68.112 127.205C68.1725 127.304 68.233 127.428 68.2934 127.577C68.2934 127.725 68.2934 127.998 68.2934 128.394C68.2934 128.84 68.2934 129.137 68.2934 129.285C68.233 129.434 68.1725 129.558 68.112 129.657C67.9911 129.855 67.8097 130.003 67.5678 130.103C67.3259 130.251 67.0236 130.325 66.6608 130.325C66.298 130.325 65.9956 130.251 65.7537 130.103C65.5119 130.003 65.3304 129.855 65.2095 129.657C65.2095 129.607 65.1793 129.558 65.1188 129.508C65.1188 129.459 65.0886 129.384 65.0281 129.285ZM65.7537 128.394C65.7537 128.79 65.7537 129.063 65.7537 129.211C65.8142 129.31 65.8747 129.409 65.9352 129.508C65.9956 129.607 66.0863 129.682 66.2073 129.731C66.3282 129.781 66.4794 129.805 66.6608 129.805C66.8422 129.805 66.9934 129.781 67.1143 129.731C67.2352 129.682 67.3259 129.607 67.3864 129.508C67.4469 129.409 67.5073 129.31 67.5678 129.211C67.6283 129.063 67.6585 128.79 67.6585 128.394C67.6585 128.047 67.6283 127.8 67.5678 127.651C67.5073 127.552 67.4469 127.453 67.3864 127.354C67.3259 127.255 67.2352 127.181 67.1143 127.131C66.9934 127.082 66.8422 127.057 66.6608 127.057C66.4794 127.057 66.3282 127.082 66.2073 127.131C66.0863 127.181 65.9956 127.255 65.9352 127.354C65.8747 127.453 65.8142 127.552 65.7537 127.651C65.7537 127.8 65.7537 128.047 65.7537 128.394Z" fill="url(#paint33_linear_3_200)"/>
<path d="M76.0032 127.057V126.537H73.01V130.325H76.0032V129.805H73.7356V128.691H75.6403V128.171H73.7356V127.057H76.0032Z" fill="url(#paint34_linear_3_200)"/>
<path d="M81.8989 129.805C81.4151 129.805 80.9918 129.682 80.629 129.434L80.1755 129.805C80.6592 130.152 81.2337 130.325 81.8989 130.325C82.9873 130.325 83.5315 129.979 83.5315 129.285C83.5315 128.988 83.4408 128.741 83.2594 128.543C83.0175 128.344 82.685 128.221 82.2617 128.171C82.0198 128.122 81.8384 128.097 81.7174 128.097C81.536 128.047 81.3849 127.998 81.2639 127.948C81.143 127.849 81.0825 127.75 81.0825 127.651C81.0825 127.453 81.1733 127.304 81.3547 127.205C81.4756 127.106 81.657 127.057 81.8989 127.057C82.3221 127.057 82.685 127.156 82.9873 127.354L83.4408 126.908C83.0175 126.661 82.5035 126.537 81.8989 126.537C81.4151 126.537 81.0523 126.636 80.8104 126.834C80.5081 127.032 80.3569 127.28 80.3569 127.577C80.3569 127.874 80.4779 128.122 80.7197 128.32C80.9011 128.518 81.2035 128.642 81.6268 128.691C81.8686 128.691 82.0803 128.716 82.2617 128.765C82.6245 128.815 82.8059 128.988 82.8059 129.285C82.8059 129.632 82.5035 129.805 81.8989 129.805Z" fill="url(#paint35_linear_3_200)"/>
<path d="M96.8649 130.325V126.537H96.1393V128.171H94.3252V126.537H93.5996V130.325H94.3252V128.691H96.1393V130.325H96.8649Z" fill="url(#paint36_linear_3_200)"/>
<path d="M104.665 127.057V126.537H101.763V130.325H104.665V129.805H102.488V128.691H104.393V128.171H102.488V127.057H104.665Z" fill="url(#paint37_linear_3_200)"/>
<path fill-rule="evenodd" clip-rule="evenodd" d="M111.559 128.617L112.647 130.325H111.831L110.833 128.691H109.926V130.325H109.291V126.537H111.105C111.468 126.537 111.77 126.611 112.012 126.76C112.315 126.958 112.466 127.23 112.466 127.577C112.466 128.122 112.163 128.468 111.559 128.617ZM111.831 127.577C111.831 127.379 111.74 127.23 111.559 127.131C111.438 127.082 111.287 127.057 111.105 127.057H109.926V128.171H111.014C111.256 128.171 111.468 128.122 111.649 128.023C111.77 127.923 111.831 127.775 111.831 127.577Z" fill="url(#paint38_linear_3_200)"/>
<path d="M120.085 127.057V126.537H117.092V130.325H120.085V129.805H117.817V128.691H119.722V128.171H117.817V127.057H120.085Z" fill="url(#paint39_linear_3_200)"/>
<defs>
<linearGradient id="paint0_linear_3_200" x1="70.1075" y1="31.4511" x2="91.9669" y2="31.4511" gradientUnits="userSpaceOnUse">
<stop/>
<stop offset="0.328"/>
<stop offset="0.524"/>
<stop offset="0.73"/>
<stop offset="1"/>
</linearGradient>
<linearGradient id="paint1_linear_3_200" x1="38.0894" y1="57.674" x2="60.0395" y2="57.674" gradientUnits="userSpaceOnUse">
<stop/>
<stop offset="0.328"/>
<stop offset="0.524"/>
<stop offset="0.73"/>
<stop offset="1"/>
</linearGradient>
<linearGradient id="paint2_linear_3_200" x1="60.0395" y1="23.2797" x2="81.9895" y2="23.2797" gradientUnits="userSpaceOnUse">
<stop/>
<stop offset="0.328"/>
<stop offset="0.524"/>
<stop offset="0.73"/>
<stop offset="1"/>
</linearGradient>
<linearGradient id="paint3_linear_3_200" x1="28.112" y1="49.4283" x2="49.9714" y2="49.4283" gradientUnits="userSpaceOnUse">
<stop/>
<stop offset="0.328"/>
<stop offset="0.524"/>
<stop offset="0.73"/>
<stop offset="1"/>
</linearGradient>
<linearGradient id="paint4_linear_3_200" x1="28.112" y1="31.4511" x2="49.9714" y2="31.4511" gradientUnits="userSpaceOnUse">
<stop/>
<stop offset="0.328"/>
<stop offset="0.524"/>
<stop offset="0.73"/>
<stop offset="1"/>
</linearGradient>
<linearGradient id="paint5_linear_3_200" x1="38.0894" y1="23.2797" x2="60.0395" y2="23.2797" gradientUnits="userSpaceOnUse">
<stop/>
<stop offset="0.328"/>
<stop offset="0.524"/>
<stop offset="0.73"/>
<stop offset="1"/>
</linearGradient>
<linearGradient id="paint6_linear_3_200" x1="70.1075" y1="49.4283" x2="91.9669" y2="49.4283" gradientUnits="userSpaceOnUse">
<stop/>
<stop offset="0.328"/>
<stop offset="0.524"/>
<stop offset="0.73"/>
<stop offset="1"/>
</linearGradient>
<linearGradient id="paint7_linear_3_200" x1="60.0395" y1="57.674" x2="81.9895" y2="57.674" gradientUnits="userSpaceOnUse">
<stop/>
<stop offset="0.328"/>
<stop offset="0.524"/>
<stop offset="0.73"/>
<stop offset="1"/>
</linearGradient>
<linearGradient id="paint8_linear_3_200" x1="38.0894" y1="75.5768" x2="81.9896" y2="75.5768" gradientUnits="userSpaceOnUse">
<stop/>
<stop offset="0.328"/>
<stop offset="0.524"/>
<stop offset="0.73"/>
<stop offset="1"/>
</linearGradient>
<linearGradient id="paint9_linear_3_200" x1="0.0847626" y1="31.4511" x2="28.112" y2="31.4511" gradientUnits="userSpaceOnUse">
<stop/>
<stop offset="0.328"/>
<stop offset="0.524"/>
<stop offset="0.73"/>
<stop offset="1"/>
</linearGradient>
<linearGradient id="paint10_linear_3_200" x1="91.9669" y1="31.4511" x2="119.994" y2="31.4511" gradientUnits="userSpaceOnUse">
<stop/>
<stop offset="0.328"/>
<stop offset="0.524"/>
<stop offset="0.73"/>
<stop offset="1"/>
</linearGradient>
<linearGradient id="paint11_linear_3_200" x1="38.0894" y1="0.325378" x2="81.9896" y2="0.325378" gradientUnits="userSpaceOnUse">
<stop/>
<stop offset="0.328"/>
<stop offset="0.524"/>
<stop offset="0.73"/>
<stop offset="1"/>
</linearGradient>
<linearGradient id="paint12_linear_3_200" x1="0.175522" y1="111.011" x2="11.6948" y2="111.011" gradientUnits="userSpaceOnUse">
<stop/>
<stop offset="0.328"/>
<stop offset="0.524"/>
<stop offset="0.73"/>
<stop offset="1"/>
</linearGradient>
<linearGradient id="paint13_linear_3_200" x1="17.5904" y1="111.011" x2="30.0168" y2="111.011" gradientUnits="userSpaceOnUse">
<stop/>
<stop offset="0.328"/>
<stop offset="0.524"/>
<stop offset="0.73"/>
<stop offset="1"/>
</linearGradient>
<linearGradient id="paint14_linear_3_200" x1="47.2503" y1="111.383" x2="49.0644" y2="111.383" gradientUnits="userSpaceOnUse">
<stop/>
<stop offset="0.328"/>
<stop offset="0.524"/>
<stop offset="0.73"/>
<stop offset="1"/>
</linearGradient>
<linearGradient id="paint15_linear_3_200" x1="39.1778" y1="111.383" x2="46.5247" y2="111.383" gradientUnits="userSpaceOnUse">
<stop/>
<stop offset="0.328"/>
<stop offset="0.524"/>
<stop offset="0.73"/>
<stop offset="1"/>
</linearGradient>
<linearGradient id="paint16_linear_3_200" x1="36.6381" y1="111.383" x2="38.5429" y2="111.383" gradientUnits="userSpaceOnUse">
<stop/>
<stop offset="0.328"/>
<stop offset="0.524"/>
<stop offset="0.73"/>
<stop offset="1"/>
</linearGradient>
<linearGradient id="paint17_linear_3_200" x1="58.3161" y1="111.383" x2="65.663" y2="111.383" gradientUnits="userSpaceOnUse">
<stop/>
<stop offset="0.328"/>
<stop offset="0.524"/>
<stop offset="0.73"/>
<stop offset="1"/>
</linearGradient>
<linearGradient id="paint18_linear_3_200" x1="55.6857" y1="111.383" x2="57.5905" y2="111.383" gradientUnits="userSpaceOnUse">
<stop/>
<stop offset="0.328"/>
<stop offset="0.524"/>
<stop offset="0.73"/>
<stop offset="1"/>
</linearGradient>
<linearGradient id="paint19_linear_3_200" x1="72.2844" y1="111.383" x2="84.62" y2="111.383" gradientUnits="userSpaceOnUse">
<stop/>
<stop offset="0.328"/>
<stop offset="0.524"/>
<stop offset="0.73"/>
<stop offset="1"/>
</linearGradient>
<linearGradient id="paint20_linear_3_200" x1="99.4045" y1="111.383" x2="101.309" y2="111.383" gradientUnits="userSpaceOnUse">
<stop/>
<stop offset="0.328"/>
<stop offset="0.524"/>
<stop offset="0.73"/>
<stop offset="1"/>
</linearGradient>
<linearGradient id="paint21_linear_3_200" x1="90.9691" y1="111.383" x2="92.7832" y2="111.383" gradientUnits="userSpaceOnUse">
<stop/>
<stop offset="0.328"/>
<stop offset="0.524"/>
<stop offset="0.73"/>
<stop offset="1"/>
</linearGradient>
<linearGradient id="paint22_linear_3_200" x1="93.4182" y1="112.051" x2="98.6789" y2="112.051" gradientUnits="userSpaceOnUse">
<stop/>
<stop offset="0.328"/>
<stop offset="0.524"/>
<stop offset="0.73"/>
<stop offset="1"/>
</linearGradient>
<linearGradient id="paint23_linear_3_200" x1="112.919" y1="111.383" x2="120.085" y2="111.383" gradientUnits="userSpaceOnUse">
<stop/>
<stop offset="0.328"/>
<stop offset="0.524"/>
<stop offset="0.73"/>
<stop offset="1"/>
</linearGradient>
<linearGradient id="paint24_linear_3_200" x1="107.931" y1="111.383" x2="113.554" y2="111.383" gradientUnits="userSpaceOnUse">
<stop/>
<stop offset="0.328"/>
<stop offset="0.524"/>
<stop offset="0.73"/>
<stop offset="1"/>
</linearGradient>
<linearGradient id="paint25_linear_3_200" x1="0.175522" y1="126.537" x2="3.35013" y2="126.537" gradientUnits="userSpaceOnUse">
<stop/>
<stop offset="0.328"/>
<stop offset="0.524"/>
<stop offset="0.73"/>
<stop offset="1"/>
</linearGradient>
<linearGradient id="paint26_linear_3_200" x1="6.79684" y1="126.537" x2="10.7877" y2="126.537" gradientUnits="userSpaceOnUse">
<stop/>
<stop offset="0.328"/>
<stop offset="0.524"/>
<stop offset="0.73"/>
<stop offset="1"/>
</linearGradient>
<linearGradient id="paint27_linear_3_200" x1="14.8694" y1="126.537" x2="18.1347" y2="126.537" gradientUnits="userSpaceOnUse">
<stop/>
<stop offset="0.328"/>
<stop offset="0.524"/>
<stop offset="0.73"/>
<stop offset="1"/>
</linearGradient>
<linearGradient id="paint28_linear_3_200" x1="22.8513" y1="126.537" x2="25.8445" y2="126.537" gradientUnits="userSpaceOnUse">
<stop/>
<stop offset="0.328"/>
<stop offset="0.524"/>
<stop offset="0.73"/>
<stop offset="1"/>
</linearGradient>
<linearGradient id="paint29_linear_3_200" x1="30.3796" y1="126.537" x2="31.1052" y2="126.537" gradientUnits="userSpaceOnUse">
<stop/>
<stop offset="0.328"/>
<stop offset="0.524"/>
<stop offset="0.73"/>
<stop offset="1"/>
</linearGradient>
<linearGradient id="paint30_linear_3_200" x1="36.0032" y1="126.537" x2="39.4499" y2="126.537" gradientUnits="userSpaceOnUse">
<stop/>
<stop offset="0.328"/>
<stop offset="0.524"/>
<stop offset="0.73"/>
<stop offset="1"/>
</linearGradient>
<linearGradient id="paint31_linear_3_200" x1="44.3478" y1="126.537" x2="47.2503" y2="126.537" gradientUnits="userSpaceOnUse">
<stop/>
<stop offset="0.328"/>
<stop offset="0.524"/>
<stop offset="0.73"/>
<stop offset="1"/>
</linearGradient>
<linearGradient id="paint32_linear_3_200" x1="57.137" y1="126.537" x2="60.493" y2="126.537" gradientUnits="userSpaceOnUse">
<stop/>
<stop offset="0.328"/>
<stop offset="0.524"/>
<stop offset="0.73"/>
<stop offset="1"/>
</linearGradient>
<linearGradient id="paint33_linear_3_200" x1="65.0281" y1="126.537" x2="68.2934" y2="126.537" gradientUnits="userSpaceOnUse">
<stop/>
<stop offset="0.328"/>
<stop offset="0.524"/>
<stop offset="0.73"/>
<stop offset="1"/>
</linearGradient>
<linearGradient id="paint34_linear_3_200" x1="73.01" y1="126.537" x2="76.0032" y2="126.537" gradientUnits="userSpaceOnUse">
<stop/>
<stop offset="0.328"/>
<stop offset="0.524"/>
<stop offset="0.73"/>
<stop offset="1"/>
</linearGradient>
<linearGradient id="paint35_linear_3_200" x1="80.1755" y1="126.537" x2="83.5315" y2="126.537" gradientUnits="userSpaceOnUse">
<stop/>
<stop offset="0.328"/>
<stop offset="0.524"/>
<stop offset="0.73"/>
<stop offset="1"/>
</linearGradient>
<linearGradient id="paint36_linear_3_200" x1="93.5996" y1="126.537" x2="96.8649" y2="126.537" gradientUnits="userSpaceOnUse">
<stop/>
<stop offset="0.328"/>
<stop offset="0.524"/>
<stop offset="0.73"/>
<stop offset="1"/>
</linearGradient>
<linearGradient id="paint37_linear_3_200" x1="101.763" y1="126.537" x2="104.665" y2="126.537" gradientUnits="userSpaceOnUse">
<stop/>
<stop offset="0.328"/>
<stop offset="0.524"/>
<stop offset="0.73"/>
<stop offset="1"/>
</linearGradient>
<linearGradient id="paint38_linear_3_200" x1="109.291" y1="126.537" x2="112.647" y2="126.537" gradientUnits="userSpaceOnUse">
<stop/>
<stop offset="0.328"/>
<stop offset="0.524"/>
<stop offset="0.73"/>
<stop offset="1"/>
</linearGradient>
<linearGradient id="paint39_linear_3_200" x1="117.092" y1="126.537" x2="120.085" y2="126.537" gradientUnits="userSpaceOnUse">
<stop/>
<stop offset="0.328"/>
<stop offset="0.524"/>
<stop offset="0.73"/>
<stop offset="1"/>
</linearGradient>
</defs>
</svg>
