<svg width="121" height="131" viewBox="0 0 121 131" fill="none" xmlns="http://www.w3.org/2000/svg">
<path d="M36.8119 33.2352H38.5044V34.9148V61.5363L46.3746 53.7262V25.4252H18.8711V81.1034L26.7413 73.2094V34.9148V33.2352H28.4339H36.8119Z" fill="url(#paint0_linear_3_263)"/>
<path d="M67.7851 63.9717H69.5622V65.7352V73.9652V75.7288H67.7851H33.1729L25.3027 83.5388H77.4325V56.1616H52.8908L45.0206 63.9717H67.7851Z" fill="url(#paint1_linear_3_263)"/>
<path d="M94.3577 31.8916V33.6551H92.5805H75.5707L67.7004 41.4652H102.228V7.28562L94.3577 15.0957V31.8916Z" fill="url(#paint2_linear_3_263)"/>
<path d="M91.8189 8.6293L99.6891 0.819204H61.2688V39.0298L69.1391 31.2197V10.3929V8.6293H70.8316H91.8189Z" fill="url(#paint3_linear_3_263)"/>
<path d="M0.507202 126.2H1.94585V130.819H2.79211V126.2H4.23076V125.528H0.507202V126.2Z" fill="url(#paint4_linear_3_263)"/>
<path fill-rule="evenodd" clip-rule="evenodd" d="M11.2547 130.819H10.4085L12.3549 125.528H13.0319L14.9783 130.819H14.132L13.7089 129.643H11.6779L11.2547 130.819ZM11.9317 128.888H13.455L12.6934 126.62L11.9317 128.888Z" fill="url(#paint5_linear_3_263)"/>
<path d="M23.0178 126.62C23.1306 126.508 23.2434 126.424 23.3563 126.368C23.5255 126.312 23.6948 126.284 23.864 126.284C24.1461 126.284 24.3718 126.34 24.541 126.452C24.7103 126.62 24.8231 126.816 24.8796 127.04H25.7258C25.6694 126.592 25.4719 126.228 25.1334 125.948C24.7949 125.612 24.3718 125.445 23.864 125.445C23.4691 125.445 23.1306 125.557 22.8485 125.78C22.5664 125.948 22.3408 126.172 22.1715 126.452C22.1151 126.564 22.0587 126.732 22.0023 126.956C22.0023 127.124 22.0023 127.516 22.0023 128.132C22.0023 128.748 22.0023 129.168 22.0023 129.392C22.0587 129.504 22.0869 129.588 22.0869 129.644C22.1433 129.755 22.1715 129.839 22.1715 129.895C22.3408 130.119 22.5664 130.343 22.8485 130.567C23.1306 130.735 23.4691 130.819 23.864 130.819C24.4282 130.819 24.8796 130.651 25.2181 130.315C25.5566 129.923 25.754 129.476 25.8104 128.972V127.88H23.864V128.636H24.9642V128.888C24.9642 129.224 24.8513 129.504 24.6257 129.727C24.4564 129.951 24.2025 130.063 23.864 130.063C23.6948 130.063 23.5255 130.007 23.3563 129.895C23.2434 129.839 23.1306 129.755 23.0178 129.644C22.9614 129.532 22.9049 129.392 22.8485 129.224C22.7921 129.056 22.7639 128.692 22.7639 128.132C22.7639 127.628 22.7921 127.292 22.8485 127.124C22.9049 126.9 22.9614 126.732 23.0178 126.62Z" fill="url(#paint6_linear_3_263)"/>
<path d="M35.3732 125.528V130.819H38.7583V130.063H36.1349V125.528H35.3732Z" fill="url(#paint7_linear_3_263)"/>
<path d="M47.0516 130.819V125.528H46.29V130.819H47.0516Z" fill="url(#paint8_linear_3_263)"/>
<path d="M58.053 129.308L55.6835 125.528H54.9219V130.819H55.7681V127.04L58.1377 130.819H58.8993V125.528H58.1377V129.308H58.053Z" fill="url(#paint9_linear_3_263)"/>
<path d="M70.1546 126.284V125.528H66.7695V130.819H70.1546V130.063H67.6158V128.468H69.8161V127.796H67.6158V126.284H70.1546Z" fill="url(#paint10_linear_3_263)"/>
<path d="M86.9952 130.819V125.528H86.149V127.796H84.0333V125.528H83.2717V130.819H84.0333V128.468H86.149V130.819H86.9952Z" fill="url(#paint11_linear_3_263)"/>
<path d="M98.2505 126.284V125.528H94.8655V130.819H98.2505V130.063H95.6271V128.468H97.912V127.796H95.6271V126.284H98.2505Z" fill="url(#paint12_linear_3_263)"/>
<path fill-rule="evenodd" clip-rule="evenodd" d="M109.675 130.819H108.66L107.559 128.552H106.544V130.819H105.782V125.528H107.813C108.265 125.528 108.631 125.64 108.913 125.864C109.252 126.144 109.421 126.508 109.421 126.956C109.421 127.684 109.083 128.188 108.406 128.468L109.675 130.819ZM107.813 127.796C108.095 127.796 108.321 127.712 108.49 127.544C108.66 127.432 108.744 127.236 108.744 126.956C108.744 126.676 108.66 126.48 108.49 126.368C108.321 126.256 108.124 126.2 107.898 126.2H106.629V127.796H107.813Z" fill="url(#paint13_linear_3_263)"/>
<path d="M117.038 130.819H120.507V130.063H117.884V128.468H120.084V127.796H117.884V126.284H120.507V125.528H117.038V130.819Z" fill="url(#paint14_linear_3_263)"/>
<path d="M8.20819 115.619C7.75685 116.459 7.07984 116.879 6.17716 116.879C5.27448 116.879 4.54106 116.571 3.97688 115.955C3.46913 115.395 3.21525 114.639 3.21525 113.687C3.21525 112.736 3.46913 111.98 3.97688 111.42C4.54106 110.86 5.27448 110.58 6.17716 110.58C7.07984 110.58 7.75685 110.972 8.20819 111.756H11.3394C11.0009 110.636 10.3521 109.74 9.39296 109.069C8.43386 108.453 7.36193 108.145 6.17716 108.145C4.59747 108.145 3.24345 108.677 2.1151 109.74C1.04317 110.748 0.507202 112.064 0.507202 113.687C0.507202 115.311 1.04317 116.655 2.1151 117.718C3.24345 118.782 4.59747 119.314 6.17716 119.314C7.36193 119.314 8.43386 118.978 9.39296 118.306C10.3521 117.69 11.0009 116.795 11.3394 115.619H8.20819Z" fill="url(#paint15_linear_3_263)"/>
<path fill-rule="evenodd" clip-rule="evenodd" d="M28.3492 117.718C27.2773 118.782 25.9515 119.314 24.3718 119.314C22.7921 119.314 21.4663 118.782 20.3944 117.718C19.266 116.655 18.7018 115.311 18.7018 113.687C18.7018 112.064 19.266 110.748 20.3944 109.74C21.4663 108.677 22.7921 108.145 24.3718 108.145C25.9515 108.145 27.2773 108.677 28.3492 109.74C29.4212 110.748 29.9571 112.064 29.9571 113.687C29.9571 115.311 29.4212 116.655 28.3492 117.718ZM27.2491 113.687C27.2491 112.736 26.9952 111.98 26.4875 111.42C25.9233 110.86 25.2181 110.58 24.3718 110.58C23.4691 110.58 22.7639 110.86 22.2561 111.42C21.692 111.98 21.4099 112.736 21.4099 113.687C21.4099 114.639 21.692 115.395 22.2561 115.955C22.7639 116.571 23.4691 116.879 24.3718 116.879C25.2181 116.879 25.9233 116.571 26.4875 115.955C26.9952 115.395 27.2491 114.639 27.2491 113.687Z" fill="url(#paint16_linear_3_263)"/>
<path d="M50.4367 108.313H47.3901L44.1743 115.787L41.0432 108.313H37.9966V119.146H40.62V113.016L43.2435 119.146H45.1899L47.7286 113.016V119.146H50.4367V108.313Z" fill="url(#paint17_linear_3_263)"/>
<path fill-rule="evenodd" clip-rule="evenodd" d="M61.692 119.146H59.0685V108.313H63.3845C64.6821 108.313 65.6694 108.621 66.3464 109.237C67.0798 109.908 67.4465 110.692 67.4465 111.588C67.4465 112.372 67.1645 113.1 66.6003 113.771C66.3182 114.107 65.8951 114.387 65.3309 114.611C64.7667 114.835 64.1179 114.947 63.3845 114.947H61.692V119.146ZM61.692 112.848H63.3845C63.7794 112.848 64.0897 112.736 64.3154 112.512C64.541 112.288 64.6539 111.98 64.6539 111.588C64.6539 111.196 64.541 110.888 64.3154 110.664C64.0897 110.384 63.7794 110.244 63.3845 110.244H61.692V112.848Z" fill="url(#paint18_linear_3_263)"/>
<path fill-rule="evenodd" clip-rule="evenodd" d="M85.1334 119.23H82.2561L81.6638 117.383H77.6863L77.0939 119.23H74.3013L78.1094 108.229H81.3252L85.1334 119.23ZM80.9867 115.367L79.7174 111.504L78.3633 115.367H80.9867Z" fill="url(#paint19_linear_3_263)"/>
<path d="M102.566 119.146V108.229H99.8584V115.115L95.3732 108.229H92.7498V119.146H95.3732V112.344L99.8584 119.146H102.566Z" fill="url(#paint20_linear_3_263)"/>
<path d="M115.43 113.184L113.314 108.313H110.267L114.076 115.703V119.146H116.699V115.703L120.507 108.313H117.461L115.43 113.184Z" fill="url(#paint21_linear_3_263)"/>
<defs>
<linearGradient id="paint0_linear_3_263" x1="-30.8891" y1="31.7236" x2="10.5954" y2="-10.0805" gradientUnits="userSpaceOnUse">
<stop/>
<stop offset="0.328"/>
<stop offset="0.524"/>
<stop offset="0.73"/>
<stop offset="1"/>
</linearGradient>
<linearGradient id="paint1_linear_3_263" x1="20.9021" y1="79.1719" x2="60.4552" y2="39.3141" gradientUnits="userSpaceOnUse">
<stop/>
<stop offset="0.328"/>
<stop offset="0.524"/>
<stop offset="0.73"/>
<stop offset="1"/>
</linearGradient>
<linearGradient id="paint2_linear_3_263" x1="50.5213" y1="24.3334" x2="84.6999" y2="-10.1084" gradientUnits="userSpaceOnUse">
<stop/>
<stop offset="0.328"/>
<stop offset="0.524"/>
<stop offset="0.73"/>
<stop offset="1"/>
</linearGradient>
<linearGradient id="paint3_linear_3_263" x1="41.9741" y1="19.8825" x2="80.1842" y2="-18.5373" gradientUnits="userSpaceOnUse">
<stop/>
<stop offset="0.328"/>
<stop offset="0.524"/>
<stop offset="0.73"/>
<stop offset="1"/>
</linearGradient>
<linearGradient id="paint4_linear_3_263" x1="-1.4392" y1="136.95" x2="-1.4392" y2="-21.3518" gradientUnits="userSpaceOnUse">
<stop/>
<stop offset="0.328"/>
<stop offset="0.524"/>
<stop offset="0.73"/>
<stop offset="1"/>
</linearGradient>
<linearGradient id="paint5_linear_3_263" x1="9.56222" y1="146.439" x2="9.56222" y2="11.3163" gradientUnits="userSpaceOnUse">
<stop/>
<stop offset="0.328"/>
<stop offset="0.524"/>
<stop offset="0.73"/>
<stop offset="1"/>
</linearGradient>
<linearGradient id="paint6_linear_3_263" x1="20.0559" y1="163.067" x2="20.0559" y2="15.5157" gradientUnits="userSpaceOnUse">
<stop/>
<stop offset="0.328"/>
<stop offset="0.524"/>
<stop offset="0.73"/>
<stop offset="1"/>
</linearGradient>
<linearGradient id="paint7_linear_3_263" x1="32.8344" y1="190.277" x2="32.8344" y2="17.9507" gradientUnits="userSpaceOnUse">
<stop/>
<stop offset="0.328"/>
<stop offset="0.524"/>
<stop offset="0.73"/>
<stop offset="1"/>
</linearGradient>
<linearGradient id="paint8_linear_3_263" x1="29.0263" y1="268.546" x2="29.0263" y2="-45.2859" gradientUnits="userSpaceOnUse">
<stop/>
<stop offset="0.328"/>
<stop offset="0.524"/>
<stop offset="0.73"/>
<stop offset="1"/>
</linearGradient>
<linearGradient id="paint9_linear_3_263" x1="53.3986" y1="192.124" x2="53.3986" y2="72.7053" gradientUnits="userSpaceOnUse">
<stop/>
<stop offset="0.328"/>
<stop offset="0.524"/>
<stop offset="0.73"/>
<stop offset="1"/>
</linearGradient>
<linearGradient id="paint10_linear_3_263" x1="64.3154" y1="213.875" x2="64.3154" y2="78.9198" gradientUnits="userSpaceOnUse">
<stop/>
<stop offset="0.328"/>
<stop offset="0.524"/>
<stop offset="0.73"/>
<stop offset="1"/>
</linearGradient>
<linearGradient id="paint11_linear_3_263" x1="81.3253" y1="224.372" x2="81.3253" y2="98.3191" gradientUnits="userSpaceOnUse">
<stop/>
<stop offset="0.328"/>
<stop offset="0.524"/>
<stop offset="0.73"/>
<stop offset="1"/>
</linearGradient>
<linearGradient id="paint12_linear_3_263" x1="92.4113" y1="244.444" x2="92.4113" y2="109.488" gradientUnits="userSpaceOnUse">
<stop/>
<stop offset="0.328"/>
<stop offset="0.524"/>
<stop offset="0.73"/>
<stop offset="1"/>
</linearGradient>
<linearGradient id="paint13_linear_3_263" x1="104.09" y1="256.956" x2="104.09" y2="122.169" gradientUnits="userSpaceOnUse">
<stop/>
<stop offset="0.328"/>
<stop offset="0.524"/>
<stop offset="0.73"/>
<stop offset="1"/>
</linearGradient>
<linearGradient id="paint14_linear_3_263" x1="114.583" y1="270.225" x2="114.583" y2="135.27" gradientUnits="userSpaceOnUse">
<stop/>
<stop offset="0.328"/>
<stop offset="0.524"/>
<stop offset="0.73"/>
<stop offset="1"/>
</linearGradient>
<linearGradient id="paint15_linear_3_263" x1="0.168697" y1="126.2" x2="0.168697" y2="12.9963" gradientUnits="userSpaceOnUse">
<stop/>
<stop offset="0.328"/>
<stop offset="0.524"/>
<stop offset="0.73"/>
<stop offset="1"/>
</linearGradient>
<linearGradient id="paint16_linear_3_263" x1="18.7018" y1="143.752" x2="18.7018" y2="31.4717" gradientUnits="userSpaceOnUse">
<stop/>
<stop offset="0.328"/>
<stop offset="0.524"/>
<stop offset="0.73"/>
<stop offset="1"/>
</linearGradient>
<linearGradient id="paint17_linear_3_263" x1="39.3506" y1="151.226" x2="39.3506" y2="65.6512" gradientUnits="userSpaceOnUse">
<stop/>
<stop offset="0.328"/>
<stop offset="0.524"/>
<stop offset="0.73"/>
<stop offset="1"/>
</linearGradient>
<linearGradient id="paint18_linear_3_263" x1="56.022" y1="188.933" x2="56.022" y2="63.3837" gradientUnits="userSpaceOnUse">
<stop/>
<stop offset="0.328"/>
<stop offset="0.524"/>
<stop offset="0.73"/>
<stop offset="1"/>
</linearGradient>
<linearGradient id="paint19_linear_3_263" x1="74.132" y1="199.43" x2="74.132" y2="82.5311" gradientUnits="userSpaceOnUse">
<stop/>
<stop offset="0.328"/>
<stop offset="0.524"/>
<stop offset="0.73"/>
<stop offset="1"/>
</linearGradient>
<linearGradient id="paint20_linear_3_263" x1="91.4804" y1="207.24" x2="91.4804" y2="103.106" gradientUnits="userSpaceOnUse">
<stop/>
<stop offset="0.328"/>
<stop offset="0.524"/>
<stop offset="0.73"/>
<stop offset="1"/>
</linearGradient>
<linearGradient id="paint21_linear_3_263" x1="109.506" y1="244.527" x2="109.506" y2="121.246" gradientUnits="userSpaceOnUse">
<stop/>
<stop offset="0.328"/>
<stop offset="0.524"/>
<stop offset="0.73"/>
<stop offset="1"/>
</linearGradient>
</defs>
</svg>
