<svg width="121" height="131" viewBox="0 0 121 131" fill="none" xmlns="http://www.w3.org/2000/svg">
<path fill-rule="evenodd" clip-rule="evenodd" d="M43.27 86.3048L25.923 96.7109L25.4128 96.9371L19.1884 93.2422V71.9777L43.27 86.3048ZM22.6577 91.9603L25.4128 93.6192L37.6577 86.3048L22.6577 77.3315V91.9603Z" fill="url(#paint0_linear_3_363)"/>
<path fill-rule="evenodd" clip-rule="evenodd" d="M47.7598 86.3048L101.637 54.1819V75.4463L65.5148 96.9371L64.3924 97.6157L63.372 98.2944H27.6577L45.5149 87.6621L46.6373 86.9835L47.7598 86.3048ZM49.9026 88.3408L48.7802 89.0194L47.7598 89.6981L37.5557 95.7306H62.1475L62.2496 95.5798L63.372 94.9765L98.1679 74.1645V59.5357L49.9026 88.3408Z" fill="url(#paint1_linear_3_363)"/>
<path fill-rule="evenodd" clip-rule="evenodd" d="M25.4128 70.3187L19.1884 66.6239V45.3594L43.27 59.7619L25.923 70.0925L25.4128 70.3187ZM25.4128 67.0009L37.6577 59.6865L22.6577 50.7132V65.342L25.4128 67.0009Z" fill="url(#paint2_linear_3_363)"/>
<path fill-rule="evenodd" clip-rule="evenodd" d="M47.7598 59.7619L101.637 27.5635V48.828L65.5148 70.3187L64.3924 70.9974L63.372 71.676H27.6577L45.5149 61.0438L46.6373 60.3651L47.7598 59.7619ZM49.9026 61.7979L48.7802 62.4765L47.6577 63.1552L37.5557 69.1877H62.1475L62.2496 69.0368L63.372 68.4336L98.1679 47.6216V33.0682L49.9026 61.7979Z" fill="url(#paint3_linear_3_363)"/>
<path fill-rule="evenodd" clip-rule="evenodd" d="M25.4128 43.7758L19.1884 40.0055V18.7411L43.27 33.1436L25.923 43.4742L25.4128 43.7758ZM22.6577 38.7991L25.4128 40.458L37.6577 33.1436L22.6577 24.1703V38.7991Z" fill="url(#paint4_linear_3_363)"/>
<path fill-rule="evenodd" clip-rule="evenodd" d="M101.637 0.945206V22.2097L65.5148 43.7758L64.3924 44.3791L63.372 45.0577H27.6577L45.5149 34.4255L46.6373 33.7468L47.7598 33.1436L101.637 0.945206ZM98.0659 6.29906L49.9026 35.1041L48.7802 35.7828L47.6577 36.386L37.5557 42.4185H62.0455L62.1475 42.3431L63.27 41.6645L98.0659 20.9278V6.29906Z" fill="url(#paint5_linear_3_363)"/>
<path d="M2.35167 121.444C3.03194 121.896 3.81424 122.248 4.6986 122.5C5.51492 122.751 6.46729 122.877 7.55573 122.877C8.50811 122.877 9.42649 122.726 10.3108 122.424C11.1952 122.123 11.9435 121.67 12.5557 121.067L10.5149 120.011C10.1068 120.464 9.63056 120.79 9.08634 120.992C8.61015 121.142 8.09994 121.218 7.55573 121.218C6.87546 121.218 6.22923 121.142 5.61699 120.992C5.07277 120.79 4.59656 120.514 4.18839 120.162C3.78023 119.86 3.47408 119.483 3.27 119.031C2.99789 118.579 2.86188 118.076 2.86188 117.523C2.86188 117.02 2.99789 116.568 3.27 116.166C3.47408 115.713 3.78023 115.336 4.18839 115.034C4.59656 114.683 5.07277 114.431 5.61699 114.28C6.22923 114.079 6.87546 113.979 7.55573 113.979C8.03192 113.979 8.50813 114.054 8.98432 114.205C9.39249 114.306 9.86864 114.557 10.4129 114.959L12.2496 113.979C11.5694 113.376 10.855 112.973 10.1067 112.772C9.29042 112.521 8.44008 112.395 7.55573 112.395C6.46729 112.395 5.51492 112.521 4.6986 112.772C3.81424 113.024 3.03194 113.376 2.35167 113.828C1.73943 114.28 1.26321 114.833 0.923076 115.487C0.58294 116.14 0.412872 116.869 0.412872 117.674C0.412872 118.428 0.58294 119.132 0.923076 119.785C1.26321 120.439 1.73943 120.992 2.35167 121.444Z" fill="url(#paint6_linear_3_363)"/>
<path fill-rule="evenodd" clip-rule="evenodd" d="M17.7597 119.785C17.4196 119.132 17.2495 118.428 17.2495 117.674C17.2495 116.869 17.4196 116.14 17.7597 115.487C18.0999 114.833 18.6101 114.28 19.2903 113.828C19.9026 113.376 20.6509 113.024 21.5352 112.772C22.4196 112.521 23.372 112.395 24.3924 112.395C25.4128 112.395 26.3651 112.496 27.2495 112.697C28.1338 112.948 28.8822 113.3 29.4944 113.753C30.1747 114.205 30.6849 114.758 31.025 115.412C31.3652 116.065 31.5352 116.794 31.5352 117.598C31.5352 118.403 31.3652 119.106 31.025 119.71C30.6849 120.363 30.1747 120.916 29.4944 121.369C28.8822 121.821 28.1338 122.173 27.2495 122.424C26.3651 122.676 25.4128 122.826 24.3924 122.877C23.372 122.877 22.4196 122.751 21.5352 122.5C20.6509 122.248 19.9026 121.896 19.2903 121.444C18.6101 120.992 18.0999 120.439 17.7597 119.785ZM19.8005 117.523C19.8005 118.076 19.9026 118.579 20.1066 119.031C20.3107 119.483 20.6169 119.86 21.025 120.162C21.4332 120.514 21.9094 120.79 22.4536 120.992C23.0659 121.142 23.7121 121.218 24.3924 121.218C25.0726 121.218 25.7189 121.142 26.3312 120.992C26.8754 120.79 27.3515 120.514 27.7597 120.162C28.1679 119.86 28.474 119.483 28.6781 119.031C28.9502 118.579 29.0863 118.076 29.0863 117.523C29.0863 117.02 28.9502 116.568 28.6781 116.166C28.474 115.713 28.1679 115.336 27.7597 115.034C27.3515 114.683 26.8754 114.431 26.3312 114.28C25.7189 114.079 25.0726 113.979 24.3924 113.979C23.7121 113.979 23.0659 114.079 22.4536 114.28C21.9094 114.431 21.4332 114.683 21.025 115.034C20.6169 115.336 20.3107 115.713 20.1066 116.166C19.9026 116.568 19.8005 117.02 19.8005 117.523Z" fill="url(#paint7_linear_3_363)"/>
<path d="M52.2495 122.575V112.622H48.5761L45.0046 119.634L41.3312 112.622H37.7598V122.575H40.0046V114.356L44.0862 122.575H45.8209L49.9026 114.356V122.575H52.2495Z" fill="url(#paint8_linear_3_363)"/>
<path fill-rule="evenodd" clip-rule="evenodd" d="M61.5353 122.575H59.0863V112.622H63.6781C64.2904 112.622 64.9026 112.672 65.5148 112.772C66.1271 112.873 66.6713 113.024 67.1475 113.225C67.5557 113.476 67.8958 113.778 68.1679 114.13C68.44 114.482 68.5761 114.934 68.5761 115.487C68.5761 116.14 68.44 116.668 68.1679 117.07C67.8958 117.422 67.5216 117.699 67.0454 117.9C66.5012 118.151 65.923 118.302 65.3108 118.352C64.6305 118.453 63.9503 118.503 63.27 118.503H61.5353V122.575ZM61.5353 116.92H62.9638C63.3039 116.92 63.6441 116.895 63.9842 116.844C64.3924 116.844 64.7325 116.794 65.0046 116.693C65.3448 116.593 65.6169 116.467 65.821 116.316C66.0251 116.115 66.1271 115.839 66.1271 115.487C66.1271 115.185 66.0251 114.934 65.821 114.733C65.6169 114.582 65.3788 114.456 65.1067 114.356C64.8346 114.255 64.5284 114.18 64.1883 114.13C63.8482 114.13 63.5421 114.13 63.27 114.13H61.5353V116.92Z" fill="url(#paint9_linear_3_363)"/>
<path fill-rule="evenodd" clip-rule="evenodd" d="M85.4128 122.575H82.6577L81.4332 120.313H75.5149L74.2904 122.575H71.6373L77.5557 112.622H79.5965L85.4128 122.575ZM80.5148 118.805L78.474 114.733L76.3312 118.805H80.5148Z" fill="url(#paint10_linear_3_363)"/>
<path d="M102.862 122.575V112.622H100.515V120.011H100.413L93.8822 112.622H90.7189V122.575H93.0658V114.959H93.1679L99.8006 122.575H102.862Z" fill="url(#paint11_linear_3_363)"/>
<path d="M112.964 122.575H115.413V118.352L120.413 112.622H117.556L114.29 116.618L110.923 112.622H107.964L112.964 118.352V122.575Z" fill="url(#paint12_linear_3_363)"/>
<path d="M2.14758 126.949H0.412872V126.345H4.6986V126.949H3.06597V130.945H2.14758V126.949Z" fill="url(#paint13_linear_3_363)"/>
<path fill-rule="evenodd" clip-rule="evenodd" d="M13.9842 129.889H11.6373L11.2292 130.945H10.2088L12.4536 126.345H13.27L15.5148 130.945H14.4944L13.9842 129.889ZM13.6781 129.211L12.8618 127.25H12.7598L11.9434 129.211H13.6781Z" fill="url(#paint14_linear_3_363)"/>
<path d="M24.0863 128.381H26.2291V129.362C26.2291 129.814 26.0251 130.191 25.6169 130.493C25.2088 130.794 24.6986 130.945 24.0863 130.945C23.6101 130.945 23.2019 130.87 22.8618 130.719C22.5217 130.518 22.2836 130.317 22.1475 130.116C22.0795 130.065 22.0455 130.015 22.0455 129.965C21.9775 129.864 21.9435 129.764 21.9435 129.663C21.8755 129.512 21.8414 129.161 21.8414 128.608C21.8414 128.105 21.8755 127.753 21.9435 127.552C21.9435 127.401 22.0115 127.25 22.1475 127.099C22.2836 126.898 22.5217 126.722 22.8618 126.572C23.2019 126.421 23.6101 126.32 24.0863 126.27C24.6986 126.32 25.1748 126.471 25.5149 126.722C25.9231 126.974 26.1611 127.275 26.2291 127.627H25.2087C25.1407 127.477 25.0047 127.326 24.8006 127.175C24.5965 127.074 24.3584 127.024 24.0863 127.024C23.8822 127.024 23.6782 127.049 23.4741 127.099C23.338 127.15 23.202 127.225 23.0659 127.326C22.9979 127.426 22.9298 127.552 22.8618 127.703C22.7938 127.854 22.7598 128.155 22.7598 128.608C22.7598 129.06 22.7938 129.362 22.8618 129.512C22.9298 129.714 22.9979 129.864 23.0659 129.965C23.202 130.015 23.338 130.091 23.4741 130.191C23.6782 130.241 23.8822 130.267 24.0863 130.267C24.4264 130.267 24.7326 130.166 25.0047 129.965C25.2088 129.814 25.3108 129.588 25.3108 129.286V129.06H24.0863V128.381Z" fill="url(#paint15_linear_3_363)"/>
<path d="M35.5149 126.345H36.4332V130.267H39.4944V130.945H35.5149V126.345Z" fill="url(#paint16_linear_3_363)"/>
<path d="M46.4332 126.345H47.3516V130.945H46.4332V126.345Z" fill="url(#paint17_linear_3_363)"/>
<path d="M54.8005 126.345H55.6169L58.474 129.588V126.345H59.3924V130.945H58.474L55.7189 127.703V130.945H54.8005V126.345Z" fill="url(#paint18_linear_3_363)"/>
<path d="M66.8414 126.345H70.7189V127.024H67.7597V128.306H70.3107V128.909H67.7597V130.267H70.7189V130.945H66.8414V126.345Z" fill="url(#paint19_linear_3_363)"/>
<path d="M83.8822 128.909H81.4332V130.945H80.4128V126.345H81.4332V128.306H83.8822V126.345H84.8006V130.945H83.8822V128.909Z" fill="url(#paint20_linear_3_363)"/>
<path d="M93.9842 126.345H97.9638V127.024H94.9026V128.306H97.5556V128.909H94.9026V130.267H97.9638V130.945H93.9842V126.345Z" fill="url(#paint21_linear_3_363)"/>
<path fill-rule="evenodd" clip-rule="evenodd" d="M104.903 126.345H107.352C107.896 126.345 108.304 126.446 108.576 126.647C108.984 126.898 109.188 127.225 109.188 127.627C109.188 128.231 108.814 128.658 108.066 128.909L109.494 130.945H108.372L107.045 128.985H105.821V130.945H104.903V126.345ZM105.821 128.306H107.25C107.658 128.306 107.93 128.231 108.066 128.08C108.27 127.979 108.372 127.828 108.372 127.627C108.372 127.376 108.27 127.2 108.066 127.099C107.862 126.999 107.624 126.949 107.352 126.949H105.821V128.306Z" fill="url(#paint22_linear_3_363)"/>
<path d="M116.331 126.345H120.311V127.024H117.25V128.306H119.801V128.909H117.25V130.267H120.311V130.945H116.331V126.345Z" fill="url(#paint23_linear_3_363)"/>
<defs>
<linearGradient id="paint0_linear_3_363" x1="19.1884" y1="71.9777" x2="43.27" y2="71.9777" gradientUnits="userSpaceOnUse">
<stop/>
<stop offset="0.328"/>
<stop offset="0.524"/>
<stop offset="0.73"/>
<stop offset="1"/>
</linearGradient>
<linearGradient id="paint1_linear_3_363" x1="27.6577" y1="54.1819" x2="101.637" y2="54.1819" gradientUnits="userSpaceOnUse">
<stop/>
<stop offset="0.328"/>
<stop offset="0.524"/>
<stop offset="0.73"/>
<stop offset="1"/>
</linearGradient>
<linearGradient id="paint2_linear_3_363" x1="19.1884" y1="45.3594" x2="43.27" y2="45.3594" gradientUnits="userSpaceOnUse">
<stop/>
<stop offset="0.328"/>
<stop offset="0.524"/>
<stop offset="0.73"/>
<stop offset="1"/>
</linearGradient>
<linearGradient id="paint3_linear_3_363" x1="27.6577" y1="27.5635" x2="101.637" y2="27.5635" gradientUnits="userSpaceOnUse">
<stop/>
<stop offset="0.328"/>
<stop offset="0.524"/>
<stop offset="0.73"/>
<stop offset="1"/>
</linearGradient>
<linearGradient id="paint4_linear_3_363" x1="19.1884" y1="18.7411" x2="43.27" y2="18.7411" gradientUnits="userSpaceOnUse">
<stop/>
<stop offset="0.328"/>
<stop offset="0.524"/>
<stop offset="0.73"/>
<stop offset="1"/>
</linearGradient>
<linearGradient id="paint5_linear_3_363" x1="27.6577" y1="0.945206" x2="101.637" y2="0.945206" gradientUnits="userSpaceOnUse">
<stop/>
<stop offset="0.328"/>
<stop offset="0.524"/>
<stop offset="0.73"/>
<stop offset="1"/>
</linearGradient>
<linearGradient id="paint6_linear_3_363" x1="-1.83203" y1="123.405" x2="-1.83203" y2="28.9961" gradientUnits="userSpaceOnUse">
<stop/>
<stop offset="0.328"/>
<stop offset="0.524"/>
<stop offset="0.73"/>
<stop offset="1"/>
</linearGradient>
<linearGradient id="paint7_linear_3_363" x1="17.3516" y1="135.017" x2="17.3516" y2="48.8279" gradientUnits="userSpaceOnUse">
<stop/>
<stop offset="0.328"/>
<stop offset="0.524"/>
<stop offset="0.73"/>
<stop offset="1"/>
</linearGradient>
<linearGradient id="paint8_linear_3_363" x1="38.6781" y1="141.879" x2="38.6781" y2="75.6727" gradientUnits="userSpaceOnUse">
<stop/>
<stop offset="0.328"/>
<stop offset="0.524"/>
<stop offset="0.73"/>
<stop offset="1"/>
</linearGradient>
<linearGradient id="paint9_linear_3_363" x1="54.2904" y1="167.743" x2="54.2904" y2="70.3943" gradientUnits="userSpaceOnUse">
<stop/>
<stop offset="0.328"/>
<stop offset="0.524"/>
<stop offset="0.73"/>
<stop offset="1"/>
</linearGradient>
<linearGradient id="paint10_linear_3_363" x1="71.9434" y1="173.549" x2="71.9434" y2="83.2133" gradientUnits="userSpaceOnUse">
<stop/>
<stop offset="0.328"/>
<stop offset="0.524"/>
<stop offset="0.73"/>
<stop offset="1"/>
</linearGradient>
<linearGradient id="paint11_linear_3_363" x1="89.2903" y1="176.943" x2="89.2903" y2="101.16" gradientUnits="userSpaceOnUse">
<stop/>
<stop offset="0.328"/>
<stop offset="0.524"/>
<stop offset="0.73"/>
<stop offset="1"/>
</linearGradient>
<linearGradient id="paint12_linear_3_363" x1="106.943" y1="210.724" x2="106.943" y2="111.641" gradientUnits="userSpaceOnUse">
<stop/>
<stop offset="0.328"/>
<stop offset="0.524"/>
<stop offset="0.73"/>
<stop offset="1"/>
</linearGradient>
<linearGradient id="paint13_linear_3_363" x1="-1.83203" y1="128.155" x2="-1.83203" y2="4.03609" gradientUnits="userSpaceOnUse">
<stop/>
<stop offset="0.328"/>
<stop offset="0.524"/>
<stop offset="0.73"/>
<stop offset="1"/>
</linearGradient>
<linearGradient id="paint14_linear_3_363" x1="9.18837" y1="135.47" x2="9.18837" y2="27.6383" gradientUnits="userSpaceOnUse">
<stop/>
<stop offset="0.328"/>
<stop offset="0.524"/>
<stop offset="0.73"/>
<stop offset="1"/>
</linearGradient>
<linearGradient id="paint15_linear_3_363" x1="19.5965" y1="146.554" x2="19.5965" y2="35.7072" gradientUnits="userSpaceOnUse">
<stop/>
<stop offset="0.328"/>
<stop offset="0.524"/>
<stop offset="0.73"/>
<stop offset="1"/>
</linearGradient>
<linearGradient id="paint16_linear_3_363" x1="32.6578" y1="163.973" x2="32.6578" y2="29.2973" gradientUnits="userSpaceOnUse">
<stop/>
<stop offset="0.328"/>
<stop offset="0.524"/>
<stop offset="0.73"/>
<stop offset="1"/>
</linearGradient>
<linearGradient id="paint17_linear_3_363" x1="26.4341" y1="196.7" x2="26.4341" y2="-0.714526" gradientUnits="userSpaceOnUse">
<stop/>
<stop offset="0.328"/>
<stop offset="0.524"/>
<stop offset="0.73"/>
<stop offset="1"/>
</linearGradient>
<linearGradient id="paint18_linear_3_363" x1="52.9638" y1="165.557" x2="52.9638" y2="78.9901" gradientUnits="userSpaceOnUse">
<stop/>
<stop offset="0.328"/>
<stop offset="0.524"/>
<stop offset="0.73"/>
<stop offset="1"/>
</linearGradient>
<linearGradient id="paint19_linear_3_363" x1="63.8822" y1="178.904" x2="63.8822" y2="82.308" gradientUnits="userSpaceOnUse">
<stop/>
<stop offset="0.328"/>
<stop offset="0.524"/>
<stop offset="0.73"/>
<stop offset="1"/>
</linearGradient>
<linearGradient id="paint20_linear_3_363" x1="78.1679" y1="185.992" x2="78.1679" y2="95.1271" gradientUnits="userSpaceOnUse">
<stop/>
<stop offset="0.328"/>
<stop offset="0.524"/>
<stop offset="0.73"/>
<stop offset="1"/>
</linearGradient>
<linearGradient id="paint21_linear_3_363" x1="91.1271" y1="200.018" x2="91.1271" y2="103.422" gradientUnits="userSpaceOnUse">
<stop/>
<stop offset="0.328"/>
<stop offset="0.524"/>
<stop offset="0.73"/>
<stop offset="1"/>
</linearGradient>
<linearGradient id="paint22_linear_3_363" x1="102.964" y1="210.047" x2="102.964" y2="111.49" gradientUnits="userSpaceOnUse">
<stop/>
<stop offset="0.328"/>
<stop offset="0.524"/>
<stop offset="0.73"/>
<stop offset="1"/>
</linearGradient>
<linearGradient id="paint23_linear_3_363" x1="113.474" y1="217.286" x2="113.474" y2="120.69" gradientUnits="userSpaceOnUse">
<stop/>
<stop offset="0.328"/>
<stop offset="0.524"/>
<stop offset="0.73"/>
<stop offset="1"/>
</linearGradient>
</defs>
</svg>
