<svg width="121" height="131" viewBox="0 0 121 131" fill="none" xmlns="http://www.w3.org/2000/svg">
<path d="M2.30609 130.575H3.40618V125.32H5.14799V124.483H0.655991V125.32H2.30609V130.575Z" fill="url(#paint0_linear_3_310)"/>
<path fill-rule="evenodd" clip-rule="evenodd" d="M9.82329 130.575L13.4902 124.026L16.9738 130.575H15.782L15.0487 129.128H11.8401L11.015 130.575H9.82329ZM12.2985 128.214H14.5903L13.4902 126.158L12.2985 128.214Z" fill="url(#paint1_linear_3_310)"/>
<path d="M26.0494 125.168C26.9051 125.168 27.6384 125.524 28.2496 126.234L29.0746 125.549C28.5857 125.143 28.1273 124.838 27.6995 124.635C27.1495 124.432 26.5995 124.33 26.0494 124.33C24.9494 124.33 24.0326 124.635 23.2992 125.244C22.5659 125.904 22.1992 126.666 22.1992 127.529C22.1992 128.392 22.5659 129.154 23.2992 129.814C24.0326 130.423 24.9188 130.728 25.9577 130.728C26.9967 130.728 27.8523 130.398 28.5246 129.738C28.8302 129.484 29.0441 129.179 29.1663 128.824C29.3496 128.468 29.4413 128.062 29.4413 127.605V127.377H26.3244V128.291H28.1579C28.1579 128.697 27.9135 129.052 27.4245 129.357C26.9967 129.712 26.5078 129.89 25.9577 129.89C25.3466 129.89 24.766 129.661 24.216 129.204C23.6048 128.798 23.2992 128.24 23.2992 127.529C23.2992 126.869 23.5742 126.311 24.1243 125.854C24.6132 125.397 25.2549 125.168 26.0494 125.168Z" fill="url(#paint2_linear_3_310)"/>
<path d="M36.5918 124.483V130.575H39.892V129.738H37.7836V124.483H36.5918Z" fill="url(#paint3_linear_3_310)"/>
<path d="M45.9425 124.483V130.575H47.0425V124.483H45.9425Z" fill="url(#paint4_linear_3_310)"/>
<path d="M53.7347 130.575H54.8347V126.311L60.2435 130.956V124.483H59.1434V128.748L53.7347 124.026V130.575Z" fill="url(#paint5_linear_3_310)"/>
<path d="M66.9356 130.575H71.0609V129.738H68.0357V127.681H70.9692V126.767H68.0357V125.32H71.0609V124.483H66.9356V130.575Z" fill="url(#paint6_linear_3_310)"/>
<path d="M87.4704 126.844H84.2618V124.483H83.1617V130.575H84.2618V127.757H87.4704V130.575H88.5704V124.483H87.4704V126.844Z" fill="url(#paint7_linear_3_310)"/>
<path d="M99.3879 125.32V124.483H95.2626V130.575H99.3879V129.738H96.3627V127.681H99.2962V126.767H96.3627V125.32H99.3879Z" fill="url(#paint8_linear_3_310)"/>
<path fill-rule="evenodd" clip-rule="evenodd" d="M110.572 130.575H109.197L107.088 128.062H106.813V130.575H105.713V124.483H107.088C108.066 124.432 108.769 124.584 109.197 124.94C109.686 125.244 109.93 125.676 109.93 126.234C109.93 126.691 109.777 127.072 109.472 127.377C109.166 127.681 108.769 127.884 108.28 127.986L110.572 130.575ZM107.18 127.224C108.28 127.224 108.83 126.894 108.83 126.234C108.83 125.625 108.311 125.32 107.272 125.32H106.813V127.224H107.18Z" fill="url(#paint9_linear_3_310)"/>
<path d="M120.656 125.32V124.483H116.622V130.575H120.656V129.738H117.722V127.681H120.564V126.767H117.722V125.32H120.656Z" fill="url(#paint10_linear_3_310)"/>
<path d="M25.4077 58.15L74.6361 17.3299V0.956108L25.4077 41.8524V58.15Z" fill="url(#paint11_linear_3_310)"/>
<path d="M25.4077 93.7153L74.6361 52.819V39.6439L25.4077 80.5402V93.7153Z" fill="url(#paint12_linear_3_310)"/>
<path d="M46.6759 58.15L95.9043 17.3299V3.54544L46.6759 44.4418V58.15Z" fill="url(#paint13_linear_3_310)"/>
<path d="M95.9043 39.1108L46.6759 80.0071V93.7153L95.9043 52.819V39.1108Z" fill="url(#paint14_linear_3_310)"/>
<path d="M2.67281 116.562C3.28396 117.07 4.01731 117.476 4.87293 117.781C5.72854 118.035 6.7064 118.162 7.80647 118.162C8.78432 118.162 9.70105 118.009 10.5567 117.705C11.4123 117.4 12.1457 116.892 12.7568 116.182L10.8317 115.039C10.3428 115.496 9.85385 115.826 9.36493 116.029C8.876 116.283 8.35651 116.41 7.80647 116.41C7.07309 116.41 6.4314 116.309 5.88136 116.105C5.33133 115.852 4.84237 115.547 4.41456 115.192C3.98675 114.836 3.68118 114.405 3.49783 113.897C3.25337 113.389 3.13117 112.831 3.13117 112.221C3.13117 111.663 3.25337 111.155 3.49783 110.698C3.68118 110.191 3.98675 109.759 4.41456 109.404C4.84237 109.048 5.33133 108.769 5.88136 108.566C6.4314 108.363 7.07309 108.261 7.80647 108.261C8.23428 108.261 8.69265 108.312 9.18157 108.414C9.67049 108.566 10.1594 108.871 10.6484 109.328L12.4818 108.185C11.8096 107.525 11.0762 107.068 10.2817 106.814C9.48716 106.56 8.66209 106.434 7.80647 106.434C6.7064 106.434 5.72854 106.56 4.87293 106.814C4.01731 107.119 3.28396 107.525 2.67281 108.033C2.00054 108.541 1.51158 109.175 1.20601 109.937C0.839314 110.648 0.655991 111.46 0.655991 112.374C0.655991 113.237 0.839314 114.024 1.20601 114.735C1.51158 115.445 2.00054 116.055 2.67281 116.562Z" fill="url(#paint15_linear_3_310)"/>
<path fill-rule="evenodd" clip-rule="evenodd" d="M17.9822 114.735C17.6766 114.024 17.5238 113.237 17.5238 112.374C17.5238 111.46 17.6766 110.648 17.9822 109.937C18.3489 109.175 18.8683 108.541 19.5406 108.033C20.1518 107.525 20.8852 107.119 21.7408 106.814C22.5964 106.56 23.5437 106.434 24.5826 106.434C25.6827 106.434 26.6606 106.56 27.5162 106.814C28.3718 107.068 29.1357 107.449 29.808 107.957C30.4192 108.515 30.9081 109.15 31.2748 109.861C31.6415 110.571 31.8248 111.384 31.8248 112.298C31.8248 113.161 31.6415 113.948 31.2748 114.659C30.9081 115.369 30.4192 116.004 29.808 116.562C29.1357 117.07 28.3718 117.451 27.5162 117.705C26.6606 118.009 25.6827 118.162 24.5826 118.162C23.5437 118.162 22.5964 118.035 21.7408 117.781C20.8852 117.476 20.1518 117.07 19.5406 116.562C18.8683 116.055 18.3489 115.445 17.9822 114.735ZM19.999 112.221C19.999 112.831 20.1212 113.389 20.3657 113.897C20.549 114.405 20.8546 114.836 21.2824 115.192C21.7102 115.547 22.1991 115.852 22.7492 116.105C23.2992 116.309 23.9409 116.41 24.6743 116.41C25.3466 116.41 25.9578 116.309 26.5078 116.105C27.1189 115.852 27.6078 115.547 27.9745 115.192C28.4023 114.836 28.7385 114.405 28.983 113.897C29.1663 113.389 29.258 112.831 29.258 112.221C29.258 111.663 29.1663 111.155 28.983 110.698C28.7385 110.191 28.4023 109.759 27.9745 109.404C27.6078 109.048 27.1189 108.769 26.5078 108.566C25.9578 108.363 25.3466 108.261 24.6743 108.261C23.9409 108.261 23.2992 108.363 22.7492 108.566C22.1991 108.769 21.7102 109.048 21.2824 109.404C20.8546 109.759 20.549 110.191 20.3657 110.698C20.1212 111.155 19.999 111.663 19.999 112.221Z" fill="url(#paint16_linear_3_310)"/>
<path d="M41.6338 106.738H37.9669V117.933H40.2587V108.642L44.384 117.933H46.0341L50.1594 108.642V117.933H52.4512V106.738H48.876L45.2091 114.582L41.6338 106.738Z" fill="url(#paint17_linear_3_310)"/>
<path fill-rule="evenodd" clip-rule="evenodd" d="M61.7102 117.933H59.3267V106.738H63.9104C64.5215 106.738 65.1327 106.789 65.7438 106.89C66.355 106.992 66.8745 107.17 67.3023 107.424C67.7912 107.627 68.1579 107.957 68.4024 108.414C68.708 108.82 68.8608 109.328 68.8608 109.937C68.8608 110.648 68.708 111.231 68.4024 111.688C68.0968 112.095 67.6995 112.425 67.2106 112.678C66.7217 112.882 66.1411 113.034 65.4688 113.135C64.8577 113.237 64.1854 113.288 63.452 113.288H61.7102V117.933ZM61.7102 111.536H63.177C63.5437 111.536 63.9104 111.536 64.2771 111.536C64.6438 111.536 64.9799 111.485 65.2855 111.384C65.5911 111.231 65.8355 111.054 66.0189 110.851C66.2022 110.648 66.2939 110.368 66.2939 110.013C66.2939 109.658 66.2022 109.378 66.0189 109.175C65.8966 108.972 65.6827 108.82 65.3771 108.718C65.0716 108.566 64.766 108.49 64.4604 108.49C64.0937 108.439 63.7576 108.414 63.452 108.414H61.7102V111.536Z" fill="url(#paint18_linear_3_310)"/>
<path fill-rule="evenodd" clip-rule="evenodd" d="M74.5444 117.933H71.8859L77.753 106.738H79.7698L85.6369 117.933H82.8867L81.6032 115.344H75.7362L74.5444 117.933ZM76.6529 113.668H80.7782L78.7614 109.099L76.6529 113.668Z" fill="url(#paint19_linear_3_310)"/>
<path d="M90.9539 106.738V117.933H93.3374V109.328L100.03 117.933H103.055V106.738H100.671V115.039L94.0708 106.738H90.9539Z" fill="url(#paint20_linear_3_310)"/>
<path d="M113.23 117.933H115.614V113.135L120.656 106.738H117.814L114.422 111.155L111.122 106.738H108.097L113.23 113.135V117.933Z" fill="url(#paint21_linear_3_310)"/>
<defs>
<linearGradient id="paint0_linear_3_310" x1="-3.1943" y1="128.9" x2="-3.1943" y2="-35.6754" gradientUnits="userSpaceOnUse">
<stop/>
<stop offset="0.328"/>
<stop offset="0.524"/>
<stop offset="0.73"/>
<stop offset="1"/>
</linearGradient>
<linearGradient id="paint1_linear_3_310" x1="9.0899" y1="137.125" x2="9.0899" y2="24.6409" gradientUnits="userSpaceOnUse">
<stop/>
<stop offset="0.328"/>
<stop offset="0.524"/>
<stop offset="0.73"/>
<stop offset="1"/>
</linearGradient>
<linearGradient id="paint2_linear_3_310" x1="21.6491" y1="148.168" x2="21.6491" y2="39.4916" gradientUnits="userSpaceOnUse">
<stop/>
<stop offset="0.328"/>
<stop offset="0.524"/>
<stop offset="0.73"/>
<stop offset="1"/>
</linearGradient>
<linearGradient id="paint3_linear_3_310" x1="29.8997" y1="196.527" x2="29.8997" y2="-27.0697" gradientUnits="userSpaceOnUse">
<stop/>
<stop offset="0.328"/>
<stop offset="0.524"/>
<stop offset="0.73"/>
<stop offset="1"/>
</linearGradient>
<linearGradient id="paint4_linear_3_310" x1="21.9251" y1="277.711" x2="21.9251" y2="-120.057" gradientUnits="userSpaceOnUse">
<stop/>
<stop offset="0.328"/>
<stop offset="0.524"/>
<stop offset="0.73"/>
<stop offset="1"/>
</linearGradient>
<linearGradient id="paint5_linear_3_310" x1="51.6262" y1="181.905" x2="51.6262" y2="64.3187" gradientUnits="userSpaceOnUse">
<stop/>
<stop offset="0.328"/>
<stop offset="0.524"/>
<stop offset="0.73"/>
<stop offset="1"/>
</linearGradient>
<linearGradient id="paint6_linear_3_310" x1="62.2603" y1="214.805" x2="62.2603" y2="58.7593" gradientUnits="userSpaceOnUse">
<stop/>
<stop offset="0.328"/>
<stop offset="0.524"/>
<stop offset="0.73"/>
<stop offset="1"/>
</linearGradient>
<linearGradient id="paint7_linear_3_310" x1="80.7782" y1="210.159" x2="80.7782" y2="87.7751" gradientUnits="userSpaceOnUse">
<stop/>
<stop offset="0.328"/>
<stop offset="0.524"/>
<stop offset="0.73"/>
<stop offset="1"/>
</linearGradient>
<linearGradient id="paint8_linear_3_310" x1="90.5873" y1="247.324" x2="90.5873" y2="91.2783" gradientUnits="userSpaceOnUse">
<stop/>
<stop offset="0.328"/>
<stop offset="0.524"/>
<stop offset="0.73"/>
<stop offset="1"/>
</linearGradient>
<linearGradient id="paint9_linear_3_310" x1="102.413" y1="262.632" x2="102.413" y2="103.997" gradientUnits="userSpaceOnUse">
<stop/>
<stop offset="0.328"/>
<stop offset="0.524"/>
<stop offset="0.73"/>
<stop offset="1"/>
</linearGradient>
<linearGradient id="paint10_linear_3_310" x1="111.947" y1="274.131" x2="111.947" y2="118.162" gradientUnits="userSpaceOnUse">
<stop/>
<stop offset="0.328"/>
<stop offset="0.524"/>
<stop offset="0.73"/>
<stop offset="1"/>
</linearGradient>
<linearGradient id="paint11_linear_3_310" x1="25.4077" y1="0.956108" x2="74.6361" y2="0.956108" gradientUnits="userSpaceOnUse">
<stop/>
<stop offset="0.328"/>
<stop offset="0.524"/>
<stop offset="0.73"/>
<stop offset="1"/>
</linearGradient>
<linearGradient id="paint12_linear_3_310" x1="25.4077" y1="39.6439" x2="74.6361" y2="39.6439" gradientUnits="userSpaceOnUse">
<stop/>
<stop offset="0.328"/>
<stop offset="0.524"/>
<stop offset="0.73"/>
<stop offset="1"/>
</linearGradient>
<linearGradient id="paint13_linear_3_310" x1="46.6759" y1="3.54544" x2="95.9043" y2="3.54544" gradientUnits="userSpaceOnUse">
<stop/>
<stop offset="0.328"/>
<stop offset="0.524"/>
<stop offset="0.73"/>
<stop offset="1"/>
</linearGradient>
<linearGradient id="paint14_linear_3_310" x1="46.6759" y1="39.1108" x2="95.9043" y2="39.1108" gradientUnits="userSpaceOnUse">
<stop/>
<stop offset="0.328"/>
<stop offset="0.524"/>
<stop offset="0.73"/>
<stop offset="1"/>
</linearGradient>
<linearGradient id="paint15_linear_3_310" x1="-1.54417" y1="117.552" x2="-1.54417" y2="7.58181" gradientUnits="userSpaceOnUse">
<stop/>
<stop offset="0.328"/>
<stop offset="0.524"/>
<stop offset="0.73"/>
<stop offset="1"/>
</linearGradient>
<linearGradient id="paint16_linear_3_310" x1="17.6155" y1="131.489" x2="17.6155" y2="37.2069" gradientUnits="userSpaceOnUse">
<stop/>
<stop offset="0.328"/>
<stop offset="0.524"/>
<stop offset="0.73"/>
<stop offset="1"/>
</linearGradient>
<linearGradient id="paint17_linear_3_310" x1="38.9753" y1="143.674" x2="38.9753" y2="61.577" gradientUnits="userSpaceOnUse">
<stop/>
<stop offset="0.328"/>
<stop offset="0.524"/>
<stop offset="0.73"/>
<stop offset="1"/>
</linearGradient>
<linearGradient id="paint18_linear_3_310" x1="54.5597" y1="179.925" x2="54.5597" y2="55.6368" gradientUnits="userSpaceOnUse">
<stop/>
<stop offset="0.328"/>
<stop offset="0.524"/>
<stop offset="0.73"/>
<stop offset="1"/>
</linearGradient>
<linearGradient id="paint19_linear_3_310" x1="72.1609" y1="174.975" x2="72.1609" y2="81.0732" gradientUnits="userSpaceOnUse">
<stop/>
<stop offset="0.328"/>
<stop offset="0.524"/>
<stop offset="0.73"/>
<stop offset="1"/>
</linearGradient>
<linearGradient id="paint20_linear_3_310" x1="89.4871" y1="192.643" x2="89.4871" y2="96" gradientUnits="userSpaceOnUse">
<stop/>
<stop offset="0.328"/>
<stop offset="0.524"/>
<stop offset="0.73"/>
<stop offset="1"/>
</linearGradient>
<linearGradient id="paint21_linear_3_310" x1="107.18" y1="213.967" x2="107.18" y2="111.003" gradientUnits="userSpaceOnUse">
<stop/>
<stop offset="0.328"/>
<stop offset="0.524"/>
<stop offset="0.73"/>
<stop offset="1"/>
</linearGradient>
</defs>
</svg>
